<svg xmlns="http://www.w3.org/2000/svg" xmlns:xlink="http://www.w3.org/1999/xlink" width="407.716" height="481.491" viewBox="0 0 407.716 481.491"><g opacity=".5"><defs><path id="a" d="M0 0h407.716v481.491H0z"/></defs><clipPath id="b"><use xlink:href="#a" overflow="visible"/></clipPath><g clip-path="url(#b)"><defs><path id="c" d="M72.896 196.976l.236-.059.242-.059.059.236"/></defs><clipPath id="d"><use xlink:href="#c" overflow="visible"/></clipPath><radialGradient id="e" cx="-284.254" cy="823.423" r="1.001" gradientTransform="matrix(.2072 0 0 -.2072 132.06 367.584)" gradientUnits="userSpaceOnUse"><stop offset="0" stop-color="#8ec3ca"/><stop offset="1" stop-color="#0c8b95"/></radialGradient><path clip-path="url(#d)" fill="url(#e)" d="M72.896 196.858h.537v.236h-.537z"/></g><g clip-path="url(#b)"><defs><path id="f" d="M10.697 0l102.557 3.853 53.765.388-.428 151.624 218.353 196.549.132.5.237-.059.25.967.065 2.335.073 1.282.065.243-.171.317.06.236-.191.322.316 1.217 3.256 4.638.315.183.066.25 1.342 1.217.617.368.56.106.678.631.236-.065.942 2.624-.132.559 1.414 2.5 1.927 3.42.316 1.223-.244 1.112-.249 1.098.065.257.316.171.066.263.243-.066.059.237 1.473-.381 6.63 4.578.296.183.06.237 1.553 1.954.13 1.526-1.657 1.73-1.572 1.973-.243.059.184.73-.25.066-.842.743-2.861 2.033-1.592.934-.256.065.059.237-1.947.494-.546.921-.237.059.125.493-.184 1.355-.487 2.204-1.085 1.854-1.349.849-.354 1.664.058.243.257-.065.065.256.296.177.067.237.058.25.442 1.723.058.231-.236.065-.197.303-.238.06-.058-.238-.257.067-.237.058.059.238.066.256.322 2.256.547 1.164.315 1.224.566 2.21.059.243-.112.546-.19.322-.244.066-.487.119-.236.065.058.237-.25.066.06.236-.178.318.185.735.137 2.571-.052 1.842-.855 1.776-1.151 1.592-.185.323-1.032 2.072-.236.058v1.053l.039-.007.059.238-.237.058.06.257-.25.065-.349.613-.493.125-.318-.185-1.939 1.539.625 2.453 1.486 3.783.007 2.085.118 1.539-.176.302.019 1.046.059.243-.309.849-.257.066-.171.323-.105.546-.138.546-.178.315.066.236.066.257-.197.311.315.163 1.296 2.026.678.611 1.591.112.546.112.244-.059.25-.066.309.197.184-.322.236-.059-.058-.237.236-.059.257-.066 1.349.185.236-.067.257-.065.057.243.239-.059.065.25 2.204 2.552.066.256.276 3.066.059.236.066 1.29-.125 1.585-.171.322-.862.736-1.263 3.191.06.236-.428.382-1.828.986-1.468.375-2.137-.25-.256.06-.553-.106-.303-.177-.059-.256-.237.065-.19.316-.178.302-.368.612-58.172 7.781v-.006l-42.925 5.479-1.506-4.828-1.355-2.262-.796-.067-.677-.611.796-.98.236-.059.56.111.361.435.441.664 1.118 2.321.618 1.421.731.849.243-.066.257-.066-.066-.243.177-.316-.25-.96-.309-1.23-.427-.671-.25-.986-1.125-1.27-.92-.565-.974-.783-.928.493-.408.375-.131.539-.178.316-.191.309-.296-.184-.427-.671-.013-1.046.112-.552.493-.125.368-.618.606-.665-.125-.493-.303-.191-.612-.356-.177.303-.073.796-.171.316-.256.059-.421-.684-.553-1.164-.375-1.461.112-.551 1.526-1.171-1.447-6.677-2.164-5.446-3.637-6.111-7.814-8.169-.263-.309-.487-.559-4.223-2.308-3.032-3.664-3.795-2.691-.803-1.097-.559-.113-.552-.111-.428.361.868.303.066.236-.191.323-.493.125-.361-.434-3.625-2.986-2.289-2.802-1.894-1.349-.211.059-2.335-.973-.907.5-.316-.191-.191-.737-.289-.177-.487.125h-1.059l-.421.375-.191.302-.105.546.053 1.283-.101.565-.379.618-.784-.072-1.472-.657-.757-.862-2.124-.223-.316-.192-.448-.671-.243-.973.928-.506.723-1.217-.184-1.776-2.099-5.216-2.722-3.466-1.789-.848-5.204.026-4.709.927-.783.966-1.657-1.374-4.111-.795-.039.005-.566-.118-5.446-3.025-1.414-.441 1.532.908-1.578-.092-3.027-2.645-.736.193-.678-.614-.729-1.886-.079-1.284-.421-.677-.079-1.282-.356-.428-.868-.317-1.026.014-.927-.553-.566-1.157-.612-.362-.736.191-1.664-1.421-1.342-1.211-.605-.236-.277-.125-3.051-1.756-3.494-.415-2.749.408-3.815-.579-3.098.007-2.881-1.085-2.65-1.151-3.065.243-2.269-.724-3.053.283-1.578-.112-1.782.165-3.69.934-2.487.388-.309-.165-.612-.368-1.743-3.756-1.342-1.203-1.73-.619-1.203.31-.388-.402-.362-.447-.5-.901.066-.802.723-2.276 1.158-2.658-.704-1.637-.605-1.402.349-2.689.782-2.046-1.111-1.27-1.329-1.229.099-1.579.486-2.217-.065-.532.664-2.224 1.026-2.085-.131-.5.006-1.039-.756-1.894-3.809-1.638-.763.98-4.623-2.73-.691-2.703.368-1.645 1.033-1.051 1.105-.796.164-.31-.25-.974-.539-1.164-.987-1.841-.447-.691-2.21-.474-2.631-1.151-2.098-2.071-1.283-2.027-1.421-2.499-1.361-2.255-2.447-.435-2.401-1.21-1.091-1.289-.375-1.461-.25-.986.302-.849-.19-.736-.441-.671-.184-.737-.06-.237-4.544-3.539-1.56-6.117-3.012-1.591-1.862-4.223-3.38-4.104-.757-.843-2.565-1.953-1.289.059-.73-.848-.079-1.283-2.039-1.821-.244-.967-.059-1.29v-1.059l.296-.861-.434-1.71-.441-1.711-.94-2.631-.059-.256-.066-.229 1.098-.817.191-.302-.118-.481-1.848-1.085-.132-.507.132-.546.48-1.183 1.039-1.046.23-.06.315.185 1.119 1.289.289.178.487-.125.506-.132 1.395-1.657 1.072-4.966.796 1.097.375.421.256-.065.23-.06-.184-.716-.118-.487-.132-.507-.296-.171-.802-.065-.119-.487.658-2.526-.125-.486-.861-1.803-.217-.546-.066-.243-1.112-2.322-1.486-1.703-1.592-1.145-.973.243-.546.921-.25.066-.559-.112-.658-.612-1.224.31-1.164.552-2.026-.789-2.151-1.283-2.65-3.236-1.783-2.934-.868-.301-.598-.356-1.678-2.447-1.355-1.217-1.171-2.578 1.145-5.762-1.94-6.551-.744-.849-1.032-.006-.632-1.395-.059-3.374.842-.737.355-1.664-.559-3.243.178-.302.052-3.921 1.026-.013.244-1.098 3.249.48.704 3.736-.435.362.125.493v.132L73 222.758l-.191.322.434 1.704 2.644 2.203 1.348.185.803 1.098 1.789.842 1.467 1.716.855.303.868 1.342.993.803.855.276 1.349.177 1.039.027.651-.461.211-.303.23-.052-1.217-.737-1.355-.184-.5-.907-.677-.606-.237.066-.559-.131-.796-2.138-.993-1.842-.322-2.256.118-1.605-.993-1.828-.724-.849-.816-.066-.125-.493-.598-.355.178-.316-.06-.237 1.04-.013.177-.303-.302-.19-2.342-.96-1.947-.553-.315-1.223.289-.862.861-.736.112-.54.007-1.052-.25-.987-.375-.408-.066-.257-.039.02-.362-.434-.855-.289-1.046-.007-.243.059-.5-.907-.434-.691-.059-.237.184-.296.677-.447.724-1.217.236-1.111.178-.297 1.112.224 1.217-.309 1.105-.789 1.585-.934.855.309 1.111.223.671.632.869.283 2.749-.421 1.388-.632 1.223-.309.941.559 1.348.165 3.059.796 3.308.717 3.493.414.73-.191-.368-.434-.605-.349.921-.506.598-.678.052-.789.073-.796.473-.125 1.54-.138 1.092.25.125.48v-.006l.125.506.381.421.671.612 1.158.474.421-.355.354.42.764.862.5.908.671.618.42-.375-.059-.237-.25-.986-.421-.685-.256.066-.441-.671-.967-.789-.861-.296-.25.06-.612-.362-.612-.382.112-.539-.421-.684-.066-.231-.315-.19-.231.059-.736.191-2.487.381-.506.132-.198.295-.039.796.118.487-.42.382-.25.059-.362.612-.23.059-.257.065-.25.066-1.033.014-.92-.553-.362-.427.171-.31.802.066 1.645-.691.361-.604.717-1.244.513-1.164.402-1.407-.119-.487-.006-.007-.257.066-.414.362.065.256-.256.066-.776.974-1.039 2.091-.612.664-1.46.375-1.776.198-1.283.072-.375.605-.493.125-.553-.112-.362-.434.369-.618-.119-.48-.322-.191-1.953.5-.855-.309-.678-.606.191-.295.901-.507.197-.303-.066-.236-.125-.494-.374-.427-.553-.118-.368-.428-.98.25-.737.184-.302.862-.165 1.342-.967 1.302-1.467 1.401-.263.066-1.276-.974-1.473-.664-.73.191-.553-.132-.315-1.223-.494.125-.111.559-.257.059-.362-.428.112-.559-.973-.783-1.605-1.17-1.296-.974-.053-.236-.059-.237-.25.066-.236.059-.316-.184.066.25-.297-.191-.506.125-.053.782-.421 1.408-.256.066-1.086-.217-.552-.132-.73.132-.099.283.25.25.06.236.506.928.125.493-.355 1.651-.625.684.065.23.125.5 1.23.737.619.368.065.237-.197.296-.664.447-.967.244-.131.559.44.664-.427.362-.191.322.441.665.914.545.618.369.487.907-.171.323-.197.296-.237.065-.493.125-.237.06-.566-1.158-.73.184 1.118 2.322.059.257-.861.723-.533-.112-.257.066-.059-.237-.5.125-.066-.256-5.209-4.144-.552-1.158-.007 1.026-.901.507-3.019-2.618-1.862-3.184-3.359-.973-.438-1.717.611-.664-.67.428-.188-.737-.975 1.282 1.044 1.039-.556-.111-1.273 1.105.489.927-2.138-.236 2.949-7.801-1.362-4.342 3.893 6.039 2.388 2.269-3.955-7.341-1.472-.677-1.365-3.295-.064-.25-.042-.059-.837-.218-.807-.079-.357.625-.06-.23-.321-.21-.565-1.158-.05-2.309-1.128-2.315-.487-.934-.128-.5-7.875-6.315-3.943-7.353-3.759-3.466.007-.014-2.039-1.835-4.728-6.347-.076-1.282 1.211-1.362.725-3.322-.944-4.703-1.845-3.19-1.693-7.643 1.12-6.801 1.697-3.572-.802-2.144-.137-4.656-1.245-1.77-.562-5.328-1.787-1.901-.877-2.381-3.329-4.893-.236.065-.565-1.164-1.283.079-.208-2.841-.857-1.336-1.828-1.085-7.27-7.018.347-3.756-1.748-5.801 1.763-5.413 1.738-3.572-.01-.033h-.019l.1-.5.485-.125-.124-.487 2.309-4.249-.06-.23.53-.921.253-.066.253-.065.064.256.059.23-.188.316-.471 1.158-.421.374.124.487.356.421.61.369.426-.362.317-.862.218-1.092.144-.578.173-.29.53-.921.317-.868.426-.355.233-.059.693-.448.907-.5.193-.296.654-.44.362-.605-.065-.257-.357-.421-.628-.361h-1.036l-.253.059-.108.545-.298.862-1.526 2.21-1.094.816-.064-.25-.124-.487.485-1.177.6-1.703 3.452-6.907.348-2.69-.605-1.401-.139-3.625.852-2.821 2.523-9.502-.149-4.638-.072-.758-.251-2.575 1.288-.054-1.535-.917-1.773-8.947-2.014-.79-1.542-1.944 1.458-3.504.762-4.108.368-.616z"/></defs><clipPath id="g"><use xlink:href="#f" overflow="visible"/></clipPath><radialGradient id="h" cx="-101.023" cy="673.944" r="1" gradientTransform="matrix(223.0652 0 0 -223.0652 22738.52 150574.172)" gradientUnits="userSpaceOnUse"><stop offset="0" stop-color="#8ec3ca"/><stop offset="1" stop-color="#0c8b95"/></radialGradient><path clip-path="url(#g)" fill="url(#h)" d="M.001 0h407.714v481.491H.001z"/></g></g><g opacity=".6"><defs><path id="i" d="M279.612 464.008h13v13h-13z"/></defs><clipPath id="j"><use xlink:href="#i" overflow="visible"/></clipPath><path clip-path="url(#j)" fill="#E36D2B" d="M292.613 470.508a6.5 6.5 0 1 1-13 0 6.5 6.5 0 0 1 13 0"/></g><g opacity=".6"><defs><path id="k" d="M269.615 400.769h13v13h-13z"/></defs><clipPath id="l"><use xlink:href="#k" overflow="visible"/></clipPath><path clip-path="url(#l)" fill="#E36D2B" d="M282.615 407.269a6.5 6.5 0 1 1-13 0 6.5 6.5 0 0 1 13 0"/></g><g opacity=".6"><defs><path id="m" d="M268.614 429.154h13v13h-13z"/></defs><clipPath id="n"><use xlink:href="#m" overflow="visible"/></clipPath><path clip-path="url(#n)" fill="#E36D2B" d="M281.614 435.654a6.5 6.5 0 1 1-13 0 6.5 6.5 0 0 1 13 0"/></g><g opacity=".6"><defs><path id="o" d="M230.26 400.769h13v13h-13z"/></defs><clipPath id="p"><use xlink:href="#o" overflow="visible"/></clipPath><path clip-path="url(#p)" fill="#E36D2B" d="M243.26 407.269a6.5 6.5 0 1 1-13 0 6.5 6.5 0 0 1 13 0"/></g><g opacity=".6"><defs><path id="q" d="M162.776 375.908h13v13h-13z"/></defs><clipPath id="r"><use xlink:href="#q" overflow="visible"/></clipPath><path clip-path="url(#r)" fill="#E36D2B" d="M175.776 382.408a6.5 6.5 0 1 1-13 0 6.5 6.5 0 0 1 13 0"/></g><g opacity=".6"><defs><path id="s" d="M82.257 245.794h13v13h-13z"/></defs><clipPath id="t"><use xlink:href="#s" overflow="visible"/></clipPath><path clip-path="url(#t)" fill="#E36D2B" d="M95.257 252.294a6.5 6.5 0 1 1-13 0 6.5 6.5 0 0 1 13 0"/></g><g opacity=".6"><defs><path id="u" d="M123.54 234.482h13v13h-13z"/></defs><clipPath id="v"><use xlink:href="#u" overflow="visible"/></clipPath><path clip-path="url(#v)" fill="#E36D2B" d="M136.54 240.982a6.5 6.5 0 1 1-13 0 6.5 6.5 0 0 1 13 0"/></g><g opacity=".6"><defs><path id="w" d="M63.259 213.008h13v13h-13z"/></defs><clipPath id="x"><use xlink:href="#w" overflow="visible"/></clipPath><path clip-path="url(#x)" fill="#E36D2B" d="M76.259 219.508a6.5 6.5 0 1 1-13 0 6.5 6.5 0 0 1 13 0"/></g><g opacity=".6"><defs><path id="y" d="M75.256 204.3h13v13h-13z"/></defs><clipPath id="z"><use xlink:href="#y" overflow="visible"/></clipPath><path clip-path="url(#z)" fill="#E36D2B" d="M88.256 210.8a6.5 6.5 0 1 1-13 0 6.5 6.5 0 0 1 13 0"/></g><g opacity=".6"><defs><path id="A" d="M92.24 177.195h13v13h-13z"/></defs><clipPath id="B"><use xlink:href="#A" overflow="visible"/></clipPath><path clip-path="url(#B)" fill="#E36D2B" d="M105.24 183.695a6.5 6.5 0 1 1-13 0 6.5 6.5 0 0 1 13 0"/></g></svg>