<?xml version="1.0" encoding="utf-8"?>
<!-- Generator: Adobe Illustrator 26.2.1, SVG Export Plug-In . SVG Version: 6.00 Build 0)  -->
<svg version="1.1" id="Layer_1" xmlns="http://www.w3.org/2000/svg" xmlns:xlink="http://www.w3.org/1999/xlink" x="0px" y="0px"
	 viewBox="0 0 55.8 56.1" style="enable-background:new 0 0 55.8 56.1;" xml:space="preserve">
<style type="text/css">
	.st0{fill:#3594A6;}
</style>
<path class="st0" d="M21.3,5.3c1.3,0,2.3-1,2.3-2.3c0-1.3-1-2.3-2.3-2.3c-1.3,0-2.3,1-2.3,2.3C19.1,4.3,20.1,5.3,21.3,5.3L21.3,5.3
	 M9.4,13c1.7,0,3-1.4,2.9-3c0-1.7-1.4-3-3-2.9c-1.7,0-3,1.4-2.9,3C6.4,11.7,7.8,13,9.4,13 M2.9,23.5c1.3,0,2.3-1,2.3-2.3
	c0-1.3-1-2.3-2.3-2.3s-2.3,1-2.3,2.3S1.7,23.5,2.9,23.5 M2.9,32.1c-1.7,0-3,1.4-2.9,3s1.4,3,3,2.9l0,0C4.7,38,6,36.6,5.9,34.9
	C5.9,33.3,4.6,32.1,2.9,32.1 M9.5,44c-1.3,0-2.3,1-2.3,2.3s1,2.3,2.3,2.3s2.3-1,2.3-2.3S10.8,44,9.5,44 M21.5,50.1c-1.7,0-3,1.4-3,3
	c0,1.7,1.4,3,3,3c0,0,0,0,0,0c1.7,0,3-1.4,2.9-3.1C24.5,51.4,23.1,50.1,21.5,50.1 M34.5,50.8c-1.3,0-2.3,0.9-2.3,2.2
	c0,1.3,0.9,2.3,2.2,2.3c0,0,0.1,0,0.1,0c1.3,0,2.2-1.1,2.2-2.3C36.6,51.8,35.7,50.8,34.5,50.8 M46.3,43.1c-1.7,0-3,1.3-3,3
	c0,1.7,1.3,3,3,3c0,0,0.1,0,0.1,0c1.7,0,3-1.4,2.9-3c0,0,0,0,0,0C49.4,44.4,48,43.1,46.3,43.1C46.3,43.1,46.3,43.1,46.3,43.1
	 M52.8,32.6c-1.3,0-2.3,1-2.3,2.3s1,2.3,2.3,2.3c1.3,0,2.3-1,2.3-2.3S54.1,32.6,52.8,32.6 M52.8,24.1c1.7,0,3-1.4,2.9-3
	s-1.4-3-3-2.9s-3,1.4-2.9,3S51.2,24.1,52.8,24.1 M46.3,12.1c1.3,0,2.2-1.1,2.2-2.3c0-1.2-1-2.2-2.2-2.2c-1.3,0-2.3,1-2.3,2.3
	C44,11.1,45,12.1,46.3,12.1 M34.3,6c1.7,0,3-1.4,2.9-3c0,0,0,0,0,0c0-1.7-1.4-3-3-2.9c-1.7,0-3,1.4-2.9,3C31.3,4.7,32.7,6,34.3,6
	C34.3,6,34.3,6,34.3,6 M34.5,10.2c0,2.1,1.6,3.8,3.7,3.8s3.8-1.6,3.8-3.7c0,0,0-0.1,0-0.1c0-2.1-1.7-3.7-3.8-3.7
	C36.1,6.5,34.5,8.2,34.5,10.2 M27.9,10.6c1.7,0,3-1.4,3-3c0-1.7-1.3-3-3-3c-1.7,0-3,1.4-3,3C24.9,9.3,26.2,10.6,27.9,10.6
	 M17.8,13.9c2.1,0,3.8-1.6,3.8-3.7c0-2.1-1.6-3.8-3.7-3.8c0,0-0.1,0-0.1,0c-2.1,0-3.7,1.7-3.7,3.8C14.1,12.2,15.8,13.9,17.8,13.9
	 M7.3,17.6c0,1.7,1.3,3,3,3s3-1.3,3-3s-1.3-3-3-3S7.3,16,7.3,17.6 M7.4,24.3c-2.1,0-3.8,1.6-3.8,3.7s1.6,3.8,3.7,3.8
	c0,0,0.1,0,0.1,0c2.1,0,3.8-1.7,3.8-3.8S9.5,24.3,7.4,24.3 M10.4,35c-1.7,0-3,1.3-3,3c0,1.7,1.4,3,3.1,2.9c1.6,0,2.9-1.3,2.9-2.9
	C13.4,36.4,12,35,10.4,35L10.4,35 M21.5,45.5c0-2.1-1.7-3.8-3.8-3.8c-2.1,0-3.8,1.7-3.8,3.8l0,0c0,2.1,1.7,3.8,3.8,3.8
	C19.9,49.3,21.5,47.6,21.5,45.5 M27.9,45.4c-1.7,0-3,1.3-3.1,2.9c0,1.7,1.3,3,2.9,3.1c0.1,0,0.1,0,0.2,0c1.7,0,3-1.4,2.9-3.1
	C30.8,46.8,29.5,45.5,27.9,45.4 M38.2,41.8c-2.1,0-3.8,1.7-3.8,3.8c0,2.1,1.7,3.8,3.8,3.8c0,0,0,0,0,0c2.1,0,3.8-1.7,3.8-3.8
	C42,43.5,40.3,41.8,38.2,41.8 M45.7,41.1c1.7,0,3-1.3,3-3l0,0c0-1.7-1.4-3-3.1-3c-1.6,0-2.9,1.3-3,3C42.7,39.7,44,41.1,45.7,41.1
	C45.7,41.1,45.7,41.1,45.7,41.1 M44.5,28c0,2.1,1.7,3.8,3.8,3.8S52,30.1,52,28c0-2.1-1.7-3.8-3.8-3.8S44.5,26,44.5,28L44.5,28
	 M45.7,20.6c1.7,0,3-1.3,3-3c0-1.7-1.3-3-3-3c-1.7,0-3,1.3-3,3S44,20.6,45.7,20.6"/>
</svg>
