<svg xmlns="http://www.w3.org/2000/svg" width="1536" height="1792" viewBox="0 0 1536 1792"><path fill-rule="evenodd" d="M896 544c0 26.667 9.333 49.333 28 68s41.333 28 68 28h544v1056c0 26.667-9.333 49.333-28 68s-41.333 28-68 28H96c-26.667 0-49.333-9.333-68-28s-28-41.333-28-68V96c0-26.667 9.333-49.333 28-68S69.333 0 96 0h800v544zm128-32V40c14.667 9.333 26.667 18.667 36 28l408 408c9.333 9.333 18.667 21.333 28 36h-472zM894.143 942c-60.667-49.333-109.333-128.667-146-238 8-46 12.667-110 14-192v-30c0-3.333-.333-6-1-8 1.333-1.333 2.667-4 4-8 6-31.333 3-54-9-68-8-10-19.667-15-35-15h-22c-20.667 0-34.667 13.333-42 40-8.667 33.333-10.833 75.833-6.5 127.5s14.5 104.833 30.5 159.5c-24 84-58.667 171.333-104 262-36.667 74.667-72.333 140.333-107 197 0-1.333-.667-2.667-2-4-6-10-13.667-12-23-6-56.667 30-100.667 62.167-132 96.5s-50 64.833-56 91.5c-2.667 17.333-.667 29.333 6 36 3.333 2.667 5.333 4.333 6 5l24 12c8.667 4.667 18 7 28 7 59.333 0 140-87.333 242-262 114-39.333 244.667-67 392-83 42 22 85.333 39.667 130 53 44.667 13.333 83 20 115 20 43.333 0 67-12.667 71-38v-1l2-2c.667-.667 1-1.333 1-2 9.333-20 8.667-37.333-2-52-20-32.667-79-49-177-49-38.667 0-77.667 2.333-117 7-34-20-62-38.667-84-56zm-576 411c8.667-20 25.167-44.667 49.5-74s53.5-57.333 87.5-84c-56.667 89.333-102.333 142-137 158zm398-920v-2c.667-.667 1-1.333 1-2 8 9.333 12.333 21.333 13 36 0 .667.333 1.667 1 3 0 .667.333 1.333 1 2-2 2.667-3.333 5.333-4 8-4.667 26.667-7 41-7 43-4 24.667-6.333 39.333-7 44-8.667-60-8-104 2-132zm-124 661c10-18 25-45.667 45-83 37.333-74 65-139.667 83-197 34 72.667 76.333 131.333 127 176 3.333 3.333 8.667 7.833 16 13.5s11.667 8.833 13 9.5c-99.333 18-194 45-284 81zm646-16c1.333 1.333 2 2.333 2 3-2.667.667-8.667 1-18 1-32 0-73.333-9.333-124-28 77.333 0 124 8 140 24z"/></svg>