<svg xmlns="http://www.w3.org/2000/svg" width="245.238" height="56.143" viewBox="10.927 62.517 245.238 56.143"><path fill="#3594A6" d="M32.253 67.823a2.27 2.27 0 1 0 0-4.54 2.27 2.27 0 0 0 0 4.54m-11.905 7.684a2.996 2.996 0 0 0 2.942-3.049 2.995 2.995 0 1 0-5.99.105 2.997 2.997 0 0 0 3.048 2.944m-6.472 10.559a2.27 2.27 0 1 0-.003-4.54 2.27 2.27 0 0 0 .003 4.54m-.004 8.511a2.995 2.995 0 1 0 .105 5.99 2.996 2.996 0 0 0-.105-5.99m6.571 11.929a2.27 2.27 0 1 0 0 4.541 2.27 2.27 0 0 0 0-4.541m11.957 6.16a2.997 2.997 0 1 0 .105 5.993 2.997 2.997 0 0 0-.106-5.993m12.991.647a2.27 2.27 0 1 0 0 4.538 2.27 2.27 0 0 0 0-4.538m11.885-7.663a2.998 2.998 0 1 0 .104 5.994 2.996 2.996 0 0 0 2.942-3.05 2.995 2.995 0 0 0-3.046-2.944m6.478-10.521a2.27 2.27 0 1 0 0 4.541 2.27 2.27 0 0 0 0-4.541m.005-8.553a2.995 2.995 0 1 0-.104-5.99 2.995 2.995 0 1 0 .104 5.99m-6.566-11.93a2.271 2.271 0 0 0 0-4.54 2.27 2.27 0 1 0 0 4.54m-11.946-6.137a2.995 2.995 0 0 0 2.943-3.048 2.997 2.997 0 1 0-2.943 3.048m.152 4.191a3.763 3.763 0 1 0 7.525 0 3.763 3.763 0 0 0-7.525 0m-6.576.447a3.01 3.01 0 0 0 0-6.02 3.01 3.01 0 0 0 0 6.02M28.737 76.42a3.763 3.763 0 1 0 0-7.525 3.763 3.763 0 0 0 0 7.525m-10.488 3.736a3.01 3.01 0 1 0 6.02 0 3.01 3.01 0 0 0-6.02 0m.099 6.674a3.763 3.763 0 1 0 0 7.525 3.763 3.763 0 0 0 0-7.526m2.947 10.728a3.012 3.012 0 0 0-3.011 3.01 3.011 3.011 0 0 0 6.02 0 3.01 3.01 0 0 0-3.01-3.01m11.182 10.5a3.761 3.761 0 1 0-7.523-.002 3.761 3.761 0 0 0 7.523.002m6.318-.1a3.01 3.01 0 1 0 0 6.018 3.01 3.01 0 0 0 0-6.018m10.366-3.662a3.761 3.761 0 1 0-.002 7.522 3.761 3.761 0 0 0 .002-7.522m7.454-.684a3.011 3.011 0 0 0 3.012-3.01 3.011 3.011 0 0 0-6.021 0 3.009 3.009 0 0 0 3.01 3.01m-1.172-13.054a3.763 3.763 0 1 0 7.526-.002 3.763 3.763 0 0 0-7.526.002m1.171-7.392a3.011 3.011 0 1 0 .002-6.022 3.011 3.011 0 0 0-.002 6.022"/><path fill="#4F4C4C" d="M95.855 79.18a6.97 6.97 0 0 0-.248-1.621 4.113 4.113 0 0 0-.662-1.356 3.117 3.117 0 0 0-1.174-.943c-.486-.231-1.07-.348-1.754-.348-1.28 0-2.271.397-2.977 1.191s-1.17 1.82-1.389 3.077h8.204zm-8.338 1.92c.022.838.127 1.637.315 2.398.187.761.48 1.434.876 2.018a4.33 4.33 0 0 0 1.538 1.39c.63.341 1.384.512 2.266.512.552 0 1.059-.054 1.522-.165.463-.11.877-.237 1.241-.38.364-.144.683-.298.96-.463.275-.166.5-.304.678-.414l.992 1.886a16.38 16.38 0 0 1-.777.479c-.32.188-.706.365-1.158.53-.453.165-.97.308-1.555.43a9.745 9.745 0 0 1-1.968.182c-1.258 0-2.355-.221-3.292-.662a6.686 6.686 0 0 1-2.35-1.803c-.627-.76-1.096-1.654-1.405-2.68a11.33 11.33 0 0 1-.463-3.292c0-1.168.177-2.254.529-3.258.353-1.003.844-1.874 1.472-2.613a6.783 6.783 0 0 1 2.25-1.737c.871-.418 1.836-.628 2.894-.628 1.06 0 2.002.198 2.83.596a5.307 5.307 0 0 1 2.033 1.687c.53.727.91 1.599 1.142 2.613.232 1.014.292 2.139.182 3.374H87.518m27.193 2.49a5.43 5.43 0 0 1-.522 2.377 5.654 5.654 0 0 1-1.456 1.884c-.622.528-1.38.935-2.273 1.221-.893.286-1.87.43-2.928.43a9.631 9.631 0 0 1-2.283-.252 10.378 10.378 0 0 1-1.802-.605 8.028 8.028 0 0 1-1.324-.738 6.511 6.511 0 0 1-.843-.688l1.323-1.853.595.496c.265.222.601.436 1.01.646s.898.397 1.472.562 1.224.248 1.951.248c.684 0 1.301-.104 1.853-.314a4.732 4.732 0 0 0 1.422-.825 3.5 3.5 0 0 0 .91-1.19c.21-.45.315-.919.315-1.403 0-.661-.144-1.24-.43-1.735a4.808 4.808 0 0 0-1.142-1.32 9.83 9.83 0 0 0-1.621-1.057 57.846 57.846 0 0 0-1.869-.941 31.875 31.875 0 0 1-1.92-1.04 7.843 7.843 0 0 1-1.636-1.272 5.821 5.821 0 0 1-1.142-1.668c-.287-.628-.43-1.382-.43-2.263 0-.902.178-1.701.536-2.395a5.447 5.447 0 0 1 1.44-1.767 6.235 6.235 0 0 1 2.06-1.09 8.033 8.033 0 0 1 2.415-.363c.815 0 1.544.067 2.183.202s1.197.291 1.67.47c.475.18.872.375 1.192.588.32.213.568.386.744.52l-1.257 1.925c-.375-.309-.938-.64-1.687-.993-.75-.352-1.709-.529-2.878-.529-1.103 0-2.018.303-2.746.909-.728.606-1.091 1.414-1.091 2.428 0 .55.104 1.028.312 1.436.207.407.492.776.854 1.107.362.33.779.628 1.25.891.47.265.98.53 1.528.794.723.352 1.457.72 2.202 1.106a9.315 9.315 0 0 1 2.005 1.387 6.767 6.767 0 0 1 1.462 1.932c.384.749.576 1.662.576 2.741m15.151 4.325c-.155.132-.37.287-.645.463a6.95 6.95 0 0 1-1.042.53 7.76 7.76 0 0 1-1.439.429 9.425 9.425 0 0 1-1.869.165c-1.17 0-2.206-.231-3.11-.695a6.842 6.842 0 0 1-2.266-1.835c-.607-.761-1.065-1.649-1.373-2.663a10.723 10.723 0 0 1-.463-3.143c0-1.368.198-2.57.596-3.606.396-1.036.926-1.903 1.587-2.597a6.697 6.697 0 0 1 2.316-1.588 7.302 7.302 0 0 1 2.812-.546c1.301 0 2.342.188 3.126.563.783.375 1.362.716 1.737 1.025l-1.158 1.82a10.226 10.226 0 0 0-1.488-.894c-.574-.286-1.323-.43-2.25-.43-.816 0-1.522.16-2.118.48-.594.32-1.08.756-1.455 1.307s-.656 1.207-.843 1.968a10.107 10.107 0 0 0-.281 2.431c0 .839.093 1.638.28 2.4a6.39 6.39 0 0 0 .861 2.017 4.259 4.259 0 0 0 1.489 1.39c.606.341 1.317.512 2.133.512.507 0 .97-.05 1.39-.149a6.76 6.76 0 0 0 1.125-.363c.33-.144.611-.293.843-.447.232-.154.402-.275.513-.364l.992 1.82m13.463 1.191V78.254c0-.993-.204-1.78-.611-2.365-.41-.584-1.142-.877-2.201-.877-.618 0-1.185.132-1.702.397-.52.264-.983.562-1.389.893-.41.33-.74.656-.993.976-.255.32-.425.535-.514.645v11.181H133.5V65.286h2.415v10.222c.177-.22.413-.485.712-.794.297-.309.66-.6 1.09-.877a7.243 7.243 0 0 1 1.489-.71 5.577 5.577 0 0 1 1.87-.299c.838 0 1.549.133 2.134.397a4.046 4.046 0 0 1 1.438 1.059c.377.441.65.965.828 1.572.175.606.264 1.251.264 1.934v11.314h-2.415m18.56-7.906c0-.86-.106-1.67-.315-2.431a5.937 5.937 0 0 0-.96-2.002 4.732 4.732 0 0 0-1.571-1.356c-.617-.331-1.346-.496-2.184-.496-.815 0-1.52.165-2.117.496-.596.33-1.074.778-1.438 1.34s-.634 1.218-.812 1.968c-.176.75-.265 1.555-.265 2.415 0 .86.094 1.67.282 2.431s.481 1.429.878 2.002a4.321 4.321 0 0 0 1.504 1.356c.607.331 1.319.496 2.134.496.838 0 1.56-.164 2.168-.496a4.396 4.396 0 0 0 1.504-1.34c.399-.562.694-1.218.895-1.968.197-.75.297-1.555.297-2.415zm2.58-.066c0 .926-.139 1.886-.414 2.878a8.152 8.152 0 0 1-1.307 2.696c-.595.806-1.367 1.472-2.314 2.002-.95.529-2.098.794-3.442.794-1.345 0-2.482-.26-3.407-.777a6.955 6.955 0 0 1-2.266-1.986 8.1 8.1 0 0 1-1.274-2.68 10.968 10.968 0 0 1-.398-2.86c0-.928.126-1.886.382-2.879a8.023 8.023 0 0 1 1.24-2.696 6.99 6.99 0 0 1 2.233-2.001c.914-.53 2.047-.794 3.393-.794 1.343 0 2.497.259 3.455.777.96.518 1.742 1.18 2.35 1.985a8.304 8.304 0 0 1 1.34 2.68c.285.981.429 1.935.429 2.861m4.102 7.973h2.414v-23.82h-2.414v23.82zm15.813-7.543h-.696c-.859 0-1.648.061-2.364.182-.717.121-1.336.326-1.852.612a3.35 3.35 0 0 0-1.226 1.125c-.299.463-.445 1.025-.445 1.687 0 .419.077.772.23 1.058.155.288.348.519.58.695s.485.304.76.38c.277.078.536.116.778.116.905 0 1.709-.209 2.416-.628a6.186 6.186 0 0 0 1.82-1.654v-3.573zm.364 7.543c-.044-.22-.088-.535-.133-.943a48.194 48.194 0 0 1-.1-.977c-.528.662-1.206 1.214-2.033 1.655s-1.738.661-2.73.661c-1.323 0-2.409-.385-3.26-1.158-.847-.771-1.271-1.807-1.271-3.11 0-1.058.258-1.934.777-2.629a5.67 5.67 0 0 1 2.018-1.671 9.83 9.83 0 0 1 2.744-.893 16.927 16.927 0 0 1 2.928-.265h.696v-1.478c0-1.182-.254-2.026-.76-2.529-.51-.504-1.312-.756-2.417-.756-.726 0-1.422.127-2.083.38-.66.254-1.346.7-2.052 1.34l-1.289-1.687c1.565-1.478 3.428-2.216 5.591-2.216 1.74 0 3.081.424 4.019 1.273s1.406 2.178 1.406 3.987v7.41c0 .794.033 1.5.1 2.117.065.618.154 1.114.263 1.489h-2.414m15.051-13.63a3.39 3.39 0 0 0-.446-.165c-.21-.066-.524-.1-.943-.1-.596 0-1.127.144-1.589.43a5.29 5.29 0 0 0-1.19.993c-.332.375-.59.74-.778 1.092s-.302.595-.347.727v10.653h-2.414v-15.88h2.414v2.482a8.68 8.68 0 0 1 .613-.893c.252-.331.557-.646.907-.944a4.994 4.994 0 0 1 1.21-.743 3.698 3.698 0 0 1 1.504-.298c.485 0 .856.044 1.11.132.252.088.435.154.545.198l-.596 2.316m13.035 9.362c0 1.456-.509 2.602-1.522 3.44-1.015.839-2.394 1.258-4.136 1.258-1.147 0-2.146-.165-2.993-.496-.851-.331-1.528-.673-2.035-1.026l1.06-1.853c.308.221.798.492 1.47.81.672.32 1.495.48 2.465.48.994 0 1.78-.198 2.366-.595.583-.397.876-.96.876-1.687 0-.728-.293-1.295-.876-1.704-.585-.407-1.461-.865-2.63-1.373a20.981 20.981 0 0 1-1.72-.827 6.45 6.45 0 0 1-1.39-.992 3.998 3.998 0 0 1-.926-1.307c-.222-.496-.331-1.086-.331-1.77 0-1.235.441-2.271 1.322-3.109.883-.838 2.117-1.257 3.706-1.257.663 0 1.25.06 1.77.181.518.122.977.265 1.373.43a6.136 6.136 0 0 1 1.556.91l-1.192 1.754c-.288-.22-.722-.475-1.306-.762-.585-.286-1.329-.43-2.235-.43-.837 0-1.486.194-1.951.58-.463.385-.694.92-.694 1.604 0 .75.286 1.318.86 1.703.572.387 1.3.767 2.184 1.142.64.265 1.257.546 1.851.843.596.298 1.12.635 1.572 1.01.452.374.815.81 1.092 1.307.273.496.414 1.074.414 1.736m13.894 4.268V78.254c0-.993-.205-1.78-.613-2.365-.408-.584-1.14-.877-2.2-.877-.617 0-1.186.132-1.704.397s-.982.562-1.39.893c-.407.33-.739.656-.992.976-.254.32-.424.535-.513.645v11.181h-2.415V65.286h2.415v10.222c.176-.22.414-.485.713-.794a6.04 6.04 0 0 1 1.091-.877 7.1 7.1 0 0 1 1.49-.71 5.56 5.56 0 0 1 1.867-.299c.837 0 1.55.133 2.133.397a4.044 4.044 0 0 1 1.44 1.059c.374.441.65.965.827 1.572a6.92 6.92 0 0 1 .265 1.934v11.314h-2.414m7.905.001v-15.88h2.45v15.88h-2.45zm1.225-22.43c.505 0 .931.171 1.273.513.342.342.512.767.512 1.274s-.17.932-.512 1.273c-.342.343-.768.513-1.274.513-.507 0-.931-.17-1.273-.513-.342-.34-.513-.766-.513-1.273s.171-.932.513-1.274c.342-.342.766-.513 1.273-.513m17.732 14.523c0-.882-.089-1.703-.265-2.465-.176-.76-.441-1.416-.794-1.968a3.815 3.815 0 0 0-1.356-1.29c-.553-.309-1.201-.463-1.951-.463a4.12 4.12 0 0 0-1.506.264 5.975 5.975 0 0 0-1.207.63 5.505 5.505 0 0 0-.877.727 6.099 6.099 0 0 0-.513.595v8.734c.375.33.854.656 1.438.976s1.373.48 2.368.48c.77 0 1.441-.155 2.015-.463a4.201 4.201 0 0 0 1.456-1.308c.397-.562.696-1.223.894-1.984a9.67 9.67 0 0 0 .298-2.465zm2.58-.066c0 1.257-.17 2.398-.514 3.424-.34 1.026-.826 1.902-1.455 2.63a6.778 6.778 0 0 1-2.216 1.704c-.85.407-1.793.612-2.828.612-1.125 0-2-.166-2.63-.497-.628-.33-1.097-.628-1.406-.893v8.238H242.7V73.226h2.416v1.72c.42-.507 1.004-.987 1.754-1.44.75-.451 1.697-.677 2.844-.677 1.941 0 3.5.722 4.68 2.166 1.181 1.445 1.771 3.49 1.771 6.137"/><path fill="#64666B" d="M95.367 109.673c0 1.459-.365 2.617-1.094 3.472-.73.854-1.873 1.283-3.428 1.283-.813 0-1.513-.113-2.1-.341-.585-.228-1.067-.544-1.443-.952a3.672 3.672 0 0 1-.826-1.48 6.66 6.66 0 0 1-.26-1.91v-7.484h1.4v7.315c0 1.246.262 2.17.79 2.768.525.6 1.351.898 2.475.898 1.077 0 1.875-.317 2.396-.952.52-.635.78-1.455.78-2.462v-7.567h1.31v7.412m8.147 4.538v-5.885c0-.538-.11-.965-.331-1.283-.222-.316-.62-.476-1.194-.476-.49 0-.951.16-1.382.476a5.3 5.3 0 0 0-1.112 1.103v6.065h-1.31v-8.613h1.31v1.238c.382-.49.81-.855 1.283-1.094a3.31 3.31 0 0 1 1.516-.36c.455 0 .84.073 1.158.216.316.144.576.336.78.576.204.238.353.523.449.851.095.328.143.68.143 1.05v6.136h-1.31m4.289 0v-8.613h1.328v8.613h-1.328zm.664-12.165c.275 0 .505.093.69.278s.279.415.279.692c0 .273-.093.504-.278.69s-.416.278-.691.278-.506-.092-.691-.278-.278-.417-.278-.69c0-.277.092-.506.278-.692s.415-.278.69-.278m6.461 10.444l2.404-6.892h1.346l-3.176 8.613h-1.22l-3.284-8.613h1.435l2.459 6.892h.036m10.713-3.662a3.806 3.806 0 0 0-.135-.879 2.2 2.2 0 0 0-.358-.734 1.694 1.694 0 0 0-.638-.514c-.263-.124-.58-.187-.95-.187-.695 0-1.233.215-1.616.646-.383.43-.634.987-.753 1.668h4.45zm-4.522 1.041c.012.455.069.888.17 1.3.102.414.26.78.476 1.097.215.317.493.567.834.752.341.187.751.279 1.23.279.298 0 .574-.03.825-.089.251-.062.476-.13.673-.208.197-.078.37-.16.52-.251.15-.089.273-.163.368-.225l.539 1.023a8.079 8.079 0 0 1-.423.262 3.892 3.892 0 0 1-.627.287 6.092 6.092 0 0 1-.844.232 5.22 5.22 0 0 1-1.067.1c-.682 0-1.278-.12-1.786-.36a3.614 3.614 0 0 1-1.274-.977 4.12 4.12 0 0 1-.762-1.454c-.168-.555-.252-1.15-.252-1.785s.096-1.224.287-1.768a4.436 4.436 0 0 1 .799-1.418 3.587 3.587 0 0 1 2.79-1.283c.574 0 1.086.107 1.535.322.447.217.816.522 1.102.916.288.396.494.867.62 1.418.125.55.158 1.16.1 1.83h-5.833m12.327-3.051a2.109 2.109 0 0 0-.241-.09 1.85 1.85 0 0 0-.513-.053 1.6 1.6 0 0 0-.861.234 2.858 2.858 0 0 0-.645.537 3.433 3.433 0 0 0-.611.987v5.778h-1.309v-8.613h1.309v1.347a4.73 4.73 0 0 1 .332-.485 3.34 3.34 0 0 1 .494-.51c.191-.163.41-.298.655-.405a2.01 2.01 0 0 1 .816-.162c.263 0 .464.025.601.072.138.048.237.084.296.107l-.323 1.256m7.071 5.079c0 .79-.278 1.412-.826 1.867s-1.3.681-2.244.681c-.622 0-1.163-.09-1.624-.27-.46-.179-.828-.364-1.103-.554l.574-1.006c.167.12.434.266.799.44.364.173.81.26 1.337.26.538 0 .965-.107 1.282-.323.318-.217.477-.521.477-.916s-.159-.7-.477-.924c-.317-.22-.792-.468-1.426-.744a11.387 11.387 0 0 1-.932-.449 3.54 3.54 0 0 1-.754-.537 2.171 2.171 0 0 1-.503-.71c-.12-.27-.18-.589-.18-.96 0-.67.24-1.232.718-1.688.479-.454 1.15-.681 2.01-.681.358 0 .679.033.96.1.28.066.53.142.745.232a3.335 3.335 0 0 1 .844.494l-.646.951a4.47 4.47 0 0 0-.709-.413c-.318-.155-.721-.233-1.21-.233-.458 0-.81.105-1.06.314s-.378.498-.378.87c0 .407.156.715.468.925.309.209.706.415 1.184.617.348.145.68.297 1.004.46.324.161.607.343.853.546.244.203.442.44.591.709s.226.583.226.942m2.368 2.314v-8.613h1.327v8.613h-1.327zm.663-12.165c.277 0 .506.093.691.278s.278.415.278.692c0 .273-.092.504-.278.69s-.414.278-.691.278a.938.938 0 0 1-.69-.278.943.943 0 0 1-.279-.69.94.94 0 0 1 .278-.692.938.938 0 0 1 .69-.278m8.077 11.86c-.133.086-.35.194-.656.324s-.69.198-1.157.198c-.718 0-1.255-.201-1.614-.602s-.54-.96-.54-1.677v-5.51h-1.418v-1.041h1.418v-2.458h1.31v2.458h2.172v1.04h-2.171v5.385c0 .43.07.75.216.96.143.208.406.314.788.314.275 0 .521-.047.736-.143.215-.095.36-.173.43-.234l.486.986m5.15 1.455a11.58 11.58 0 0 1-.486 1.139c-.178.365-.4.688-.664.969-.262.28-.579.502-.951.664-.371.162-.82.242-1.344.242-.23 0-.402-.008-.521-.027a2.433 2.433 0 0 1-.305-.062l.18-1.097c.058.013.13.026.213.038.086.011.235.017.45.017.61 0 1.063-.164 1.365-.494.298-.328.566-.814.806-1.462l.413-1.13-3.247-8.56h1.47l2.46 6.873h.035l2.386-6.873h1.4l-3.66 9.763m15.34-5.437c0-.467-.055-.906-.168-1.32a3.194 3.194 0 0 0-.521-1.084 2.57 2.57 0 0 0-.853-.738c-.335-.178-.73-.268-1.183-.268-.443 0-.826.09-1.148.268a2.168 2.168 0 0 0-.781.728 3.361 3.361 0 0 0-.44 1.066c-.097.408-.144.846-.144 1.312s.05.905.152 1.318.26.775.475 1.087c.217.31.49.557.818.734.329.181.715.27 1.158.27.454 0 .846-.089 1.174-.27.33-.177.602-.42.819-.726a3.27 3.27 0 0 0 .482-1.069 5.11 5.11 0 0 0 .16-1.308zm1.403-.036c0 .503-.076 1.022-.225 1.56a4.419 4.419 0 0 1-.71 1.462 3.86 3.86 0 0 1-1.255 1.086c-.516.29-1.139.432-1.867.432-.73 0-1.347-.14-1.848-.422a3.768 3.768 0 0 1-1.23-1.076 4.421 4.421 0 0 1-.69-1.455c-.144-.532-.215-1.05-.215-1.551s.069-1.024.205-1.563a4.336 4.336 0 0 1 .674-1.461 3.78 3.78 0 0 1 1.211-1.085c.494-.288 1.109-.432 1.838-.432s1.355.143 1.875.423c.522.28.945.64 1.274 1.077.33.436.572.92.728 1.452s.235 1.05.235 1.553m6.746-7.448a9.519 9.519 0 0 0-.377-.126 2.643 2.643 0 0 0-.754-.088c-.573 0-1.018.184-1.328.555s-.467.915-.467 1.633v1.184h2.19v1.04h-2.19v7.573h-1.31v-7.572h-1.434v-1.041h1.434v-1.274c0-.992.273-1.783.818-2.369.544-.586 1.317-.879 2.324-.879.417 0 .744.03.976.091.235.059.387.107.459.144l-.341 1.128m14.087 10.786c-.313.287-.782.56-1.41.816-.628.258-1.36.387-2.199.387-.932 0-1.76-.175-2.485-.522a5.54 5.54 0 0 1-1.83-1.382 5.905 5.905 0 0 1-1.131-1.99 7.154 7.154 0 0 1-.386-2.333c0-.813.132-1.592.395-2.334a5.856 5.856 0 0 1 1.15-1.956 5.67 5.67 0 0 1 1.838-1.354c.724-.34 1.545-.511 2.468-.511.764 0 1.405.08 1.92.247.514.163.993.385 1.434.664l-.7 1.063c-.347-.24-.737-.431-1.175-.575s-.941-.215-1.516-.215c-.717 0-1.35.137-1.894.412a4.012 4.012 0 0 0-1.355 1.092c-.358.453-.63.98-.816 1.576a6.282 6.282 0 0 0-.277 1.864c0 .656.09 1.289.268 1.899.18.608.453 1.149.819 1.621a4.01 4.01 0 0 0 1.37 1.128c.551.281 1.196.42 1.94.42.647 0 1.207-.096 1.687-.285a4.359 4.359 0 0 0 1.237-.737l.648 1.005m6.406-3.104h-.378c-.467 0-.894.033-1.283.099s-.725.176-1.005.332a1.809 1.809 0 0 0-.665.61c-.16.252-.241.555-.241.914 0 .229.04.42.126.575.084.156.187.28.314.376.125.096.264.164.412.207.149.042.29.063.422.063.49 0 .927-.113 1.309-.34a3.38 3.38 0 0 0 .989-.898v-1.938zm.196 4.09a6.065 6.065 0 0 1-.072-.51 65.67 65.67 0 0 1-.054-.529 3.454 3.454 0 0 1-1.104.896c-.449.24-.942.36-1.48.36-.718 0-1.308-.21-1.767-.629-.46-.418-.69-.98-.69-1.688 0-.573.138-1.048.421-1.425.28-.377.644-.678 1.095-.905.448-.228.945-.39 1.489-.486a9.158 9.158 0 0 1 1.588-.142h.378v-.803c0-.643-.14-1.099-.415-1.372-.274-.274-.711-.41-1.309-.41a3.07 3.07 0 0 0-1.13.208c-.36.136-.731.377-1.114.724l-.7-.914c.85-.803 1.86-1.203 3.034-1.203.945 0 1.672.23 2.18.691s.762 1.182.762 2.164v4.018c0 .43.018.813.053 1.149.038.336.085.604.146.806h-1.31m4.018 0h1.31v-12.92h-1.31v12.92zm4.396 0v-8.613h1.33v8.613h-1.33zm.664-12.165c.275 0 .506.093.69.278a.93.93 0 0 1 .28.692.933.933 0 0 1-.28.69c-.184.185-.415.278-.69.278s-.505-.092-.69-.278-.278-.417-.278-.69c0-.277.092-.506.278-.692s.416-.278.69-.278m8.274.394a10.481 10.481 0 0 0-.378-.126 2.643 2.643 0 0 0-.754-.088c-.574 0-1.018.184-1.326.555-.313.371-.467.915-.467 1.633v1.184h2.189v1.04h-2.189v7.573h-1.311v-7.572h-1.437v-1.041h1.437v-1.274c0-.992.274-1.783.817-2.369.544-.586 1.318-.879 2.324-.879.418 0 .744.03.977.091.234.059.385.107.458.144l-.34 1.128m6.926 7.485a4.9 4.9 0 0 0-.171-1.32 3.209 3.209 0 0 0-.52-1.084 2.583 2.583 0 0 0-.853-.738c-.333-.178-.73-.268-1.184-.268-.443 0-.824.09-1.149.268a2.162 2.162 0 0 0-.779.728 3.433 3.433 0 0 0-.441 1.066c-.097.408-.143.846-.143 1.312s.05.905.15 1.318c.104.413.262.775.477 1.087.215.31.49.557.816.734.33.181.715.27 1.159.27.455 0 .845-.089 1.175-.27.329-.177.6-.42.817-.726.216-.305.377-.66.484-1.069.108-.406.162-.841.162-1.308zm1.399-.036c0 .503-.074 1.022-.225 1.56a4.415 4.415 0 0 1-.708 1.462c-.323.438-.743.8-1.255 1.086-.515.29-1.137.432-1.867.432s-1.347-.14-1.85-.422a3.722 3.722 0 0 1-1.226-1.076 4.364 4.364 0 0 1-.691-1.455 5.9 5.9 0 0 1-.217-1.551c0-.502.07-1.024.207-1.563.136-.537.36-1.025.673-1.461.31-.437.714-.798 1.212-1.085.494-.288 1.108-.432 1.838-.432s1.355.143 1.874.423c.522.28.945.64 1.275 1.077.329.436.571.92.727 1.452.155.532.233 1.05.233 1.553m6.369-3.07a1.943 1.943 0 0 0-.242-.09 1.823 1.823 0 0 0-.51-.053 1.6 1.6 0 0 0-.862.234 2.892 2.892 0 0 0-.646.537c-.18.205-.32.402-.42.593a2.883 2.883 0 0 0-.19.395v5.777h-1.31v-8.613h1.31v1.347c.085-.143.194-.306.332-.485.138-.18.302-.349.493-.51s.41-.298.656-.405c.243-.108.518-.162.815-.162.263 0 .465.025.602.072.138.048.236.084.296.107l-.324 1.256m7.341 7.393v-5.885c0-.538-.111-.965-.331-1.283-.223-.316-.62-.476-1.194-.476-.492 0-.953.16-1.382.476a5.345 5.345 0 0 0-1.114 1.103v6.065h-1.308v-8.613h1.308v1.238c.383-.49.81-.855 1.284-1.094.472-.239.976-.36 1.517-.36.453 0 .84.073 1.157.216.318.144.576.336.782.576.202.238.35.523.447.851.095.328.143.68.143 1.05v6.136h-1.31m4.289 0v-8.613h1.328v8.613h-1.328zm.663-12.165c.276 0 .507.093.691.278a.933.933 0 0 1 .279.692.935.935 0 0 1-.279.69.936.936 0 0 1-.691.278c-.274 0-.505-.092-.69-.278s-.279-.417-.279-.69c0-.277.093-.506.279-.692s.416-.278.69-.278m8.005 8.075h-.377c-.467 0-.895.033-1.283.099a3.11 3.11 0 0 0-1.005.332 1.796 1.796 0 0 0-.663.61c-.163.252-.244.555-.244.914 0 .229.042.42.125.575.084.156.188.28.316.376.123.096.262.164.412.207.148.042.289.063.422.063.49 0 .926-.113 1.31-.34a3.41 3.41 0 0 0 .987-.898v-1.938zm.196 4.09a5.742 5.742 0 0 1-.071-.51 25.104 25.104 0 0 1-.054-.529 3.51 3.51 0 0 1-1.102.896c-.45.24-.943.36-1.483.36-.716 0-1.306-.21-1.765-.629-.461-.418-.692-.98-.692-1.688 0-.573.14-1.048.421-1.425s.648-.678 1.095-.905.945-.39 1.488-.486a9.172 9.172 0 0 1 1.59-.142h.377v-.803c0-.643-.139-1.099-.414-1.372-.274-.274-.711-.41-1.309-.41-.396 0-.771.068-1.13.208-.36.136-.729.377-1.114.724l-.7-.914c.85-.803 1.86-1.203 3.033-1.203.946 0 1.671.23 2.18.691.509.461.765 1.182.765 2.164v4.018c0 .43.015.813.052 1.149s.083.604.145.806h-1.312"/></svg>