<svg xmlns="http://www.w3.org/2000/svg" width="86.618" height="46.155" viewBox="7.6 6.263 86.618 46.155"><path d="M7.6 6.883h7.689v33.793c0 3.285 1.302 4.898 4.093 4.898 2.79 0 4.092-1.613 4.092-4.898V6.883h7.689v33.483c0 7.688-4.465 11.904-11.782 11.904S7.6 48.056 7.6 40.366V6.883zm46.506 14.944v-3.473c0-3.782-1.735-5.395-3.722-5.395-3.1 0-4.093 1.612-4.093 4.961v22.692c0 3.35.993 4.961 4.093 4.961 2.791 0 3.722-1.611 3.722-4.527v-5.395h7.688v5.146c0 6.324-3.721 11.474-11.41 11.474-8.061 0-11.781-5.147-11.781-11.474V17.735c0-6.325 3.721-11.472 11.781-11.472 7.689 0 11.41 5.581 11.41 12.278v3.286h-7.688z" fill="#FDB913"/><path fill="#026CB6" d="M76.747 6.985h-7.822v45.434h7.803V33.793m10.886-1.953c2.642-1.192 5.473-4.15 5.473-11.45 0-9.691-4.466-13.404-13.212-13.404h-2.87l1.26 7.89 4.67-7.189-2.867 8.611 7.759-4.712-6.32 6.513 11.062-1.296-10.551 3.542 10.135 3.601-10.649-1.356 6.32 6.517-7.759-4.713 2.867 8.61-4.623-7.119-1.304 7.908c1.32-.008 2.808-.069 3.746-.188l5.539 18.812h7.927L87.614 31.84z"/></svg>