<svg xmlns="http://www.w3.org/2000/svg" width="143.999" height="44.3" viewBox="85.2 40.25 143.999 44.3"><path fill="#003A70" d="M96.35 56.1c-1.449 0-1.899.2-1.899 1.351v9.399c0 .45.149 3.4.649 3.95.601.649 2.25 1 3.95 1 4 0 6.95-2.75 6.95-7.301-.05-4.699-3.9-8.399-9.65-8.399m1.75-14.65c-3.449 0-3.601.45-3.601 1.5v11.4c0 .851.7.75 1.95.75 3.199 0 5.4.301 5.4.301 1.5-1.149 3.25-2.149 3.25-6.301.001-2.6-2.199-7.65-6.999-7.65m.7 31.3c-2.2 0-4.399-.5-6.7-.5-2.199 0-3.351.199-5.05.199-.55 0-.899-.051-.899-.6 0-.551.3-.65 1.449-.65 2.351 0 2.45-.1 2.45-.899V46.2c0-4.15-.85-4.601-2.3-4.601-2.35 0-2.55-.05-2.55-.699 0-.351.149-.399 1.05-.399 1.65 0 3.25.05 5.102.05 1.1 0 3.6-.3 8.35-.3 6.85 0 9.75 3.5 9.75 7.25s-2.25 5.55-3.95 6.7c-1 .699-2.149 1.25-2.149 1.4 0 .1 1 .35 2.051.899 2.449 1.25 5.55 3.05 5.55 7.601C110.95 70 106.1 72.75 98.8 72.75m21.85-18.5c-3.45 0-4.551 5.2-4.551 5.85 0 .25 0 .25.551.25 2.399 0 4.85-.6 8.25-1.149.5-.101.55-.2.55-.45 0-1.101-2.7-4.501-4.8-4.501m7.05 5.5c-1.2.25-5.75 1.3-10.95 1.6-.75.05-.85.25-.85 1.3 0 6.3 4.899 8 8.35 8 3 0 4.65-1.101 4.95-1.101.25 0 .35.25.35.351 0 .25-3.899 3.101-7.6 3.101-3.75 0-9.3-1.851-9.3-9.45 0-6.449 4.35-10.3 8.5-10.3 2.399 0 5.3 1.5 6.949 3.45.801.9 1.5 2 1.5 2.35.001.199-.649.399-1.899.699m16.7-1.25c-.65 0-1.2-1.852-3.45-1.852-2.65 0-3.65 1.102-3.65 3v9.4c0 2.25.15 2.25 3.5 2.25 1.2 0 1.25.149 1.25.551 0 .5-.05.449-1.25.449-.649 0-3.7-.25-5.149-.25-1.551 0-3.101.25-3.75.25-1.051 0-1.15 0-1.15-.449s.05-.551 1.15-.551c1.85 0 2-.05 2-.699V58.1c0-3.101.1-3.201-2.45-3.201-.8 0-.8.051-.8-.449 0-.551-.051-.7.75-.7 1.55 0 2.399.101 3.35.101.75 0 1.602-.25 2.352-.25.199 0 .35.149.35.5 0 .25-.1 1.25-.1 1.35 0 .4.049.75.25.75.699 0 2.85-2.4 5-2.4.799 0 2.898 1 2.898 2.2-.101.499-.801 2.499-1.101 2.499"/><path fill="#003A70" d="M166 72.45c-.549 0-1.15-.05-1.549-.05-.551 0-1.901.05-2.551.05-.801 0-1.25-1.149-3.15-3.351-1.9-2.199-3.85-5.05-4.1-5.05-.2 0-.801.45-1.601.95-.75.449-1.35.8-1.35 1.199v2.9c0 2.149-.101 2.149 2.75 2.149 1.05 0 1.25.25 1.25.601 0 .449-.25.449-1.25.449-.7 0-2.8-.101-4.25-.101-1.55 0-3.25.101-3.9.101-1.05 0-1.3-.051-1.3-.449 0-.351.25-.601 1.3-.601 1.55 0 1.95 0 1.95-.7 0-1.3.15-14.85.15-24.5 0-3.25-.351-3.65-1.601-3.65-1.85 0-2.05-.149-2.05-.449 0-.45.1-.65.6-.65 3.301 0 6-1 6.4-1 .25 0 .3.15.3.4 0 .6-.1 2.5-.1 3.949 0 6.951-.25 12.051-.25 19.5 0 .199.05.301.2.301 1.149 0 5.899-4.199 7.35-5.551 1.8-1.699 2.199-2.449 2.199-3.399 0-.75-.15-.8-2.15-.8-.699 0-.898-.1-.898-.5 0-.35.25-.45.8-.45.45 0 1.301.149 1.85.149.601 0 3.25-.149 3.802-.149.35 0 .551.05.551.2 0 .4-1.551 2.4-2.949 3.75-2.301 2.25-5.102 4.25-5.102 4.55 0 .399.799 1.301 4 5.101 1.551 1.85 3 4.1 4.551 4.1 1.1 0 1.449.25 1.449.601-.001.35-.301.4-1.351.4"/><path fill="#003A70" d="M173.9 54.25c-3.449 0-4.551 5.2-4.551 5.85 0 .25 0 .25.551.25 2.35 0 4.85-.6 8.25-1.149.5-.101.551-.2.551-.45 0-1.101-2.651-4.501-4.801-4.501m7.051 5.5c-1.201.25-5.75 1.3-10.951 1.6-.75.051-.85.25-.85 1.301 0 6.3 4.899 8 8.35 8 3 0 4.65-1.101 4.951-1.101.25 0 .35.25.35.351 0 .25-3.9 3.101-7.6 3.101-3.75 0-9.301-1.851-9.301-9.45 0-6.449 4.35-10.3 8.5-10.3 2.399 0 5.301 1.5 6.949 3.45.801.9 1.5 2 1.5 2.35.001.198-.648.398-1.898.698"/><path fill="#003A70" d="M191 72.3c-.699 0-1.699-.101-2.5-.101-1.549 0-3.949.101-4.6.101-1.051 0-1.15-.101-1.15-.45 0-.3.051-.6 1.15-.6 1.85 0 2.649.051 2.649-.801V45.3c0-2.899-.25-2.899-2.35-2.899-.802 0-1.302-.101-1.302-.601 0-.55.351-.5 1.15-.55 3.549-.25 5.299-1 5.549-1s.451.25.451.75c0 .55-.25 2.2-.25 3.55 0 17.4-.25 21-.25 22.351 0 3.8.299 4.3 1.15 4.3 2.299 0 2.199.25 2.199.649.104.45-.246.45-1.896.45"/><path fill="#003A70" d="M200.25 54.25c-3.449 0-4.549 5.2-4.549 5.85 0 .25 0 .25.549.25 2.4 0 4.85-.6 8.25-1.149.5-.101.551-.2.551-.45-.001-1.101-2.701-4.501-4.801-4.501m7.05 5.5c-1.2.25-5.75 1.3-10.95 1.6-.75.051-.851.25-.851 1.301 0 6.3 4.899 8 8.351 8 3 0 4.649-1.101 4.95-1.101.25 0 .351.25.351.351 0 .25-3.9 3.101-7.601 3.101-3.75 0-9.301-1.851-9.301-9.45 0-6.449 4.351-10.3 8.5-10.3 2.399 0 5.301 1.5 6.951 3.45.799.9 1.5 2 1.5 2.35.001.198-.65.398-1.9.698"/><path fill="#003A70" d="M228 54.85c-1 0-3 5.5-6.6 14.25-2.9 7-4.949 10.7-6.4 13.7-.5 1-1.049 1.05-2.049 1.199-1.352.199-1.701.551-2.701.551-.799 0-1.25-.25-1.25-.45 0-.25 2.15-.55 3.701-2.5 1.648-2.05 5.549-7.449 5.549-8.8 0-.5-3.65-8.95-6.15-14.899-1.147-2.75-1.449-2.95-2.3-2.95-.899 0-.95-.05-.95-.45s.15-.65.95-.65c1.3 0 1.601.101 2.7.101 1.3 0 2.9-.15 4.35-.15.949 0 1.15.2 1.15.7 0 .4-.2.45-1.15.45-1.1 0-1.35.25-1.35 1.3 0 1.3 1.199 2.9 3.949 9.949.35.949.9 1.75 1.1 1.75.301 0 .602-.649 1.301-2.801 1.101-3.299 2.75-8.049 2.75-8.699 0-1.35 0-1.65-1.551-1.65-1.398 0-1.6 0-1.6-.449 0-.601.15-.601.949-.601 1.25 0 2.051.101 3.301.101.699 0 1.9-.201 2.551-.201.75 0 .949.051.949.551.002.398-.649.648-1.199.648"/></svg>