<svg xmlns="http://www.w3.org/2000/svg" width="185.601" height="67.6" viewBox="9.3 11.9 185.601 67.6"><path d="M9.3 20.1h6.1v39.5h22.5v5.3H9.3V20.1zm34 0h5.6v6.2h-5.6v-6.2zm0 12.3h5.6v32.5h-5.6V32.4zm13.4-12.5H62v16.3c1.2-1.6 2.6-2.8 4.3-3.6 1.7-.8 3.5-1.2 5.5-1.2 4.1 0 7.4 1.4 9.9 4.2 2.5 2.8 3.8 6.9 3.8 12.4 0 5.2-1.3 9.5-3.8 12.9-2.5 3.399-6 5.1-10.4 5.1-2.5 0-4.6-.6-6.3-1.8-1-.7-2.1-1.9-3.3-3.4V65h-5.1V19.9h.1zm21 37.6c1.5-2.4 2.2-5.5 2.2-9.3 0-3.4-.7-6.3-2.2-8.5-1.5-2.3-3.7-3.4-6.5-3.4-2.5 0-4.7.9-6.6 2.8s-2.8 4.9-2.8 9.2c0 3.101.4 5.601 1.2 7.5 1.4 3.601 4.2 5.4 8.1 5.4 2.9-.1 5.1-1.3 6.6-3.7zm14.4-25.3h5.2v5.6c.4-1.1 1.5-2.4 3.1-4 1.7-1.6 3.6-2.4 5.8-2.4h.5c.2 0 .7.1 1.3.1v5.8c-.3-.1-.6-.1-.9-.1h-.899c-2.8 0-4.9.9-6.4 2.7-1.5 1.8-2.2 3.8-2.2 6.1v18.8h-5.5V32.2zm38.2 12.9c1.3-.2 2.101-.7 2.5-1.6.2-.5.4-1.2.4-2.1 0-1.9-.7-3.2-2-4.1-1.3-.8-3.2-1.3-5.7-1.3-2.9 0-4.9.8-6.1 2.3-.7.9-1.101 2.1-1.301 3.8H113c.1-4 1.4-6.9 3.9-8.4 2.5-1.6 5.399-2.4 8.699-2.4 3.801 0 7 .7 9.4 2.2s3.6 3.7 3.6 6.8v18.8c0 .601.101 1 .4 1.4.2.3.7.5 1.5.5h.8c.3 0 .601-.1 1-.1V65c-.899.2-1.5.4-2 .5-.399.1-1.1.1-1.8.1-1.9 0-3.3-.699-4.1-2a7.08 7.08 0 0 1-.9-3c-1.1 1.5-2.7 2.7-4.8 3.801-2.101 1.1-4.4 1.6-6.9 1.6-3 0-5.5-.9-7.399-2.8-1.9-1.8-2.9-4.101-2.9-6.9 0-3 .9-5.399 2.8-7 1.9-1.7 4.4-2.7 7.4-3.1l8.6-1.101zm-11.6 14.8c1.2.899 2.5 1.399 4.1 1.399 1.9 0 3.8-.399 5.601-1.3 3.1-1.5 4.6-3.9 4.6-7.3v-4.4c-.7.4-1.5.8-2.6 1.101-1.101.3-2.101.5-3.101.6l-3.3.4c-2 .3-3.5.699-4.5 1.199-1.7 1-2.5 2.5-2.5 4.601 0 1.6.5 2.8 1.7 3.7zm29-27.7h5.2v5.6c.399-1.1 1.5-2.4 3.1-4 1.7-1.6 3.6-2.4 5.8-2.4h.5c.2 0 .7.1 1.3.1v5.8c-.3-.1-.6-.1-.899-.1h-.9c-2.8 0-4.899.9-6.399 2.7-1.5 1.8-2.2 3.8-2.2 6.1v18.8h-5.5V32.2h-.002zm41.1 0h6.101c-.801 2.1-2.5 6.9-5.2 14.3-2 5.6-3.7 10.2-5 13.7-3.2 8.3-5.4 13.399-6.7 15.2-1.3 1.8-3.5 2.699-6.7 2.699-.8 0-1.399 0-1.8-.1s-.9-.2-1.5-.3v-5c1 .3 1.6.399 2.1.5.4.1.801.1 1.101.1 1 0 1.8-.2 2.2-.5.399-.3.899-.7 1.199-1.2.101-.199.5-1 1.101-2.5.6-1.5 1.1-2.6 1.399-3.399L165 32.2h6.2l8.8 26.6 8.8-26.6z" fill="#003A70"/><path d="M67.5 12.2c.8-.2 2.1-.3 3.4-.3 1.8 0 3 .3 3.9 1 .7.6 1.2 1.4 1.2 2.5 0 1.4-.9 2.6-2.4 3.1 1.4.3 3 1.5 3 3.6 0 1.2-.5 2.2-1.2 2.9-1 .9-2.6 1.3-5 1.3-1.3 0-2.3-.1-2.9-.2V12.2zm1.8 5.9H71c2 0 3.1-1 3.1-2.4 0-1.7-1.3-2.3-3.1-2.3-.9 0-1.3.1-1.6.1v4.6h-.1zm0 6.9c.4.1.9.1 1.6.1 1.9 0 3.7-.7 3.7-2.8 0-2-1.7-2.8-3.7-2.8h-1.5V25h-.1zm17.1-5.4h-5.6v5.2H87v1.6h-8V12h7.7v1.6h-5.9v4.5h5.6v1.5zm3-7.4c.9-.2 2.3-.3 3.5-.3 2 0 3.3.4 4.1 1.2.7.6 1.1 1.6 1.1 2.7 0 1.9-1.2 3.1-2.7 3.7v.1c1.1.4 1.8 1.4 2.1 2.9.5 2 .8 3.4 1.1 3.9h-1.9c-.2-.4-.6-1.6-1-3.4-.4-2-1.2-2.7-2.9-2.8h-1.7v6.2h-1.8V12.2h.1zm1.9 6.5h1.9c2 0 3.2-1.1 3.2-2.7 0-1.8-1.3-2.7-3.3-2.7-.9 0-1.5.1-1.8.2v5.2zm9.6-6.7h1.8v6.9h.1c.4-.6.8-1.1 1.101-1.5L108.3 12h2.3l-5.199 6.1 5.6 8.2h-2.2l-4.7-7-1.399 1.6v5.5h-1.8V12h-.002zm18.9 7.6h-5.6v5.2h6.2v1.6h-8.1V12h7.7v1.6h-5.9v4.5h5.601v1.5h.099zm3-7.6h1.8v12.8h6.101v1.6h-8V12h.099zm17.5 7.6h-5.6v5.2h6.2v1.6h-8.1V12h7.7v1.6h-5.9v4.5h5.601v1.5h.099zm6.3 6.8v-6.1l-4.5-8.2h2.101l2 4c.6 1.1 1 2 1.399 3 .4-.9.9-1.9 1.4-3l2.1-4h2.101l-4.8 8.2v6.1H146.6zm-135 44.9v4.8c0 1.801.8 2.601 1.9 2.601 1.2 0 2-.8 2-2.601v-4.8h1.1V76c0 2.5-1.3 3.5-3.1 3.5-1.7 0-2.9-.9-2.9-3.5v-4.8h1v.1zm6.7 8.1v-8.1h1.1l2.6 4.1c.6.899 1.1 1.8 1.5 2.6-.1-1.1-.1-2.1-.1-3.3v-3.4h1v8.1h-1.1l-2.6-4.1c-.6-.899-1.1-1.8-1.5-2.7.1 1 .1 2 .1 3.301v3.5h-1zm8.9-8.1v8.1h-1v-8.1h1zm3.6 8.1l-2.6-8.1h1.1l1.3 4c.3 1.101.6 2.101.9 3 .2-.899.6-2 .9-3l1.4-4h1.1L32 79.4h-1.2zm9.1-3.8h-3.1v2.9h3.5v.9h-4.5v-8.1h4.4v.9h-3.3v2.6H40v.8h-.1zm1.7-4.2c.5-.101 1.3-.2 2-.2 1.1 0 1.8.2 2.3.7.4.399.6.899.6 1.5 0 1.1-.7 1.8-1.5 2.1.6.2 1 .8 1.2 1.6.3 1.101.5 1.9.6 2.2h-1.1c-.1-.2-.3-.899-.5-1.899-.2-1.101-.7-1.501-1.6-1.601h-1v3.5h-1v-7.9zm1.1 3.7h1.1c1.1 0 1.8-.6 1.8-1.5 0-1-.8-1.5-1.9-1.5-.5 0-.9 0-1 .101V75.1zm5.3 3c.5.301 1.2.5 1.9.5 1.1 0 1.7-.6 1.7-1.399S51.2 76 50.1 75.6c-1.3-.5-2.1-1.2-2.1-2.3 0-1.3 1-2.2 2.6-2.2.8 0 1.4.2 1.8.4l-.4.9c-.3-.1-.8-.4-1.5-.4-1.1 0-1.5.7-1.5 1.2 0 .8.5 1.1 1.6 1.6 1.4.5 2.1 1.2 2.1 2.4s-.9 2.3-2.8 2.3c-.8 0-1.6-.2-2.1-.5l.2-.9zm7.1-6.8v8.1h-1v-8.1h1zm3.3.9H56v-.9h6v.9h-2.5v7.2h-1.1v-7.2zm6.6 7.2V76l-2.6-4.7h1.2l1.1 2.2c.3.6.6 1.1.8 1.7.2-.5.5-1.101.8-1.7l1.2-2.2h1.2L66 75.9v3.4h-1v.1zm14.1-4.2c0 2.8-1.7 4.3-3.8 4.3-2.1 0-3.6-1.7-3.6-4.1 0-2.601 1.6-4.2 3.8-4.2 2.2-.1 3.6 1.6 3.6 4zm-6.2.2c0 1.699.9 3.3 2.6 3.3s2.6-1.5 2.6-3.4c0-1.6-.8-3.3-2.6-3.3s-2.6 1.6-2.6 3.4zm7.6-4.1h4.4v.9h-3.3v2.7h3.1v.9h-3.1v3.7h-1v-8.2h-.1zm14 7.8c-.4.2-1.2.4-2.1.4-2.3 0-4-1.4-4-4.1 0-2.5 1.7-4.2 4.2-4.2 1 0 1.6.2 1.9.399l-.3.9c-.4-.2-1-.3-1.6-.3-1.9 0-3.2 1.2-3.2 3.3 0 2 1.1 3.3 3.1 3.3.6 0 1.3-.1 1.7-.3l.3.601zm2.7-2.3l-.8 2.5h-1.1l2.7-8.1h1.3l2.8 8.1H101l-.9-2.5h-2.9zm2.6-.8l-.8-2.3c-.2-.5-.3-1-.4-1.5-.1.5-.3 1-.4 1.5l-.8 2.3h2.4zm3.4-4.7h1v7.2h3.5v.9h-4.5v-8.1zm6.7 0v8.1h-1v-8.1h1zm1.9 0h4.4v.9h-3.3v2.7h3.1v.9h-3.1v3.7h-1v-8.2h-.1zm12.7 3.9c0 2.8-1.7 4.3-3.8 4.3-2.101 0-3.601-1.7-3.601-4.1 0-2.601 1.601-4.2 3.801-4.2 2.2-.1 3.6 1.6 3.6 4zm-6.3.2c0 1.699.899 3.3 2.6 3.3s2.601-1.5 2.601-3.4c0-1.6-.801-3.3-2.601-3.3-1.7 0-2.6 1.6-2.6 3.4zm7.7-4c.5-.101 1.3-.2 2-.2 1.1 0 1.8.2 2.3.7.399.399.6.899.6 1.5 0 1.1-.7 1.8-1.5 2.1.601.2 1 .8 1.2 1.6.3 1.101.5 1.9.6 2.2H130c-.1-.2-.3-.899-.5-1.899-.2-1.101-.7-1.5-1.6-1.601h-1v3.5h-1v-7.9zm1 3.7h1.1c1.1 0 1.8-.6 1.8-1.5 0-1-.8-1.5-1.899-1.5-.5 0-.9 0-1 .101V75.1zm5.4 4.3v-8.1h1.101L136 75.4c.6.899 1.1 1.8 1.5 2.6-.1-1.1-.1-2.1-.1-3.3v-3.4h1v8.1h-1.1l-2.6-4.101a17.983 17.983 0 0 1-1.5-2.7c.1 1 .1 2 .1 3.301v3.5h-1zm9-8.1v8.1h-1v-8.1h1zm3.1 5.5l-.801 2.5h-1.1l2.7-8.1h1.3l2.8 8.1h-1.1l-.9-2.5H144.4zm2.7-.8l-.8-2.3c-.2-.5-.3-1-.399-1.5-.101.5-.301 1-.4 1.5l-.8 2.3h2.399z" fill="#D19000"/></svg>