<svg xmlns="http://www.w3.org/2000/svg" width="27.325" height="27.326" viewBox="0 0 27.325 27.326"><path fill="#4C4C4C" d="M13.663.405c7.321 0 13.258 5.936 13.258 13.258 0 7.322-5.937 13.258-13.258 13.258-7.322 0-13.259-5.936-13.259-13.258C.404 6.341 6.341.405 13.663.405m0-.405C6.129 0 0 6.129 0 13.663c0 7.534 6.129 13.663 13.663 13.663 7.533 0 13.662-6.129 13.662-13.663C27.325 6.129 21.196 0 13.663 0"/><path fill="#4C4C4C" d="M21.578 20.827a.65.65 0 0 1-.203.528.667.667 0 0 1-.517.224H19.25a.7.7 0 0 1-.5-.195.679.679 0 0 1-.22-.479 12.583 12.583 0 0 0-1.135-4.594c-.668-1.451-1.535-2.71-2.604-3.778-1.067-1.069-2.327-1.936-3.778-2.604a12.754 12.754 0 0 0-4.594-1.146.67.67 0 0 1-.478-.219.694.694 0 0 1-.196-.489V6.467a.67.67 0 0 1 .224-.519.678.678 0 0 1 .495-.201h.034c1.964.098 3.844.547 5.64 1.349a15.753 15.753 0 0 1 4.784 3.307 15.777 15.777 0 0 1 3.307 4.784 15.635 15.635 0 0 1 1.349 5.64m-5.758-.023a.682.682 0 0 1-.191.54.662.662 0 0 1-.527.235h-1.52a.685.685 0 0 1-.482-.185.684.684 0 0 1-.226-.467c-.165-1.718-.856-3.185-2.075-4.402-1.218-1.219-2.686-1.909-4.401-2.075a.683.683 0 0 1-.467-.225.69.69 0 0 1-.186-.484v-1.518a.66.66 0 0 1 .236-.528.65.65 0 0 1 .482-.191h.058c1.198.097 2.346.399 3.44.905a9.926 9.926 0 0 1 2.912 2.041 9.939 9.939 0 0 1 2.041 2.912 10.04 10.04 0 0 1 .906 3.442m-6.386-2.912c.42.42.63.93.63 1.529s-.21 1.109-.63 1.529c-.421.42-.931.629-1.529.629-.601 0-1.11-.209-1.53-.629s-.629-.93-.629-1.529.209-1.109.629-1.529.93-.63 1.53-.63c.598 0 1.108.21 1.529.63"/></svg>