<svg xmlns="http://www.w3.org/2000/svg" width="176.017" height="34.776" viewBox="0 0 176.017 34.776"><path d="M12.947 3.891a1.379 1.379 0 1 0 0-2.758 1.379 1.379 0 0 0 0 2.758zM5.719 8.555a1.82 1.82 0 1 0-.066-3.638 1.82 1.82 0 0 0 .066 3.638zm-3.928 6.41a1.378 1.378 0 1 0-.002-2.756 1.378 1.378 0 0 0 .002 2.756zm-.003 5.168a1.819 1.819 0 1 0 .06 3.637 1.819 1.819 0 0 0-.06-3.637zm3.989 7.242a1.378 1.378 0 1 0 0 2.756 1.378 1.378 0 0 0 0-2.756zm7.259 3.739a1.82 1.82 0 1 0 .064 3.64 1.82 1.82 0 0 0-.064-3.64zm7.885.393c-.762 0-1.377.617-1.377 1.378s.615 1.378 1.377 1.378a1.378 1.378 0 1 0 0-2.756zm7.216-4.652a1.82 1.82 0 0 0 .064 3.639 1.818 1.818 0 0 0 1.785-1.853 1.819 1.819 0 0 0-1.849-1.786zm3.933-6.387a1.378 1.378 0 1 0 0 2.756 1.378 1.378 0 0 0 0-2.756zm.003-5.193a1.82 1.82 0 1 0-.066-3.636 1.82 1.82 0 0 0 .066 3.636zm-3.986-7.242a1.379 1.379 0 1 0-.001-2.757 1.379 1.379 0 0 0 .001 2.757zm-7.253-3.726a1.818 1.818 0 0 0 1.786-1.851 1.818 1.818 0 1 0-3.637.064 1.821 1.821 0 0 0 1.851 1.787zm.093 2.545a2.283 2.283 0 1 0 4.567.001 2.283 2.283 0 0 0-4.567-.001zm-3.992.271a1.827 1.827 0 1 0-.002-3.654 1.827 1.827 0 0 0 .002 3.654zM10.812 9.11a2.283 2.283 0 1 0 .001-4.567 2.283 2.283 0 0 0-.001 4.567zm-6.367 2.268a1.827 1.827 0 1 0 3.654 0 1.827 1.827 0 0 0-3.654 0zm.06 4.051a2.283 2.283 0 1 0 0 4.569 2.285 2.285 0 0 0 0-4.569zm1.789 6.513a1.827 1.827 0 1 0-.002 3.654 1.827 1.827 0 0 0 .002-3.654zm6.788 6.373c0-1.262-1.021-2.283-2.283-2.283s-2.284 1.021-2.284 2.283a2.284 2.284 0 1 0 4.567 0zm3.835-.059c-1.01 0-1.826.817-1.826 1.827a1.827 1.827 0 1 0 1.826-1.827zm6.293-2.224c-1.262 0-2.283 1.021-2.283 2.283s1.021 2.283 2.283 2.283 2.283-1.021 2.283-2.283-1.021-2.283-2.283-2.283zm4.526-.415a1.827 1.827 0 1 0 .002-3.654 1.827 1.827 0 0 0-.002 3.654zm-.711-7.926a2.284 2.284 0 1 0 4.568 0 2.284 2.284 0 0 0-4.568 0zm.711-4.486a1.827 1.827 0 1 0 .002-3.654 1.827 1.827 0 0 0-.002 3.654z" fill="#008498"/><path d="M46.577 12.272c.04 2.39 1.566 3.374 3.333 3.374 1.265 0 2.028-.221 2.691-.502l.301 1.265c-.623.281-1.687.602-3.233.602-2.992 0-4.779-1.968-4.779-4.899 0-2.932 1.727-5.241 4.558-5.241 3.173 0 4.016 2.792 4.016 4.579 0 .361-.04.643-.06.823h-6.827zm5.18-1.265c.021-1.125-.461-2.872-2.45-2.872-1.787 0-2.57 1.646-2.711 2.872h5.161zm3.717 3.675a6.19 6.19 0 0 0 3.132.883c1.788 0 2.832-.944 2.832-2.309 0-1.265-.723-1.988-2.55-2.691-2.209-.783-3.574-1.928-3.574-3.835 0-2.108 1.747-3.675 4.377-3.675 1.386 0 2.39.321 2.992.663l-.482 1.426A5.38 5.38 0 0 0 59.63 4.5c-1.848 0-2.55 1.104-2.55 2.028 0 1.265.823 1.888 2.691 2.61 2.289.884 3.454 1.988 3.454 3.976 0 2.088-1.546 3.896-4.739 3.896-1.305 0-2.731-.381-3.454-.863l.442-1.465zm17.13 1.767c-.462.241-1.486.562-2.791.562-2.932 0-4.839-1.988-4.839-4.96 0-2.992 2.048-5.161 5.221-5.161 1.044 0 1.968.261 2.45.502l-.402 1.366c-.422-.241-1.084-.462-2.048-.462-2.229 0-3.434 1.646-3.434 3.675 0 2.249 1.446 3.634 3.374 3.634 1.004 0 1.667-.261 2.168-.481l.301 1.325zm2.069-13.896h1.767v6.064h.04a3.278 3.278 0 0 1 1.265-1.245 3.64 3.64 0 0 1 1.808-.502c1.305 0 3.394.803 3.394 4.157v5.783H81.18v-5.583c0-1.566-.583-2.892-2.249-2.892-1.145 0-2.048.803-2.37 1.767-.101.241-.121.502-.121.844v5.863h-1.767V2.553zm19.942 9.317c0 3.595-2.49 5.161-4.84 5.161-2.631 0-4.658-1.928-4.658-5 0-3.253 2.129-5.161 4.819-5.161 2.791 0 4.679 2.028 4.679 5zm-7.711.101c0 2.128 1.225 3.735 2.951 3.735 1.688 0 2.953-1.586 2.953-3.775 0-1.647-.824-3.735-2.912-3.735-2.089-.001-2.992 1.927-2.992 3.775zm9.941-9.418h1.768V16.81h-1.768V2.553zm10.121 14.257l-.141-1.225h-.061c-.542.763-1.586 1.446-2.972 1.446-1.968 0-2.972-1.385-2.972-2.791 0-2.35 2.088-3.635 5.844-3.614v-.201c0-.803-.222-2.249-2.209-2.249-.904 0-1.848.281-2.531.723l-.4-1.165c.803-.522 1.967-.864 3.192-.864 2.972 0 3.694 2.028 3.694 3.976v3.635c0 .843.041 1.667.161 2.329h-1.605zm-.261-4.96c-1.928-.04-4.116.301-4.116 2.189 0 1.145.763 1.687 1.667 1.687 1.266 0 2.068-.803 2.35-1.626.061-.181.1-.381.1-.562V11.85zm4.56-1.727c0-1.145-.021-2.128-.08-3.032h1.545l.061 1.907h.08c.442-1.305 1.507-2.128 2.691-2.128.201 0 .342.02.502.06v1.667a2.661 2.661 0 0 0-.603-.061c-1.245 0-2.128.944-2.369 2.27-.04.241-.081.522-.081.823v5.181h-1.746v-6.687zm6.326 4.88c.521.341 1.445.703 2.329.703 1.285 0 1.888-.643 1.888-1.446 0-.843-.502-1.305-1.807-1.787-1.748-.623-2.57-1.586-2.57-2.751 0-1.566 1.265-2.852 3.353-2.852.984 0 1.848.281 2.39.603l-.441 1.285a3.783 3.783 0 0 0-1.988-.562c-1.044 0-1.627.603-1.627 1.326 0 .803.583 1.165 1.848 1.646 1.688.643 2.551 1.486 2.551 2.932 0 1.707-1.326 2.912-3.635 2.912-1.064 0-2.049-.261-2.73-.663l.439-1.346zm8.194-12.45h1.768v6.064h.04a3.285 3.285 0 0 1 1.265-1.245 3.64 3.64 0 0 1 1.808-.502c1.306 0 3.394.803 3.394 4.157v5.783h-1.767v-5.583c0-1.566-.583-2.892-2.249-2.892-1.145 0-2.049.803-2.369 1.767-.102.241-.121.502-.121.844v5.863h-1.768V2.553zm13.114 1.807c.021.603-.421 1.084-1.124 1.084-.623 0-1.064-.482-1.064-1.084 0-.622.462-1.104 1.104-1.104.663 0 1.084.482 1.084 1.104zm-1.968 12.45V7.091h1.768v9.719h-1.768zm4.699-6.546c0-1.245-.04-2.249-.08-3.172h1.586l.08 1.667h.041c.723-1.185 1.867-1.888 3.453-1.888 2.35 0 4.117 1.988 4.117 4.94 0 3.494-2.129 5.221-4.418 5.221-1.285 0-2.41-.562-2.992-1.526h-.04v5.281h-1.747V10.264zm1.747 2.59c0 .261.04.502.08.723.321 1.225 1.386 2.068 2.651 2.068 1.867 0 2.951-1.526 2.951-3.755 0-1.948-1.023-3.614-2.892-3.614-1.204 0-2.329.863-2.671 2.188-.061.221-.12.482-.12.723v1.667z" fill="#333"/><path d="M46.501 24.71v4.347c0 1.646.73 2.343 1.71 2.343 1.089 0 1.787-.719 1.787-2.343V24.71h.959v4.281c0 2.256-1.188 3.182-2.778 3.182-1.503 0-2.637-.861-2.637-3.139V24.71h.959zm11.232 7.103c-.349.174-1.046.348-1.939.348-2.07 0-3.628-1.307-3.628-3.715 0-2.299 1.558-3.856 3.835-3.856.916 0 1.493.196 1.743.327l-.229.773c-.36-.174-.872-.305-1.482-.305-1.721 0-2.865 1.1-2.865 3.028 0 1.798 1.035 2.952 2.822 2.952.578 0 1.166-.119 1.547-.305l.196.753zm9.772-3.507c0 2.527-1.536 3.867-3.41 3.867-1.939 0-3.301-1.504-3.301-3.727 0-2.331 1.449-3.856 3.41-3.856 2.004 0 3.301 1.536 3.301 3.716zm-5.698.119c0 1.568.85 2.975 2.342 2.975 1.504 0 2.354-1.384 2.354-3.051 0-1.46-.763-2.985-2.342-2.985-1.57-.001-2.354 1.448-2.354 3.061zm6.896.076c0-.676-.022-1.221-.043-1.721h.86l.043.904h.022c.392-.644 1.013-1.025 1.874-1.025 1.274 0 2.233 1.079 2.233 2.681 0 1.896-1.155 2.833-2.397 2.833-.697 0-1.307-.305-1.623-.828h-.022v2.865h-.948v-5.709zm.947 1.405c0 .142.022.272.043.393a1.479 1.479 0 0 0 1.438 1.122c1.013 0 1.601-.828 1.601-2.037 0-1.057-.555-1.961-1.569-1.961-.653 0-1.264.469-1.449 1.188a1.539 1.539 0 0 0-.065.393v.902zm5.785-.315c.022 1.297.85 1.83 1.809 1.83.687 0 1.101-.12 1.46-.272l.164.687c-.338.152-.916.326-1.754.326-1.623 0-2.593-1.066-2.593-2.658 0-1.59.937-2.844 2.473-2.844 1.721 0 2.179 1.516 2.179 2.484 0 .196-.021.35-.033.447h-3.705zm2.811-.687c.011-.61-.25-1.558-1.329-1.558-.97 0-1.395.893-1.471 1.558h2.8zm2.113-.697c0-.545-.011-.991-.043-1.427h.85l.054.871h.022c.262-.502.872-.992 1.743-.992.73 0 1.863.437 1.863 2.245v3.148h-.958v-3.04c0-.85-.316-1.558-1.22-1.558-.632 0-1.122.446-1.286.98-.043.12-.065.283-.065.446v3.171h-.958v-3.844zm9.576 1.536l-.764 2.31h-.98l2.495-7.343h1.144l2.506 7.343h-1.013l-.784-2.31h-2.604zm2.407-.74l-.72-2.114c-.162-.479-.271-.915-.381-1.341h-.021c-.109.437-.229.883-.371 1.33l-.719 2.125h2.212zm6.667 2.853c-.25.131-.806.305-1.514.305-1.591 0-2.626-1.078-2.626-2.69 0-1.624 1.111-2.8 2.833-2.8.566 0 1.067.142 1.328.271l-.217.742c-.229-.131-.589-.252-1.111-.252-1.21 0-1.863.895-1.863 1.994 0 1.221.784 1.973 1.83 1.973.545 0 .904-.143 1.177-.262l.163.719zm4.816 0c-.251.131-.807.305-1.515.305-1.59 0-2.625-1.078-2.625-2.69 0-1.624 1.111-2.8 2.832-2.8.566 0 1.068.142 1.329.271l-.218.742c-.229-.131-.588-.252-1.111-.252-1.209 0-1.863.895-1.863 1.994 0 1.221.785 1.973 1.83 1.973.545 0 .904-.143 1.178-.262l.163.719zm1.591-2.265c.021 1.297.85 1.83 1.809 1.83.686 0 1.1-.12 1.459-.272l.164.687c-.338.152-.916.326-1.754.326-1.623 0-2.594-1.066-2.594-2.658 0-1.59.938-2.844 2.474-2.844 1.722 0 2.179 1.516 2.179 2.484 0 .196-.021.35-.033.447h-3.704zm2.81-.687c.011-.61-.25-1.558-1.329-1.558-.97 0-1.395.893-1.472 1.558h2.801zm1.982 2.168c.283.185.784.382 1.264.382.697 0 1.023-.35 1.023-.785 0-.457-.271-.708-.98-.969-.947-.338-1.395-.861-1.395-1.493 0-.851.687-1.548 1.82-1.548.533 0 1.002.153 1.296.328l-.239.697a2.051 2.051 0 0 0-1.079-.306c-.566 0-.882.327-.882.72 0 .436.315.631 1.002.893.915.349 1.383.807 1.383 1.591 0 .926-.719 1.579-1.971 1.579-.578 0-1.111-.141-1.482-.359l.24-.73zm4.314 0c.283.185.784.382 1.264.382.697 0 1.024-.35 1.024-.785 0-.457-.272-.708-.98-.969-.948-.338-1.395-.861-1.395-1.493 0-.851.686-1.548 1.819-1.548.534 0 1.002.153 1.296.328l-.239.697a2.051 2.051 0 0 0-1.079-.306c-.566 0-.882.327-.882.72 0 .436.315.631 1.003.893.914.349 1.383.807 1.383 1.591 0 .926-.719 1.579-1.972 1.579-.577 0-1.111-.141-1.481-.359l.239-.73zm6.787-6.275a11.013 11.013 0 0 1 1.819-.142c.938 0 1.623.218 2.059.609.404.35.643.883.643 1.537 0 .664-.195 1.188-.566 1.568-.5.534-1.318.807-2.244.807-.283 0-.545-.012-.762-.065v2.941h-.948v-7.255zm.948 3.54c.207.055.468.077.783.077 1.145 0 1.842-.556 1.842-1.569 0-.969-.686-1.438-1.732-1.438-.414 0-.729.032-.893.076v2.854zm9.063 2.277c0 .545.012 1.024.045 1.438h-.851l-.054-.86h-.022c-.251.424-.806.98-1.743.98-.828 0-1.819-.458-1.819-2.311V26.78h.958v2.92c0 1.002.306 1.678 1.178 1.678.643 0 1.089-.447 1.264-.872.055-.142.087-.315.087-.49V26.78h.958v3.834zm1.548 1.439c.021-.359.044-.894.044-1.362v-6.373h.947v3.312h.021c.338-.589.948-.971 1.798-.971 1.308 0 2.233 1.09 2.223 2.691 0 1.885-1.188 2.822-2.364 2.822-.763 0-1.373-.295-1.765-.992h-.032l-.045.872h-.827zm.991-2.115c0 .121.021.24.043.35.186.664.741 1.122 1.438 1.122 1.003 0 1.602-.817 1.602-2.026 0-1.057-.544-1.961-1.569-1.961-.652 0-1.264.446-1.459 1.176-.021.109-.055.24-.055.393v.946zm5.25-5.621h.959v7.735h-.959v-7.735zm3.639.981c.012.327-.229.588-.609.588a.57.57 0 0 1-.578-.588c0-.338.251-.6.6-.6.358 0 .587.262.587.6zm-1.068 6.755V26.78h.958v5.272h-.958zm6.308-.197c-.25.131-.806.305-1.514.305-1.591 0-2.626-1.078-2.626-2.69 0-1.624 1.111-2.8 2.833-2.8.566 0 1.067.142 1.328.271l-.217.742c-.229-.131-.589-.252-1.111-.252-1.21 0-1.863.895-1.863 1.994 0 1.221.784 1.973 1.83 1.973.545 0 .904-.143 1.177-.262l.163.719zm4.042.197l-.077-.665h-.032c-.294.414-.86.785-1.612.785-1.067 0-1.612-.752-1.612-1.515 0-1.274 1.133-1.972 3.171-1.961v-.108c0-.437-.121-1.221-1.199-1.221-.49 0-1.002.152-1.373.393l-.217-.633c.436-.283 1.067-.469 1.732-.469 1.611 0 2.004 1.102 2.004 2.158v1.972c0 .458.021.904.088 1.264h-.873zm-.142-2.691c-1.046-.022-2.234.162-2.234 1.188 0 .621.414.914.904.914a1.31 1.31 0 0 0 1.275-.882.998.998 0 0 0 .055-.306v-.914zm3.584-4.097v1.516h1.372v.729h-1.372v2.843c0 .654.185 1.025.719 1.025.25 0 .436-.033.556-.066l.044.719c-.186.077-.48.131-.851.131-.446 0-.806-.141-1.034-.402-.273-.283-.371-.752-.371-1.373V27.51h-.816v-.73h.816v-1.264l.937-.251zm3.518.033c.012.327-.229.588-.609.588a.57.57 0 0 1-.578-.588c0-.338.252-.6.6-.6.358 0 .587.262.587.6zm-1.067 6.755V26.78h.958v5.272h-.958zm7.321-2.681c0 1.951-1.351 2.801-2.625 2.801-1.428 0-2.527-1.047-2.527-2.713 0-1.766 1.154-2.801 2.614-2.801 1.514 0 2.538 1.102 2.538 2.713zm-4.184.055c0 1.155.665 2.027 1.602 2.027.916 0 1.602-.861 1.602-2.049 0-.894-.446-2.026-1.58-2.026-1.134 0-1.624 1.046-1.624 2.048zm5.393-1.22c0-.545-.011-.991-.043-1.427h.85l.054.871h.022c.262-.502.871-.992 1.742-.992.73 0 1.863.437 1.863 2.245v3.148h-.959v-3.04c0-.85-.315-1.558-1.22-1.558-.632 0-1.122.446-1.286.98-.043.12-.064.283-.064.446v3.171h-.959v-3.844zm5.916 2.865c.283.185.784.382 1.264.382.697 0 1.023-.35 1.023-.785 0-.457-.272-.708-.98-.969-.947-.338-1.395-.861-1.395-1.493 0-.851.687-1.548 1.819-1.548.534 0 1.003.153 1.297.328l-.239.697a2.051 2.051 0 0 0-1.079-.306c-.566 0-.883.327-.883.72 0 .436.316.631 1.003.893.915.349 1.384.807 1.384 1.591 0 .926-.72 1.579-1.973 1.579-.577 0-1.111-.141-1.481-.359l.24-.73z" fill="#58595B"/></svg>