<svg id="Layer_1" data-name="Layer 1" xmlns="http://www.w3.org/2000/svg" viewBox="0 0 213.13 48.03"><defs><style>.cls-1{fill:#008092;}.cls-2{fill:#333;}.cls-3{fill:none;}.cls-4,.cls-5{isolation:isolate;}.cls-5{font-size:14.55px;font-family:MyriadPro-Semibold, Myriad Pro;font-weight:700;}</style></defs><title>Artboard 1</title><path class="cls-1" d="M18.27,4.53a1.88,1.88,0,0,0,1.94-1.81s0-.09,0-.13A1.88,1.88,0,0,0,18.4.65h-.13a1.88,1.88,0,0,0-1.94,1.81s0,.09,0,.13a1.88,1.88,0,0,0,1.81,1.94h.13M8.09,11.16a2.56,2.56,0,0,0,2.59-2.52s0,0,0-.07h0a2.59,2.59,0,1,0-2.59,2.59h0m-5.5,9.06a1.94,1.94,0,0,0,0-3.88H2.43A2,2,0,0,0,.49,18.27a2.41,2.41,0,0,0,2.1,1.94m0,7.28a2.59,2.59,0,0,0,0,5.17h.16a2.47,2.47,0,0,0,2.44-2.51q0-.12,0-.24a2.62,2.62,0,0,0-2.59-2.43M18.43,42.85A2.59,2.59,0,1,0,21,45.44h0a2.65,2.65,0,0,0-2.59-2.59m11,.65a1.94,1.94,0,0,0,0,3.88h.16a2,2,0,0,0,1.94-1.94,2.1,2.1,0,0,0-2.1-1.94m10.19-6.63a2.59,2.59,0,1,0,0,5.17h.16a2.41,2.41,0,0,0,2.43-2.39q0-.1,0-.2a2.56,2.56,0,0,0-2.52-2.59h-.07M45.28,28a1.94,1.94,0,0,0,0,3.88h0A1.88,1.88,0,0,0,47.22,30s0-.09,0-.13A2,2,0,0,0,45.28,28m0-7.44a2.59,2.59,0,0,0,0-5.17h0a2.56,2.56,0,0,0-2.59,2.52s0,0,0,.07a2.38,2.38,0,0,0,2.59,2.59M39.62,10.35a1.88,1.88,0,0,0,1.94-1.81s0-.09,0-.13a1.94,1.94,0,0,0-3.88,0h0a1.88,1.88,0,0,0,1.81,1.94h.13M29.43,5.17A2.56,2.56,0,0,0,32,2.65s0,0,0-.07A2.56,2.56,0,0,0,29.5,0h-.23a2.57,2.57,0,0,0-2.43,2.71v0a2.52,2.52,0,0,0,2.59,2.43m0,3.56a3.23,3.23,0,0,0,6.31.16V8.73A3,3,0,0,0,32.8,5.65h-.3a3.23,3.23,0,0,0-3.07,3.07m-5.5.32a2.56,2.56,0,0,0,2.59-2.52s0,0,0-.07A2.56,2.56,0,0,0,24,3.88h-.07a2.65,2.65,0,0,0-2.59,2.59,2.65,2.65,0,0,0,2.59,2.59h0M15.2,12a3.1,3.1,0,0,0,3.23-3s0-.07,0-.1a3.1,3.1,0,0,0-3-3.23H15.2a3,3,0,0,0-3.08,2.93q0,.15,0,.3A3.23,3.23,0,0,0,15.2,12M6.31,15a2.59,2.59,0,1,0,5.17,0v-.16a2.65,2.65,0,0,0-2.59-2.59A3.07,3.07,0,0,0,6.31,15m0,5.82a3.23,3.23,0,1,0,3.23,3.23,3.23,3.23,0,0,0-3.23-3.23h0m2.59,9.22a2.59,2.59,0,1,0,2.59,2.59A2.56,2.56,0,0,0,9,30.08H8.89M18.43,39a3.23,3.23,0,1,0-3.23,3.23A3.23,3.23,0,0,0,18.43,39m5.5,0a2.59,2.59,0,1,0,0,5.17h0a2.56,2.56,0,0,0,2.59-2.52s0,0,0-.07A2.65,2.65,0,0,0,23.93,39m8.73-3.23a3.23,3.23,0,0,0,0,6.47h0a3.23,3.23,0,1,0,0-6.47m6.47-.49a2.59,2.59,0,0,0,0-5.17h0a2.56,2.56,0,0,0-2.59,2.52s0,0,0,.07a2.65,2.65,0,0,0,2.59,2.59m-1-11.32A3.23,3.23,0,1,0,41.4,20.7a3.23,3.23,0,0,0-3.23,3.23m1-6.31a2.59,2.59,0,0,0,0-5.17H39A2.65,2.65,0,0,0,36.38,15a2.93,2.93,0,0,0,2.75,2.59"/><path class="cls-2" d="M64.85,17.63a4.32,4.32,0,0,0,4.69,4.69,9.57,9.57,0,0,0,3.72-.65l.49,1.78a12.52,12.52,0,0,1-4.53.81,6.47,6.47,0,0,1-6.79-7c0-4.2,2.43-7.44,6.47-7.44,4.53,0,5.66,3.88,5.66,6.47,0,.49,0,1-.16,1.13Zm7.28-1.78c0-1.62-.65-4-3.4-4s-3.56,2.26-3.88,4ZM77.46,21a9.25,9.25,0,0,0,4.37,1.29c2.59,0,4-1.29,4-3.23s-1-2.75-3.56-3.72c-3.07-1.13-5-2.75-5-5.34,0-2.91,2.43-5.17,6.14-5.17a8.43,8.43,0,0,1,4.2,1L87,7.76a7.37,7.37,0,0,0-3.56-1c-2.59,0-3.56,1.62-3.56,2.91,0,1.78,1.13,2.59,3.72,3.72,3.23,1.29,4.85,2.75,4.85,5.66s-2.1,5.5-6.63,5.5A8.62,8.62,0,0,1,77,23.29,7.89,7.89,0,0,1,77.46,21Zm23.93,2.43a9.31,9.31,0,0,1-3.88.81,6.47,6.47,0,0,1-6.79-7A7,7,0,0,1,98.16,10a8.38,8.38,0,0,1,3.4.65l-.65,1.94A5.93,5.93,0,0,0,98,12a4.75,4.75,0,0,0-4.85,5.17,4.72,4.72,0,0,0,4.25,5.15l.44,0a6.69,6.69,0,0,0,3.07-.65Zm3.88-19.57h2.43v8.57h0a4.67,4.67,0,0,1,1.78-1.78,4.74,4.74,0,0,1,2.59-.65c1.78,0,4.85,1.13,4.85,5.82v8.09h-2.43V16.17c0-2.26-.81-4-3.23-4a3.72,3.72,0,0,0-3.4,2.43,2.39,2.39,0,0,0-.16,1.13v8.25h-2.43Zm28,13.1a6.74,6.74,0,0,1-6.19,7.26l-.6,0a6.6,6.6,0,0,1-6.65-6.54q0-.29,0-.57A6.76,6.76,0,0,1,126,9.88l.57,0a6.58,6.58,0,0,1,6.65,6.51Q133.27,16.68,133.25,17Zm-10.83.16c0,3.07,1.78,5.34,4.2,5.34s4.2-2.26,4.2-5.34c0-2.26-1.13-5.34-4-5.34S122.41,14.55,122.41,17.14ZM137,3.88h2.43V23.93H137Zm14.39,20.05-.16-1.78H151a5.11,5.11,0,0,1-4.2,2.1,3.91,3.91,0,0,1-4.19-3.61q0-.13,0-.27c0-3.23,2.91-5.17,8.25-5.17V15a2.86,2.86,0,0,0-3.07-3.23,6.47,6.47,0,0,0-3.56,1l-.65-1.62a7.89,7.89,0,0,1,4.53-1.29c4.2,0,5.17,2.91,5.17,5.66V20.7a19.6,19.6,0,0,0,.16,3.23Zm-.49-7c-2.75,0-5.82.49-5.82,3.07a2.3,2.3,0,0,0,2.16,2.43h.27a3.64,3.64,0,0,0,3.4-2.26,1.46,1.46,0,0,0,.16-.81A12.24,12.24,0,0,1,150.88,17Zm6.47-2.43a32.54,32.54,0,0,0-.16-4.2h2.1l.16,2.59h.16a4.27,4.27,0,0,1,3.72-3.07c.32,0,.49,0,.65.16v2.43c-.32,0-.49-.16-.81-.16a3.49,3.49,0,0,0-3.4,3.23c0,.32-.16.81-.16,1.13v7.28h-2.43Zm8.89,6.79a6.91,6.91,0,0,0,3.23,1c1.78,0,2.59-1,2.59-2.1s-.65-1.78-2.59-2.59c-2.43-.81-3.56-2.26-3.56-3.88a4.19,4.19,0,0,1,4.3-4.07l.39,0a6.57,6.57,0,0,1,3.4.81l-.65,1.78a5.45,5.45,0,0,0-2.75-.81c-1.46,0-2.26.81-2.26,1.94s.81,1.62,2.59,2.26c2.43,1,3.56,2.1,3.56,4.2,0,2.43-1.94,4-5.17,4a7.28,7.28,0,0,1-3.88-1C165.59,23.29,166.24,21.35,166.24,21.35ZM177.88,3.88h2.43v8.57h0a4.67,4.67,0,0,1,1.78-1.78,4.74,4.74,0,0,1,2.59-.65c1.78,0,4.85,1.13,4.85,5.82v8.09H187.1V16.17c0-2.26-.81-4-3.23-4a3.72,3.72,0,0,0-3.4,2.43,2.39,2.39,0,0,0-.16,1.13v8.25h-2.43Zm18.43,2.59a1.49,1.49,0,0,1-1.51,1.46h-.1a1.46,1.46,0,0,1-1.46-1.46h0a1.62,1.62,0,0,1,1.46-1.62h0a1.52,1.52,0,0,1,1.62,1.62Zm-2.75,17.46V10.19H196V23.93Zm6.63-9.22a43.91,43.91,0,0,0-.16-4.53h2.26l.16,2.43h0A5.32,5.32,0,0,1,207.31,10c3.4,0,5.82,2.75,5.82,7,0,4.85-3.07,7.44-6.31,7.44a4.85,4.85,0,0,1-4.2-2.1h0v7.44H200.2v-15Zm2.43,3.72a2.05,2.05,0,0,0,.16,1,3.8,3.8,0,0,0,3.72,2.91c2.59,0,4.2-2.1,4.2-5.34,0-2.75-1.46-5.17-4-5.17a4,4,0,0,0-3.72,3.07,2.05,2.05,0,0,0-.16,1Z"/><rect class="cls-3" x="63.39" y="30.56" width="147.32" height="10.51"/><g class="cls-4"><text class="cls-5" transform="translate(63.39 40.83)">20</text><text class="cls-5" transform="translate(78.99 40.83)"> </text><text class="cls-5" transform="translate(81.37 40.83)">Y</text><text class="cls-5" transform="translate(88.37 40.83)">ears of </text><text class="cls-5" transform="translate(133.41 40.83)">O</text><text class="cls-5" transform="translate(143.7 40.83)">pen </text><text class="cls-5" transform="translate(171.06 40.83)">A</text><text class="cls-5" transform="translate(180.13 40.83)">cc</text><text class="cls-5" transform="translate(192.94 40.83)">ess</text></g></svg>