<svg xmlns="http://www.w3.org/2000/svg" width="180.782" height="41.503" viewBox="0 0 180.782 41.503"><path fill="#FFF" d="M15.452 4.645a1.645 1.645 0 1 0 0-3.29 1.645 1.645 0 0 0 0 3.29m-8.626 5.567a2.17 2.17 0 0 0 2.131-2.209 2.17 2.17 0 1 0-4.34.075 2.173 2.173 0 0 0 2.209 2.134m-4.69 7.65a1.645 1.645 0 1 0-.002-3.29 1.645 1.645 0 0 0 .002 3.29m-.003 6.167a2.17 2.17 0 1 0 .076 4.34 2.17 2.17 0 1 0-.076-4.34m4.762 8.644a1.645 1.645 0 1 0 0 3.29 1.645 1.645 0 0 0 0-3.29m8.663 4.463a2.17 2.17 0 1 0 .075 4.341 2.17 2.17 0 0 0-.075-4.341m9.412.468a1.644 1.644 0 1 0 0 3.289 1.644 1.644 0 0 0 0-3.289m8.612-5.551a2.172 2.172 0 1 0 .074 4.344 2.172 2.172 0 0 0-.074-4.344m4.693-7.624a1.645 1.645 0 1 0 0 3.29 1.645 1.645 0 0 0 0-3.29m.004-6.197a2.171 2.171 0 1 0-.076-4.342 2.171 2.171 0 0 0 .076 4.342m-4.758-8.644a1.645 1.645 0 1 0 0-3.29 1.645 1.645 0 0 0 0 3.29m-8.655-4.446a2.171 2.171 0 1 0-2.209-2.134 2.173 2.173 0 0 0 2.209 2.134m.11 3.036a2.726 2.726 0 1 0 5.452.002 2.726 2.726 0 0 0-5.452-.002m-4.765.324a2.182 2.182 0 0 0 0-4.362 2.18 2.18 0 1 0 0 4.362m-7.307 2.371a2.726 2.726 0 1 0 0-5.454 2.726 2.726 0 0 0 0 5.454M5.305 13.58a2.18 2.18 0 1 0 4.362-.002 2.18 2.18 0 0 0-4.362.002m.072 4.835a2.726 2.726 0 1 0 0 5.453 2.726 2.726 0 0 0 0-5.453m2.135 7.773a2.182 2.182 0 1 0 0 4.363 2.182 2.182 0 0 0 0-4.363m8.101 7.608a2.725 2.725 0 1 0-5.45-.001 2.725 2.725 0 0 0 5.45.001m4.578-.072a2.18 2.18 0 1 0 0 4.36 2.18 2.18 0 0 0 0-4.36m7.511-2.655a2.726 2.726 0 1 0 .002 5.452 2.726 2.726 0 0 0-.002-5.452m5.401-.494a2.182 2.182 0 1 0 0-4.36 2.182 2.182 0 0 0 0 4.36m-.849-9.46a2.727 2.727 0 1 0 5.454 0 2.727 2.727 0 0 0-5.454 0m.849-5.354a2.182 2.182 0 1 0 0-4.364 2.182 2.182 0 0 0 0 4.364m22.488-1.116c.048 2.853 1.87 4.027 3.979 4.027 1.51 0 2.421-.264 3.212-.599l.359 1.51c-.743.336-2.014.719-3.859.719-3.572 0-5.705-2.349-5.705-5.849s2.062-6.257 5.441-6.257c3.788 0 4.794 3.332 4.794 5.466 0 .432-.048.767-.072.982h-8.149zm6.185-1.51c.024-1.343-.552-3.428-2.925-3.428-2.133 0-3.068 1.966-3.236 3.428h6.161zm4.433 4.386a7.394 7.394 0 0 0 3.74 1.055c2.133 0 3.38-1.127 3.38-2.757 0-1.51-.863-2.373-3.044-3.212-2.637-.935-4.267-2.302-4.267-4.579 0-2.517 2.085-4.387 5.226-4.387 1.654 0 2.853.384 3.572.791l-.576 1.702a6.44 6.44 0 0 0-3.068-.767c-2.205 0-3.044 1.318-3.044 2.421 0 1.51.983 2.253 3.212 3.116 2.733 1.055 4.123 2.373 4.123 4.746 0 2.493-1.846 4.65-5.657 4.65-1.558 0-3.26-.455-4.123-1.03l.526-1.749zm20.303 2.11c-.551.288-1.774.671-3.332.671-3.5 0-5.777-2.373-5.777-5.921 0-3.571 2.445-6.16 6.232-6.16 1.247 0 2.349.312 2.924.6l-.479 1.63c-.503-.288-1.295-.552-2.445-.552-2.661 0-4.099 1.966-4.099 4.387 0 2.685 1.726 4.339 4.027 4.339 1.198 0 1.989-.312 2.589-.575l.36 1.581zM88.98 3.043h2.109v7.239h.048c.336-.6.863-1.127 1.51-1.486a4.353 4.353 0 0 1 2.158-.6c1.558 0 4.051.959 4.051 4.963v6.903h-2.109v-6.664c0-1.87-.695-3.452-2.685-3.452-1.367 0-2.445.959-2.829 2.109-.12.288-.144.6-.144 1.007v7H88.98V3.043zm23.803 11.122c0 4.291-2.973 6.161-5.777 6.161-3.141 0-5.561-2.301-5.561-5.969 0-3.884 2.54-6.161 5.752-6.161 3.332 0 5.586 2.422 5.586 5.969zm-9.205.12c0 2.541 1.463 4.459 3.523 4.459 2.014 0 3.523-1.894 3.523-4.507 0-1.966-.982-4.459-3.475-4.459-2.493 0-3.571 2.302-3.571 4.507zm11.865-11.242h2.109v17.02h-2.109V3.043zm12.08 17.019l-.168-1.462h-.072c-.646.91-1.893 1.726-3.547 1.726-2.35 0-3.549-1.654-3.549-3.332 0-2.805 2.494-4.339 6.977-4.314v-.24c0-.959-.264-2.685-2.637-2.685-1.079 0-2.205.336-3.021.863l-.479-1.391c.959-.623 2.35-1.031 3.811-1.031 3.549 0 4.412 2.422 4.412 4.747v4.339c0 1.007.047 1.989.191 2.78h-1.918zm-.312-5.92c-2.302-.048-4.914.359-4.914 2.613 0 1.366.911 2.013 1.989 2.013 1.51 0 2.469-.958 2.805-1.941.072-.216.12-.455.12-.671v-2.014zm5.441-2.062c0-1.366-.023-2.541-.096-3.62h1.846l.072 2.277h.096c.527-1.558 1.797-2.541 3.212-2.541.239 0 .407.024.599.072v1.989a3.162 3.162 0 0 0-.719-.071c-1.486 0-2.541 1.126-2.828 2.708a5.837 5.837 0 0 0-.096.983v6.185h-2.086V12.08zm7.551 5.825c.623.407 1.725.839 2.78.839 1.534 0 2.253-.768 2.253-1.726 0-1.007-.6-1.559-2.157-2.134-2.085-.743-3.068-1.894-3.068-3.284 0-1.87 1.511-3.404 4.003-3.404 1.175 0 2.205.336 2.854.72l-.527 1.534a4.516 4.516 0 0 0-2.374-.672c-1.246 0-1.941.72-1.941 1.582 0 .959.695 1.391 2.205 1.966 2.014.768 3.044 1.774 3.044 3.5 0 2.038-1.582 3.476-4.338 3.476-1.271 0-2.445-.312-3.26-.791l.526-1.606zm9.779-14.862h2.109v7.239h.048c.336-.6.863-1.127 1.511-1.486a4.346 4.346 0 0 1 2.157-.6c1.558 0 4.051.959 4.051 4.963v6.903h-2.109v-6.664c0-1.87-.695-3.452-2.685-3.452-1.367 0-2.445.959-2.828 2.109-.121.288-.145.6-.145 1.007v7h-2.109V3.043zM165.634 5.2c.023.719-.504 1.294-1.343 1.294-.743 0-1.271-.575-1.271-1.294 0-.743.551-1.318 1.318-1.318.792 0 1.296.575 1.296 1.318zm-2.349 14.862V8.46h2.109v11.603h-2.109zm5.608-7.814c0-1.486-.048-2.686-.097-3.788h1.895l.096 1.99h.048c.863-1.415 2.229-2.254 4.124-2.254 2.805 0 4.914 2.373 4.914 5.897 0 4.171-2.541 6.232-5.274 6.232-1.534 0-2.876-.671-3.571-1.822h-.049v6.305h-2.085v-12.56zm2.085 3.092c0 .312.049.6.096.863.385 1.462 1.654 2.469 3.165 2.469 2.229 0 3.524-1.821 3.524-4.482 0-2.325-1.223-4.314-3.453-4.314-1.438 0-2.78 1.03-3.188 2.612-.072.264-.145.575-.145.863v1.989zM55.5 29.49v5.188c0 1.963.871 2.795 2.041 2.795 1.3 0 2.132-.857 2.132-2.795V29.49h1.145v5.11c0 2.691-1.417 3.796-3.315 3.796-1.794 0-3.146-1.026-3.146-3.744V29.49H55.5zm7.243 4.174c0-.65-.013-1.184-.052-1.703h1.014l.065 1.04h.026c.312-.599 1.04-1.184 2.08-1.184.871 0 2.223.521 2.223 2.679v3.757h-1.144v-3.627c0-1.015-.377-1.859-1.456-1.859-.754 0-1.339.533-1.534 1.17a1.65 1.65 0 0 0-.078.533v3.783h-1.144v-4.589zm8.489-3.472c.013.391-.273.702-.728.702-.403 0-.689-.312-.689-.702 0-.402.299-.715.715-.715.429.001.702.313.702.715zm-1.274 8.061v-6.292h1.144v6.292h-1.144zm3.485-6.292l1.235 3.536c.208.572.377 1.092.507 1.611h.039c.143-.52.325-1.039.533-1.611l1.222-3.536h1.196l-2.47 6.292h-1.092l-2.392-6.292h1.222zm6.449 3.353c.026 1.548 1.014 2.185 2.158 2.185.819 0 1.313-.144 1.742-.325l.195.819c-.403.182-1.092.39-2.093.39-1.938 0-3.094-1.274-3.094-3.172 0-1.898 1.118-3.394 2.951-3.394 2.054 0 2.6 1.808 2.6 2.965 0 .233-.026.416-.039.532h-4.42zm3.354-.818c.013-.729-.299-1.859-1.586-1.859-1.157 0-1.664 1.066-1.755 1.859h3.341zm2.523-.572c0-.741-.013-1.378-.052-1.963h1.001l.039 1.234h.052c.286-.845.975-1.378 1.742-1.378.13 0 .221.014.325.039v1.079a1.778 1.778 0 0 0-.39-.039c-.806 0-1.378.611-1.534 1.47a3.207 3.207 0 0 0-.052.532v3.354h-1.131v-4.328zm4.095 3.159c.338.221.936.455 1.508.455.832 0 1.222-.416 1.222-.937 0-.546-.325-.845-1.17-1.157-1.131-.402-1.664-1.026-1.664-1.78 0-1.015.819-1.847 2.171-1.847.637 0 1.196.183 1.547.391l-.286.832a2.449 2.449 0 0 0-1.287-.364c-.676 0-1.053.39-1.053.858 0 .52.377.754 1.196 1.065 1.092.416 1.651.962 1.651 1.898 0 1.104-.858 1.885-2.353 1.885-.689 0-1.326-.169-1.768-.429l.286-.87zm6.579-6.891c.013.391-.273.702-.728.702-.403 0-.689-.312-.689-.702 0-.402.299-.715.715-.715.429.001.702.313.702.715zm-1.274 8.061v-6.292h1.144v6.292h-1.144zm4.42-8.1v1.808h1.638v.871h-1.638v3.393c0 .78.221 1.223.857 1.223.299 0 .52-.039.663-.078l.052.857c-.221.092-.572.156-1.014.156-.533 0-.962-.169-1.235-.48-.325-.339-.442-.897-.442-1.639v-3.432h-.975v-.871h.975v-1.509l1.119-.299zm3.342 1.808l1.377 3.718c.144.416.299.91.403 1.287h.026c.117-.377.246-.858.402-1.312l1.248-3.692h1.209l-1.716 4.485c-.819 2.157-1.378 3.263-2.157 3.938-.56.494-1.119.689-1.404.741l-.286-.962a3.013 3.013 0 0 0 1.001-.56c.312-.246.701-.688.962-1.273.052-.117.091-.208.091-.273a.98.98 0 0 0-.078-.299l-2.326-5.798h1.248zm14.157 3.094c0 2.327-1.612 3.341-3.133 3.341-1.703 0-3.017-1.248-3.017-3.236 0-2.106 1.379-3.342 3.121-3.342 1.808-.001 3.029 1.313 3.029 3.237zm-4.992.065c0 1.378.793 2.418 1.911 2.418 1.092 0 1.911-1.027 1.911-2.444 0-1.066-.533-2.418-1.885-2.418-1.352 0-1.937 1.248-1.937 2.444zm6.554 3.133v-5.421h-.885v-.871h.885v-.299c0-.885.195-1.69.728-2.197.429-.416 1.001-.585 1.534-.585.402 0 .754.091.975.182l-.156.884a1.701 1.701 0 0 0-.728-.143c-.975 0-1.222.858-1.222 1.82v.338h1.521v.871h-1.521v5.421h-1.131zm12.598-.286c-.416.208-1.248.416-2.314.416-2.47 0-4.329-1.56-4.329-4.433 0-2.743 1.859-4.603 4.576-4.603 1.093 0 1.781.234 2.08.39l-.272.924c-.43-.209-1.041-.364-1.769-.364-2.054 0-3.419 1.312-3.419 3.614 0 2.145 1.234 3.522 3.367 3.522.689 0 1.391-.143 1.846-.363l.234.897zm4.863.286l-.092-.793h-.039c-.351.494-1.026.936-1.924.936-1.273 0-1.924-.896-1.924-1.807 0-1.521 1.352-2.354 3.783-2.34v-.13c0-.521-.143-1.456-1.43-1.456-.586 0-1.196.182-1.639.468l-.26-.754c.52-.338 1.273-.56 2.066-.56 1.925 0 2.393 1.313 2.393 2.574v2.354c0 .546.025 1.079.104 1.508h-1.038zm-.17-3.211c-1.248-.026-2.664.195-2.664 1.417 0 .741.494 1.092 1.078 1.092.819 0 1.34-.52 1.521-1.053.039-.117.064-.247.064-.364v-1.092zm2.952-6.02h1.144v9.23h-1.144v-9.23zm4.343 1.17c.013.391-.273.702-.729.702-.403 0-.689-.312-.689-.702 0-.402.299-.715.715-.715.429.001.703.313.703.715zm-1.275 8.061v-6.292h1.144v6.292h-1.144zm3.16 0v-5.421h-.884v-.871h.884v-.299c0-.885.195-1.69.729-2.197.429-.416 1-.585 1.533-.585.403 0 .754.091.976.182l-.156.884a1.708 1.708 0 0 0-.728-.143c-.976 0-1.223.858-1.223 1.82v.338h1.521v.871h-1.521v5.421h-1.131zm9.373-3.198c0 2.327-1.611 3.341-3.133 3.341-1.703 0-3.016-1.248-3.016-3.236 0-2.106 1.378-3.342 3.12-3.342 1.808-.001 3.029 1.313 3.029 3.237zm-4.993.065c0 1.378.794 2.418 1.912 2.418 1.092 0 1.91-1.027 1.91-2.444 0-1.066-.532-2.418-1.885-2.418-1.351 0-1.937 1.248-1.937 2.444zm6.438-1.196c0-.741-.014-1.378-.053-1.963h1.001l.039 1.234h.052c.286-.845.976-1.378 1.742-1.378.131 0 .221.014.325.039v1.079a1.771 1.771 0 0 0-.39-.039c-.807 0-1.379.611-1.534 1.47a3.207 3.207 0 0 0-.052.532v3.354h-1.131v-4.328zm4.251-.26c0-.65-.013-1.184-.052-1.703h1.014l.064 1.04h.026c.312-.599 1.04-1.184 2.08-1.184.871 0 2.224.521 2.224 2.679v3.757h-1.145v-3.627c0-1.015-.377-1.859-1.456-1.859-.754 0-1.339.533-1.534 1.17a1.65 1.65 0 0 0-.078.533v3.783h-1.144v-4.589zm8.489-3.472c.014.391-.272.702-.728.702-.403 0-.688-.312-.688-.702 0-.402.299-.715.715-.715.429.001.701.313.701.715zm-1.273 8.061v-6.292h1.145v6.292h-1.145zm6.526 0l-.091-.793h-.039c-.352.494-1.027.936-1.924.936-1.274 0-1.924-.896-1.924-1.807 0-1.521 1.352-2.354 3.783-2.34v-.13c0-.521-.144-1.456-1.431-1.456-.585 0-1.196.182-1.638.468l-.26-.754c.52-.338 1.273-.56 2.066-.56 1.924 0 2.393 1.313 2.393 2.574v2.354c0 .546.025 1.079.104 1.508h-1.039zm-.169-3.211c-1.248-.026-2.665.195-2.665 1.417 0 .741.494 1.092 1.079 1.092.818 0 1.339-.52 1.521-1.053.039-.117.064-.247.064-.364v-1.092z"/></svg>