<svg xmlns="http://www.w3.org/2000/svg" width="132.977" height="29.722" viewBox="0 0 132.977 29.722"><path fill="#008092" d="M11.29 2.81a1.202 1.202 0 1 0 0-2.404 1.202 1.202 0 0 0 0 2.404M4.987 6.877a1.585 1.585 0 0 0 1.557-1.614 1.586 1.586 0 1 0-1.557 1.614m-3.426 5.59a1.202 1.202 0 1 0-.001-2.403 1.202 1.202 0 0 0 .001 2.403m-.002 4.506a1.586 1.586 0 1 0 .053 3.17 1.586 1.586 0 0 0-.053-3.17m9.808 9.576a1.586 1.586 0 1 0 .053 3.173 1.586 1.586 0 0 0-.053-3.173m6.877.342a1.202 1.202 0 1 0 .001 2.403 1.202 1.202 0 0 0-.001-2.403m6.292-4.056a1.587 1.587 0 1 0 .053 3.173 1.587 1.587 0 0 0-.053-3.173m3.43-5.57a1.202 1.202 0 1 0 0 2.404 1.202 1.202 0 0 0 0-2.404m.002-4.528a1.585 1.585 0 1 0-.054-3.17 1.585 1.585 0 0 0 .054 3.17m-3.476-6.316a1.202 1.202 0 1 0 0-2.405 1.202 1.202 0 0 0 0 2.405m-6.324-3.249a1.586 1.586 0 1 0-.054-3.17 1.586 1.586 0 0 0 .054 3.17m.081 2.219a1.992 1.992 0 1 0 3.983 0 1.992 1.992 0 0 0-3.983 0m-3.482.236a1.594 1.594 0 1 0-.002-3.188 1.594 1.594 0 0 0 .002 3.188M9.428 7.361a1.992 1.992 0 1 0 0-3.983 1.992 1.992 0 0 0 0 3.983M3.875 9.338a1.594 1.594 0 1 0 3.187-.001 1.594 1.594 0 0 0-3.187.001m.053 3.533a1.992 1.992 0 1 0 0 3.985 1.992 1.992 0 0 0 0-3.985m1.56 5.68a1.593 1.593 0 1 0-.001 3.187 1.593 1.593 0 0 0 .001-3.187m5.919 5.558a1.99 1.99 0 1 0-3.981 0 1.99 1.99 0 0 0 3.981 0m3.345-.053a1.593 1.593 0 1 0 0 3.187 1.593 1.593 0 0 0 0-3.187m5.488-1.938a1.99 1.99 0 1 0-.001 3.98 1.99 1.99 0 0 0 .001-3.98m3.947-.362a1.594 1.594 0 1 0 0-3.188 1.594 1.594 0 0 0 0 3.188m-.621-6.912a1.992 1.992 0 1 0 3.985 0 1.992 1.992 0 0 0-3.985 0m.621-3.912a1.594 1.594 0 1 0 0-3.187 1.594 1.594 0 0 0 0 3.187"/><path d="M40.618 15.818c.035 2.085 1.366 2.942 2.908 2.942 1.104 0 1.769-.191 2.347-.438l.263 1.104c-.543.246-1.471.525-2.82.525-2.61 0-4.169-1.717-4.169-4.274s1.506-4.572 3.977-4.572c2.768 0 3.503 2.435 3.503 3.994 0 .315-.035.561-.053.718h-5.956zm4.519-1.104c.018-.981-.403-2.505-2.137-2.505-1.559 0-2.242 1.437-2.365 2.505h4.502zm3.238 3.206c.683.42 1.682.771 2.733.771 1.559 0 2.47-.823 2.47-2.015 0-1.104-.631-1.734-2.225-2.347-1.927-.683-3.118-1.682-3.118-3.346 0-1.839 1.524-3.206 3.819-3.206 1.208 0 2.084.28 2.61.578l-.42 1.245a4.7 4.7 0 0 0-2.242-.561c-1.611 0-2.225.963-2.225 1.769 0 1.104.718 1.646 2.347 2.277 1.997.771 3.013 1.734 3.013 3.468 0 1.822-1.349 3.398-4.134 3.398-1.139 0-2.382-.332-3.013-.753l.385-1.278zm14.836 1.541c-.403.211-1.296.49-2.435.49-2.558 0-4.222-1.734-4.222-4.326 0-2.61 1.787-4.502 4.555-4.502.911 0 1.716.228 2.137.438l-.351 1.191c-.368-.21-.946-.403-1.787-.403-1.944 0-2.996 1.437-2.996 3.206 0 1.962 1.261 3.171 2.943 3.171.876 0 1.454-.228 1.892-.421l.264 1.156zm2.34-12.121h1.542v5.29h.035c.245-.438.63-.823 1.104-1.086a3.17 3.17 0 0 1 1.576-.438c1.139 0 2.961.701 2.961 3.626v5.045h-1.542v-4.87c0-1.367-.508-2.522-1.962-2.522-.998 0-1.787.701-2.067 1.542-.087.21-.105.438-.105.735v5.115h-1.542V7.34zm17.392 8.128c0 3.135-2.172 4.501-4.222 4.501-2.295 0-4.064-1.682-4.064-4.361 0-2.838 1.857-4.502 4.205-4.502 2.435 0 4.081 1.769 4.081 4.362zm-6.726.087c0 1.857 1.068 3.258 2.575 3.258 1.471 0 2.574-1.383 2.574-3.293 0-1.436-.718-3.258-2.539-3.258-1.822 0-2.61 1.682-2.61 3.293zm9.019-8.215h1.542v12.437h-1.542V7.34zm8.827 12.437l-.123-1.068h-.052c-.474.665-1.384 1.261-2.593 1.261-1.717 0-2.592-1.209-2.592-2.435 0-2.049 1.821-3.17 5.097-3.153v-.175c0-.701-.192-1.962-1.927-1.962-.788 0-1.611.245-2.207.63l-.351-1.016c.7-.455 1.717-.753 2.785-.753 2.593 0 3.224 1.769 3.224 3.468v3.17c0 .736.035 1.454.14 2.032h-1.401zm-.227-4.327c-1.682-.035-3.591.263-3.591 1.91 0 .998.666 1.471 1.453 1.471 1.104 0 1.805-.7 2.051-1.418.052-.158.087-.334.087-.491V15.45zm3.975-1.506c0-.999-.018-1.857-.07-2.646h1.349l.053 1.665h.07c.385-1.139 1.313-1.857 2.348-1.857.175 0 .297.018.438.053v1.454a2.319 2.319 0 0 0-.525-.052c-1.086 0-1.857.823-2.067 1.979-.034.21-.069.456-.069.718v4.52h-1.524v-5.834zm5.516 4.256c.455.299 1.262.613 2.032.613 1.121 0 1.646-.561 1.646-1.261 0-.735-.438-1.139-1.577-1.559-1.523-.543-2.242-1.384-2.242-2.4 0-1.366 1.104-2.487 2.926-2.487.858 0 1.611.245 2.085.525l-.386 1.121a3.296 3.296 0 0 0-1.734-.49c-.91 0-1.418.525-1.418 1.156 0 .701.508 1.016 1.611 1.437 1.471.561 2.225 1.296 2.225 2.558 0 1.488-1.156 2.539-3.171 2.539-.929 0-1.786-.228-2.382-.578l.385-1.174zm7.146-10.86h1.542v5.29h.035c.244-.438.63-.823 1.104-1.086a3.167 3.167 0 0 1 1.576-.438c1.139 0 2.96.701 2.96 3.626v5.045h-1.542v-4.87c0-1.367-.508-2.522-1.961-2.522-.999 0-1.787.701-2.067 1.542-.087.21-.104.438-.104.735v5.115h-1.542V7.34zm11.436 1.577c.018.525-.368.946-.98.946-.544 0-.93-.42-.93-.946a.94.94 0 0 1 .964-.964c.578 0 .946.42.946.964zm-1.717 10.86v-8.479h1.541v8.479h-1.541zm4.098-5.711a60.41 60.41 0 0 0-.07-2.768h1.385l.07 1.454h.035c.63-1.033 1.629-1.646 3.012-1.646 2.051 0 3.592 1.734 3.592 4.309 0 3.048-1.857 4.554-3.854 4.554-1.121 0-2.103-.49-2.61-1.331h-.035v4.606h-1.524v-9.178zm1.524 2.26c0 .227.035.438.07.63.28 1.068 1.208 1.804 2.312 1.804 1.629 0 2.576-1.33 2.576-3.275 0-1.699-.895-3.153-2.523-3.153-1.051 0-2.031.753-2.33 1.91-.052.192-.104.42-.104.63v1.454z" fill="#333"/></svg>