<svg id="Layer_1" data-name="Layer 1" xmlns="http://www.w3.org/2000/svg" viewBox="0 0 131.8 29.7"><defs><style>.cls-1{fill:#008092;}.cls-2{fill:#333;}.cls-3{fill:none;}.cls-4{isolation:isolate;font-size:9px;font-family:MyriadPro-Semibold, Myriad Pro;font-weight:600;}.cls-5{letter-spacing:-0.04em;}.cls-6{letter-spacing:-0.09em;}.cls-7{letter-spacing:0em;}.cls-8{letter-spacing:0em;}.cls-9{letter-spacing:-0.01em;}.cls-10{letter-spacing:-0.01em;}</style></defs><path class="cls-1" d="M11.3,2.8a1.16,1.16,0,0,0,1.2-1.2A1.16,1.16,0,0,0,11.3.4h0a1.16,1.16,0,0,0-1.2,1.2,1.16,1.16,0,0,0,1.2,1.2M5,6.9A1.58,1.58,0,0,0,6.6,5.3h0A1.6,1.6,0,1,0,5,6.9H5M1.6,12.5a1.2,1.2,0,0,0,0-2.4H1.5A1.22,1.22,0,0,0,.3,11.3a1.49,1.49,0,0,0,1.3,1.2m0,4.5a1.6,1.6,0,0,0,0,3.2h.1a1.53,1.53,0,0,0,1.5-1.7A1.62,1.62,0,0,0,1.6,17m9.8,9.5A1.6,1.6,0,1,0,13,28.1a1.64,1.64,0,0,0-1.6-1.6m6.8.4a1.2,1.2,0,0,0,0,2.4h.1a1.22,1.22,0,0,0,1.2-1.2,1.3,1.3,0,0,0-1.3-1.2m6.3-4.1a1.6,1.6,0,1,0,0,3.2h.1a1.49,1.49,0,0,0,1.5-1.6,1.58,1.58,0,0,0-1.6-1.6M28,17.3a1.2,1.2,0,0,0,0,2.4h0a1.16,1.16,0,0,0,1.2-1.2A1.22,1.22,0,0,0,28,17.3m0-4.6a1.6,1.6,0,1,0,0-3.2h0a1.58,1.58,0,0,0-1.6,1.6A1.47,1.47,0,0,0,28,12.7M24.5,6.4a1.16,1.16,0,0,0,1.2-1.2,1.2,1.2,0,1,0-2.4,0,1.16,1.16,0,0,0,1.2,1.2M18.2,3.2a1.58,1.58,0,0,0,1.6-1.6A1.58,1.58,0,0,0,18.2,0h-.1a1.59,1.59,0,0,0-1.5,1.7,1.56,1.56,0,0,0,1.6,1.5m0,2.2a2,2,0,0,0,3.9.1V5.4a1.86,1.86,0,0,0-2-1.9,2,2,0,0,0-1.9,1.9m-3.4.2A1.58,1.58,0,0,0,16.4,4a1.58,1.58,0,0,0-1.6-1.6A1.64,1.64,0,0,0,13.2,4a1.64,1.64,0,0,0,1.6,1.6h0M9.4,7.4a1.92,1.92,0,0,0,2-1.9,1.92,1.92,0,0,0-1.9-2H9.4a1.86,1.86,0,0,0-1.9,2A2,2,0,0,0,9.4,7.4M3.9,9.3a1.6,1.6,0,1,0,3.2,0V9.2A1.64,1.64,0,0,0,5.5,7.6,1.9,1.9,0,0,0,3.9,9.3m0,3.6a2,2,0,1,0,2,2,2,2,0,0,0-2-2h0m1.6,5.7a1.6,1.6,0,1,0,1.6,1.6,1.58,1.58,0,0,0-1.6-1.6m5.9,5.5a2,2,0,1,0-2,2,2,2,0,0,0,2-2m3.4,0a1.6,1.6,0,0,0,0,3.2h0a1.58,1.58,0,0,0,1.6-1.6,1.64,1.64,0,0,0-1.6-1.6m5.4-2a2,2,0,1,0,0,4h0a2,2,0,0,0,0-4m4-.3a1.6,1.6,0,1,0,0-3.2h0a1.58,1.58,0,0,0-1.6,1.6,1.64,1.64,0,0,0,1.6,1.6m-.6-7a2,2,0,1,0,2-2,2,2,0,0,0-2,2m.6-3.9a1.6,1.6,0,0,0,0-3.2h-.1a1.64,1.64,0,0,0-1.6,1.6,1.81,1.81,0,0,0,1.7,1.6"/><path class="cls-2" d="M40.1,10.9A2.67,2.67,0,0,0,43,13.8a5.92,5.92,0,0,0,2.3-.4l.3,1.1a7.74,7.74,0,0,1-2.8.5,4,4,0,0,1-4.2-4.3c0-2.6,1.5-4.6,4-4.6,2.8,0,3.5,2.4,3.5,4,0,.3,0,.6-.1.7l-5.9.1Zm4.5-1.1c0-1-.4-2.5-2.1-2.5s-2.2,1.4-2.4,2.5ZM47.9,13a5.72,5.72,0,0,0,2.7.8c1.6,0,2.5-.8,2.5-2s-.6-1.7-2.2-2.3c-1.9-.7-3.1-1.7-3.1-3.3,0-1.8,1.5-3.2,3.8-3.2a5.21,5.21,0,0,1,2.6.6l-.4,1.2a4.56,4.56,0,0,0-2.2-.6c-1.6,0-2.2,1-2.2,1.8,0,1.1.7,1.6,2.3,2.3,2,.8,3,1.7,3,3.5s-1.3,3.4-4.1,3.4a5.33,5.33,0,0,1-3-.8A4.88,4.88,0,0,1,47.9,13Zm14.8,1.5a5.76,5.76,0,0,1-2.4.5,4,4,0,0,1-4.2-4.3,4.33,4.33,0,0,1,4.6-4.5,5.18,5.18,0,0,1,2.1.4l-.4,1.2a3.67,3.67,0,0,0-1.8-.4,2.94,2.94,0,0,0-3,3.2,2.92,2.92,0,0,0,2.9,3.2,4.14,4.14,0,0,0,1.9-.4ZM65.1,2.4h1.5V7.7h0a2.89,2.89,0,0,1,1.1-1.1,2.93,2.93,0,0,1,1.6-.4c1.1,0,3,.7,3,3.6v5H70.8V10c0-1.4-.5-2.5-2-2.5A2.3,2.3,0,0,0,66.7,9a1.48,1.48,0,0,0-.1.7v5.1H65.1Zm17.3,8.1A4.17,4.17,0,0,1,78.2,15a4.08,4.08,0,0,1-4.1-4.4,4.18,4.18,0,0,1,4.2-4.5A4.07,4.07,0,0,1,82.4,10.5Zm-6.7.1c0,1.9,1.1,3.3,2.6,3.3s2.6-1.4,2.6-3.3c0-1.4-.7-3.3-2.5-3.3S75.7,9,75.7,10.6Zm9-8.2h1.5V14.8H84.7Zm8.9,12.4-.1-1.1h-.1A3.16,3.16,0,0,1,90.8,15a2.42,2.42,0,0,1-2.6-2.4c0-2,1.8-3.2,5.1-3.2V9.3a1.77,1.77,0,0,0-1.9-2,4,4,0,0,0-2.2.6l-.4-1a4.88,4.88,0,0,1,2.8-.8c2.6,0,3.2,1.8,3.2,3.5v3.2a12.12,12.12,0,0,0,.1,2Zm-.3-4.3c-1.7,0-3.6.3-3.6,1.9a1.42,1.42,0,0,0,1.5,1.5,2.25,2.25,0,0,0,2.1-1.4.9.9,0,0,0,.1-.5A7.57,7.57,0,0,1,93.3,10.5Zm4-1.5a20.12,20.12,0,0,0-.1-2.6h1.3L98.6,8h.1A2.64,2.64,0,0,1,101,6.1c.2,0,.3,0,.4.1V7.7c-.2,0-.3-.1-.5-.1a2.16,2.16,0,0,0-2.1,2c0,.2-.1.5-.1.7v4.5H97.2L97.3,9Zm5.5,4.2a4.27,4.27,0,0,0,2,.6c1.1,0,1.6-.6,1.6-1.3s-.4-1.1-1.6-1.6c-1.5-.5-2.2-1.4-2.2-2.4A2.59,2.59,0,0,1,105.5,6a4.06,4.06,0,0,1,2.1.5l-.4,1.1a3.37,3.37,0,0,0-1.7-.5c-.9,0-1.4.5-1.4,1.2s.5,1,1.6,1.4c1.5.6,2.2,1.3,2.2,2.6,0,1.5-1.2,2.5-3.2,2.5a4.5,4.5,0,0,1-2.4-.6C102.4,14.4,102.8,13.2,102.8,13.2ZM110,2.4h1.5V7.7h0a2.89,2.89,0,0,1,1.1-1.1,2.93,2.93,0,0,1,1.6-.4c1.1,0,3,.7,3,3.6v5h-1.5V10c0-1.4-.5-2.5-2-2.5A2.3,2.3,0,0,0,111.6,9a1.48,1.48,0,0,0-.1.7v5.1H110V2.4ZM121.4,4a.92.92,0,0,1-1,.9.9.9,0,0,1-.9-.9,1,1,0,0,1,.9-1h0A.94.94,0,0,1,121.4,4Zm-1.7,10.8V6.3h1.5v8.5Zm4.1-5.7a27.15,27.15,0,0,0-.1-2.8h1.4l.1,1.5h0a3.29,3.29,0,0,1,3-1.6c2.1,0,3.6,1.7,3.6,4.3,0,3-1.9,4.6-3.9,4.6a3,3,0,0,1-2.6-1.3h0v4.6h-1.5V9.1Zm1.5,2.3a1.27,1.27,0,0,0,.1.6,2.35,2.35,0,0,0,2.3,1.8c1.6,0,2.6-1.3,2.6-3.3,0-1.7-.9-3.2-2.5-3.2a2.44,2.44,0,0,0-2.3,1.9,1.27,1.27,0,0,0-.1.6l-.1,1.6Z"/><rect class="cls-3" x="39.2" y="18.9" width="91.1" height="6.5"/><text class="cls-4" transform="translate(39.2 25.25)">20<tspan class="cls-5" x="9.65" y="0"> </tspan><tspan class="cls-6" x="11.12" y="0">Y</tspan><tspan x="15.45" y="0">ears of </tspan><tspan class="cls-7" x="43.3" y="0">O</tspan><tspan class="cls-8" x="49.66" y="0">pen </tspan><tspan class="cls-9" x="66.58" y="0">A</tspan><tspan class="cls-10" x="72.19" y="0">cc</tspan><tspan x="80.11" y="0">ess</tspan></text></svg>