<?xml version="1.0" encoding="utf-8"?>
<!-- Generator: Adobe Illustrator 26.2.1, SVG Export Plug-In . SVG Version: 6.00 Build 0)  -->
<svg version="1.1" id="Layer_1" xmlns="http://www.w3.org/2000/svg" xmlns:xlink="http://www.w3.org/1999/xlink" x="0px" y="0px"
	 viewBox="0 0 156 34.1" width="156" height="34.1" style="enable-background:new 0 0 156 34.1;" xml:space="preserve">
<style type="text/css">
	.st0{fill:#008498;}
	.st1{fill:#333333;}
	.st2{fill:#64666B;}
</style>
<g id="Layer_1_00000090264819228579003920000004226571045650535314_">
	<path class="st0" d="M13,3.2c0.8,0,1.4-0.6,1.4-1.4S13.8,0.5,13,0.5l0,0c-0.8,0-1.4,0.6-1.4,1.4S12.2,3.2,13,3.2L13,3.2z M5.8,7.9
		c1,0,1.8-0.8,1.8-1.8S6.8,4.3,5.8,4.3H5.7c-1,0-1.8,0.8-1.8,1.9S4.7,7.9,5.8,7.9z M1.8,14.3c0.8,0,1.4-0.6,1.4-1.4
		s-0.6-1.4-1.4-1.4s-1.4,0.6-1.4,1.4C0.4,13.7,1.1,14.3,1.8,14.3L1.8,14.3z M1.8,19.5c-1,0-1.8,0.8-1.8,1.8s0.8,1.8,1.8,1.8h0.1
		c1,0,1.8-0.8,1.8-1.9C3.7,20.2,2.8,19.4,1.8,19.5z M5.8,26.7c-0.8,0-1.4,0.6-1.4,1.4s0.6,1.4,1.4,1.4s1.4-0.6,1.4-1.4l0,0
		C7.2,27.3,6.6,26.7,5.8,26.7L5.8,26.7z M13.1,30.4c-1,0-1.8,0.8-1.8,1.8c0,1,0.8,1.8,1.9,1.8l0,0l0,0c1,0,1.8-0.8,1.8-1.8l0,0
		C14.9,31.2,14.1,30.4,13.1,30.4L13.1,30.4z M21,30.8c-0.8,0-1.4,0.6-1.4,1.4c0,0.8,0.6,1.4,1.4,1.4s1.4-0.6,1.4-1.4l0,0
		C22.3,31.5,21.7,30.9,21,30.8L21,30.8z M28.2,26.2c-1,0-1.8,0.8-1.8,1.8s0.8,1.8,1.8,1.8S30,29,30,28l0,0l0,0
		C30,27,29.2,26.2,28.2,26.2L28.2,26.2L28.2,26.2z M32.1,19.8c-0.8,0-1.4,0.6-1.4,1.4s0.6,1.4,1.4,1.4s1.4-0.6,1.4-1.4
		S32.9,19.8,32.1,19.8L32.1,19.8z M32.1,14.6c1-0.1,1.7-1,1.6-2c-0.1-0.8-0.7-1.5-1.5-1.6H32c-1,0-1.8,0.8-1.8,1.9
		S31.1,14.7,32.1,14.6L32.1,14.6L32.1,14.6z M28.1,7.4c0.8,0.1,1.4-0.5,1.5-1.2s-0.5-1.4-1.2-1.5c-0.1,0-0.1,0-0.2,0h-0.1
		c-0.8,0.1-1.3,0.7-1.3,1.5C26.9,6.8,27.4,7.3,28.1,7.4z M20.9,3.6c1,0,1.8-0.8,1.8-1.9l0,0c0-1-0.8-1.8-1.8-1.8l0,0
		c-1,0-1.8,0.8-1.8,1.9l0,0C19,2.9,19.9,3.7,20.9,3.6z M21,6.2c0,1.3,1,2.3,2.3,2.3s2.3-1,2.3-2.3s-1-2.3-2.3-2.3c0,0,0,0-0.1,0
		C22,3.9,21,4.9,21,6.2z M17,6.4c1,0,1.8-0.8,1.8-1.8S18,2.8,17,2.8s-1.8,0.8-1.8,1.8l0,0C15.2,5.6,16,6.5,17,6.4
		C17,6.5,17,6.5,17,6.4z M10.9,8.4c1.3,0,2.3-1,2.3-2.3s-1-2.3-2.3-2.3s-2.3,1-2.3,2.3C8.6,7.4,9.6,8.4,10.9,8.4L10.9,8.4z
		 M4.5,10.7c-0.1,1,0.7,1.9,1.7,2s1.9-0.7,2-1.7c0-0.1,0-0.2,0-0.3l0,0c0.1-1-0.7-1.9-1.7-2s-1.9,0.7-2,1.7
		C4.5,10.5,4.5,10.6,4.5,10.7z M4.5,14.7c-1.3,0-2.3,1-2.3,2.2c0,1.3,1,2.3,2.2,2.3s2.3-1,2.3-2.2c0,0,0,0,0-0.1
		C6.7,15.8,5.8,14.8,4.5,14.7L4.5,14.7z M6.3,21.2c-1,0-1.8,0.8-1.8,1.8s0.8,1.8,1.8,1.8l0,0c1,0,1.8-0.8,1.8-1.8
		C8.2,22,7.3,21.2,6.3,21.2z M13.1,27.6c0-1.3-1.1-2.3-2.3-2.2s-2.3,1.1-2.2,2.3s1.1,2.3,2.3,2.2C12.1,29.9,13.1,28.9,13.1,27.6
		L13.1,27.6z M17,27.6c-1,0-1.8,0.8-1.8,1.8s0.8,1.8,1.8,1.8s1.8-0.8,1.8-1.8l0,0C18.8,28.4,18,27.6,17,27.6L17,27.6z M23.3,25.4
		c-1.3,0-2.3,1-2.3,2.3s1,2.3,2.3,2.3s2.3-1,2.3-2.3l0,0C25.6,26.4,24.6,25.4,23.3,25.4L23.3,25.4L23.3,25.4z M27.8,25
		c1,0,1.8-0.8,1.8-1.8s-0.8-1.8-1.8-1.8l0,0l0,0c-1,0-1.8,0.8-1.8,1.8C25.9,24.2,26.8,25,27.8,25z M27.1,17c0,1.3,1,2.3,2.3,2.3
		s2.3-1,2.3-2.3l0,0l0,0c0-1.3-1-2.3-2.3-2.3S27.1,15.7,27.1,17z M27.8,12.5c1,0,1.8-0.8,1.8-1.8s-0.8-1.8-1.8-1.8S26,9.7,26,10.7
		l0,0C25.9,11.7,26.8,12.5,27.8,12.5L27.8,12.5L27.8,12.5z"/>
	<path class="st1" d="M46.6,11.6c-0.2,1.7,1.1,3.2,2.8,3.4c0.2,0,0.4,0,0.5,0c0.9,0,1.8-0.1,2.7-0.5l0.3,1.3c-1,0.4-2.1,0.6-3.2,0.6
		c-3,0-4.8-2-4.8-4.9s1.7-5.3,4.6-5.3c3.2,0,4,2.8,4,4.6c0,0.3,0,0.5-0.1,0.8L46.6,11.6z M51.8,10.3c0-1.1-0.5-2.9-2.5-2.9
		c-1.8,0-2.6,1.6-2.7,2.9H51.8z M55.5,14c0.9,0.6,2,0.9,3.1,0.9c1.8,0,2.8-1,2.8-2.3s-0.7-2-2.5-2.7c-2.2-0.8-3.6-1.9-3.6-3.8
		c0-2.1,1.7-3.7,4.4-3.7c1,0,2.1,0.2,3,0.7l-0.5,1.4c-0.8-0.4-1.7-0.6-2.6-0.6c-1.8,0-2.5,1.1-2.5,2c0,1.3,0.8,1.9,2.7,2.6
		c2.3,0.9,3.5,2,3.5,4s-1.5,3.9-4.7,3.9c-1.2,0-2.4-0.3-3.5-0.9L55.5,14z M72.6,15.8c-0.9,0.4-1.8,0.6-2.8,0.6
		c-2.5,0.1-4.7-1.8-4.8-4.4c0-0.2,0-0.4,0-0.6c-0.1-2.7,2-5,4.7-5.2c0.2,0,0.4,0,0.5,0c0.8,0,1.7,0.2,2.4,0.5L72.3,8
		c-0.6-0.3-1.3-0.5-2-0.5c-1.9-0.1-3.4,1.4-3.5,3.3c0,0.1,0,0.3,0,0.4c-0.2,1.8,1.2,3.5,3,3.6c0.1,0,0.2,0,0.4,0
		c0.7,0,1.5-0.2,2.2-0.5L72.6,15.8z M74.7,1.9h1.8V8l0,0c0.3-0.6,0.8-1,1.3-1.3s1.2-0.5,1.8-0.5c1.3,0,3.4,0.8,3.4,4.2v5.8h-1.8
		v-5.6c0-1.6-0.6-2.9-2.2-2.9c-1.1,0-2,0.7-2.4,1.8c-0.1,0.3-0.1,0.6-0.1,0.9v5.9h-1.8C74.7,16.3,74.7,1.9,74.7,1.9z M94.7,11.2
		c0,3.6-2.5,5.2-4.8,5.2c-2.6,0-4.7-1.9-4.7-5c0-3.2,2.1-5.2,4.8-5.2S94.7,8.2,94.7,11.2L94.7,11.2z M87,11.3c0,2.1,1.2,3.7,3,3.7
		s3-1.6,3-3.8c0-1.6-0.8-3.7-2.9-3.7S86.9,9.4,87,11.3L87,11.3z M96.9,1.9h1.8v14.3h-1.8V1.9z M107,16.1l-0.1-1.2h-0.1
		c-0.7,0.9-1.8,1.5-3,1.4c-1.5,0.1-2.9-1-3-2.5c0-0.1,0-0.2,0-0.3c0-2.3,2.1-3.6,5.8-3.6V9.8c0.1-1.1-0.6-2.1-1.7-2.2
		c-0.2,0-0.3,0-0.5,0c-0.9,0-1.8,0.3-2.5,0.7l-0.4-1.2c1-0.6,2.1-0.9,3.2-0.9c3,0,3.7,2,3.7,4v3.6c0,0.8,0,1.6,0.2,2.3H107z
		 M106.7,11.1c-1.9,0-4.1,0.3-4.1,2.2c-0.1,0.9,0.6,1.6,1.4,1.7c0.1,0,0.2,0,0.2,0c1.1,0,2-0.6,2.3-1.6c0.1-0.2,0.1-0.4,0.1-0.6
		L106.7,11.1L106.7,11.1z M111.3,9.4c0-1.1,0-2.1-0.1-3h1.5l0.1,1.9h0.1c0.3-1.2,1.4-2.1,2.7-2.1c0.2,0,0.3,0,0.5,0.1V8
		c-0.2,0-0.4-0.1-0.6-0.1c-1.2,0.1-2.3,1-2.4,2.3c-0.1,0.3-0.1,0.6-0.1,0.9v5.2h-1.7V9.4z M117.6,14.3c0.7,0.4,1.5,0.7,2.4,0.7
		c1.3,0,1.9-0.6,1.9-1.4s-0.5-1.3-1.8-1.8c-1.8-0.6-2.6-1.6-2.6-2.8c0-1.6,1.3-2.8,3.4-2.8c0.8,0,1.7,0.2,2.4,0.6l-0.4,1.3
		c-0.6-0.4-1.3-0.6-2-0.6c-1,0-1.6,0.6-1.6,1.3s0.5,1.2,1.8,1.7c1.7,0.6,2.6,1.5,2.6,2.9c0,1.7-1.3,2.9-3.6,2.9
		c-1,0-1.9-0.2-2.7-0.7L117.6,14.3z M125.8,1.8h1.8V8l0,0c0.3-0.5,0.7-1,1.3-1.2c0.6-0.3,1.2-0.5,1.8-0.5c1.3,0,3.4,0.8,3.4,4.2v5.8
		h-1.8v-5.6c0-1.6-0.6-2.9-2.2-2.9c-1.1,0-2,0.7-2.4,1.8c-0.1,0.3-0.1,0.6-0.1,0.9v5.9h-1.8V1.8L125.8,1.8z M138.9,3.7
		c-0.1,0.6-0.6,1-1.2,1c-0.5-0.1-0.9-0.5-1-1c0-0.6,0.4-1.1,1-1.1c0,0,0,0,0.1,0c0.6,0,1,0.4,1.1,0.9C138.9,3.5,138.9,3.6,138.9,3.7
		z M136.9,16.1V6.4h1.8v9.7H136.9z M141.6,9.6c0-1.2,0-2.2-0.1-3.2h1.6l0.1,1.7l0,0c0.7-1.2,2-1.9,3.4-1.9c2.4,0,4.1,2,4.1,4.9
		c0,3.5-2.1,5.2-4.4,5.2c-1.2,0.1-2.3-0.5-3-1.5l0,0v5.3h-1.8L141.6,9.6L141.6,9.6z M143.4,12.1c0,0.2,0,0.5,0.1,0.7
		c0.3,1.3,1.4,2.1,2.7,2.1c1.9,0,3-1.5,3-3.8c0-2-1-3.6-2.9-3.6c-1.3,0-2.4,0.9-2.7,2.2c-0.1,0.2-0.1,0.5-0.1,0.7L143.4,12.1
		L143.4,12.1z"/>
	<g>
		<path class="st2" d="M150.2,30.1c0.4,0.2,0.9,0.4,1.5,0.4c1.3,0,2-0.7,2-1.6c0-0.8-0.5-1.3-1.4-1.6c-0.7-0.3-1-0.5-1-0.9
			c0-0.4,0.3-0.7,0.9-0.7c0.5,0,0.9,0.2,1.1,0.3l0.2-0.7c-0.3-0.2-0.8-0.3-1.3-0.3c-1.1,0-1.8,0.7-1.8,1.6c0,0.6,0.5,1.2,1.4,1.5
			c0.7,0.3,1,0.5,1,1c0,0.4-0.3,0.8-1,0.8c-0.5,0-1-0.2-1.3-0.4L150.2,30.1z M145.9,30.1c0.4,0.2,0.9,0.4,1.5,0.4c1.3,0,2-0.7,2-1.6
			c0-0.8-0.5-1.3-1.4-1.6c-0.7-0.3-1-0.5-1-0.9c0-0.4,0.3-0.7,0.9-0.7c0.5,0,0.9,0.2,1.1,0.3l0.2-0.7c-0.3-0.2-0.8-0.3-1.3-0.3
			c-1.1,0-1.8,0.7-1.8,1.6c0,0.6,0.5,1.2,1.4,1.5c0.7,0.3,1,0.5,1,1c0,0.4-0.3,0.8-1,0.8c-0.5,0-1-0.2-1.3-0.4L145.9,30.1z
			 M141.3,27.2c0.1-0.7,0.5-1.6,1.5-1.6c1.1,0,1.4,1,1.3,1.6H141.3z M145,27.9c0-0.1,0-0.3,0-0.5c0-1-0.5-2.5-2.2-2.5
			c-1.6,0-2.5,1.3-2.5,2.9s1,2.7,2.6,2.7c0.8,0,1.4-0.2,1.8-0.3l-0.2-0.7c-0.4,0.2-0.8,0.3-1.5,0.3c-1,0-1.8-0.5-1.8-1.8H145z
			 M139.5,29.5c-0.3,0.1-0.6,0.3-1.2,0.3c-1.1,0-1.8-0.8-1.8-2c0-1.1,0.7-2,1.9-2c0.5,0,0.9,0.1,1.1,0.3l0.2-0.7
			c-0.3-0.1-0.8-0.3-1.3-0.3c-1.7,0-2.9,1.2-2.9,2.8c0,1.6,1,2.7,2.7,2.7c0.7,0,1.3-0.2,1.5-0.3L139.5,29.5z M134.6,29.5
			c-0.3,0.1-0.6,0.3-1.2,0.3c-1.1,0-1.8-0.8-1.8-2c0-1.1,0.7-2,1.9-2c0.5,0,0.9,0.1,1.1,0.3l0.2-0.7c-0.3-0.1-0.8-0.3-1.3-0.3
			c-1.7,0-2.9,1.2-2.9,2.8c0,1.6,1,2.7,2.7,2.7c0.7,0,1.3-0.2,1.5-0.3L134.6,29.5z M125.8,27.3l0.7-2.1c0.1-0.5,0.3-0.9,0.4-1.3h0
			c0.1,0.4,0.2,0.9,0.4,1.4l0.7,2.1H125.8z M128.3,28.1l0.8,2.3h1l-2.5-7.4h-1.2l-2.5,7.4h1l0.8-2.3H128.3z M116,30.4h1v-3.2
			c0-0.2,0-0.3,0.1-0.5c0.2-0.5,0.7-1,1.3-1c0.9,0,1.2,0.7,1.2,1.6v3.1h1v-3.2c0-1.8-1.1-2.3-1.9-2.3c-0.9,0-1.5,0.5-1.8,1h0
			l-0.1-0.9h-0.9c0,0.4,0,0.9,0,1.4V30.4z M111,27.2c0.1-0.7,0.5-1.6,1.5-1.6c1.1,0,1.4,1,1.3,1.6H111z M114.7,27.9
			c0-0.1,0-0.3,0-0.5c0-1-0.5-2.5-2.2-2.5c-1.6,0-2.5,1.3-2.5,2.9s1,2.7,2.6,2.7c0.8,0,1.4-0.2,1.8-0.3l-0.2-0.7
			c-0.4,0.2-0.8,0.3-1.5,0.3c-1,0-1.8-0.5-1.8-1.8H114.7z M105.1,27.3c0-0.1,0-0.3,0.1-0.4c0.2-0.7,0.8-1.2,1.5-1.2
			c1,0,1.6,0.9,1.6,2c0,1.2-0.6,2.1-1.6,2.1c-0.7,0-1.3-0.5-1.5-1.1c0-0.1,0-0.3,0-0.4V27.3z M104.2,32.6h1v-2.9h0
			c0.3,0.5,0.9,0.8,1.6,0.8c1.3,0,2.4-0.9,2.4-2.9c0-1.6-1-2.7-2.3-2.7c-0.9,0-1.5,0.4-1.9,1h0l0-0.9h-0.9c0,0.5,0,1.1,0,1.7V32.6z
			 M99.6,23.6c1.6,0,2.4,1.5,2.4,3c0,1.7-0.9,3.1-2.4,3.1c-1.5,0-2.4-1.4-2.4-3C97.2,25.1,98,23.6,99.6,23.6z M99.6,22.9
			c-2,0-3.4,1.5-3.4,3.9c0,2.2,1.4,3.8,3.3,3.8c1.9,0,3.4-1.4,3.4-3.9C103,24.4,101.7,22.9,99.6,22.9z M92.1,30.4v-4.6h1.3v-0.7
			h-1.3v-0.3c0-0.8,0.2-1.5,1-1.5c0.3,0,0.5,0.1,0.6,0.1l0.1-0.7c-0.2-0.1-0.5-0.2-0.8-0.2c-0.5,0-0.9,0.1-1.3,0.5
			c-0.5,0.4-0.6,1.1-0.6,1.9v0.3h-0.7v0.7h0.7v4.6H92.1z M87.3,25.7c1.1,0,1.6,1.1,1.6,2c0,1.2-0.7,2.1-1.6,2.1
			c-0.9,0-1.6-0.9-1.6-2C85.6,26.7,86.1,25.7,87.3,25.7z M87.3,25c-1.5,0-2.6,1-2.6,2.8c0,1.7,1.1,2.7,2.6,2.7
			c1.3,0,2.7-0.9,2.7-2.8C89.8,26.1,88.8,25,87.3,25z M78,30.1c0.4,0.2,0.9,0.4,1.5,0.4c1.3,0,2-0.7,2-1.6c0-0.8-0.5-1.3-1.4-1.6
			c-0.7-0.3-1-0.5-1-0.9c0-0.4,0.3-0.7,0.9-0.7c0.5,0,0.9,0.2,1.1,0.3l0.2-0.7C81,25.1,80.5,25,80,25c-1.1,0-1.8,0.7-1.8,1.6
			c0,0.6,0.5,1.2,1.4,1.5c0.7,0.3,1,0.5,1,1c0,0.4-0.3,0.8-1,0.8c-0.5,0-1-0.2-1.3-0.4L78,30.1z M74.7,30.4h1v-2.8
			c0-0.2,0-0.3,0-0.5c0.1-0.7,0.6-1.2,1.3-1.2c0.1,0,0.2,0,0.3,0V25c-0.1,0-0.2,0-0.3,0c-0.6,0-1.2,0.5-1.5,1.2h0l0-1h-0.8
			c0,0.5,0,1,0,1.7V30.4z M72.2,28.6c0,0.1,0,0.2-0.1,0.3c-0.2,0.5-0.6,0.9-1.3,0.9c-0.5,0-0.9-0.3-0.9-0.9c0-1,1.2-1.2,2.3-1.2
			V28.6z M73.3,30.4c-0.1-0.4-0.1-0.8-0.1-1.3v-2c0-1.1-0.4-2.2-2-2.2c-0.7,0-1.3,0.2-1.7,0.5l0.2,0.6c0.4-0.2,0.9-0.4,1.4-0.4
			c1.1,0,1.2,0.8,1.2,1.2V27c-2.1,0-3.2,0.7-3.2,2c0,0.8,0.5,1.5,1.6,1.5c0.8,0,1.3-0.4,1.6-0.8h0l0.1,0.7H73.3z M64.5,27.2
			c0.1-0.7,0.5-1.6,1.5-1.6c1.1,0,1.4,1,1.3,1.6H64.5z M68.2,27.9c0-0.1,0-0.3,0-0.5c0-1-0.5-2.5-2.2-2.5c-1.6,0-2.5,1.3-2.5,2.9
			s1,2.7,2.6,2.7c0.8,0,1.4-0.2,1.8-0.3l-0.2-0.7c-0.4,0.2-0.8,0.3-1.5,0.3c-1,0-1.8-0.5-1.8-1.8H68.2z M61.5,30.4v-3.2L64,23h-1.1
			l-1.1,2c-0.3,0.6-0.5,1-0.7,1.5h0c-0.2-0.5-0.5-1-0.7-1.5l-1-2h-1.1l2.3,4.3v3.1H61.5z M53.4,23.9c1,0,1.5,1.2,1.5,2.9
			c0,1.8-0.5,3-1.5,3c-0.9,0-1.5-1.1-1.5-2.9C51.9,24.9,52.5,23.9,53.4,23.9z M53.4,23.1c-1.5,0-2.5,1.3-2.5,3.7
			c0,2.4,1,3.7,2.4,3.7c1.6,0,2.5-1.3,2.5-3.8C55.8,24.5,54.9,23.1,53.4,23.1z M50,30.4v-0.8h-3.2v0l0.6-0.5
			c1.5-1.5,2.5-2.5,2.5-3.8c0-1-0.6-2.1-2.2-2.1c-0.8,0-1.5,0.3-2,0.7l0.3,0.7c0.3-0.3,0.9-0.6,1.5-0.6c1.1,0,1.4,0.7,1.4,1.4
			c0,1.1-0.8,2-2.7,3.7l-0.8,0.7v0.6H50z"/>
	</g>
</g>
<g id="Layer_2_00000049195355724765602990000006702336324731517074_">
</g>
</svg>
