<svg xmlns="http://www.w3.org/2000/svg" width="33.735" height="33.736" viewBox="0 0 33.735 33.736"><path fill="#FFF" d="M27.499 10.274a8.697 8.697 0 0 1-2.506.686 4.377 4.377 0 0 0 1.919-2.411 8.84 8.84 0 0 1-2.769 1.058 4.362 4.362 0 0 0-7.434 3.978 12.384 12.384 0 0 1-8.992-4.56 4.364 4.364 0 0 0 1.349 5.824 4.365 4.365 0 0 1-1.977-.544v.056a4.364 4.364 0 0 0 3.5 4.276 4.36 4.36 0 0 1-1.969.076 4.374 4.374 0 0 0 4.074 3.028 8.765 8.765 0 0 1-6.458 1.807 12.353 12.353 0 0 0 6.688 1.959c8.021 0 12.41-6.646 12.41-12.411 0-.189-.003-.38-.012-.565a8.849 8.849 0 0 0 2.177-2.257"/><path fill="#EAE9E9" d="M16.868.5c9.039 0 16.367 7.328 16.367 16.368 0 9.039-7.328 16.368-16.367 16.368C7.827 33.236.5 25.907.5 16.868.5 7.828 7.827.5 16.868.5m0-.5C7.566 0 0 7.567 0 16.868c0 9.302 7.566 16.868 16.868 16.868 9.301 0 16.867-7.566 16.867-16.868C33.735 7.567 26.169 0 16.868 0"/></svg>