<?xml version="1.0" encoding="utf-8"?>
<!-- Generator: Adobe Illustrator 26.2.1, SVG Export Plug-In . SVG Version: 6.00 Build 0)  -->
<svg version="1.1" id="Layer_1" xmlns="http://www.w3.org/2000/svg" xmlns:xlink="http://www.w3.org/1999/xlink" x="0px" y="0px"
	 viewBox="0 0 245.238 56.143" width="245.238" height="56.143" style="enable-background:new 0 0 245.2 56.1;" xml:space="preserve">
<style type="text/css">
	.st0{fill:#3594A6;}
	.st1{fill:#4F4C4C;}
	.st2{fill:#64666B;}
	.st3{enable-background:new    ;}
	.st4{fill:#7C7E7F;}
</style>
<g id="Layer_1_00000066496900755934164250000015731399091139429511_">
	<path class="st0" d="M21.3,5.3c1.3,0,2.3-1,2.3-2.3c0-1.3-1-2.3-2.3-2.3c-1.2,0-2.2,1-2.3,2.2C19.1,4.3,20.1,5.3,21.3,5.3L21.3,5.3
		L21.3,5.3 M9.4,13c1.7,0,3-1.3,3-3c0-1.7-1.3-3-3-3s-3,1.3-3,3c0,0,0,0,0,0.1C6.5,11.7,7.8,13,9.4,13 M2.9,23.6
		c1.3,0,2.3-1,2.3-2.3c0-1.3-1-2.3-2.3-2.3s-2.3,1-2.3,2.3c0,0,0,0,0,0C0.7,22.5,1.7,23.6,2.9,23.6C2.9,23.6,2.9,23.6,2.9,23.6
		 M2.9,32.1c-1.7,0-3,1.4-2.9,3c0,1.7,1.4,3,3,2.9h0c1.7,0,3-1.4,2.9-3C5.9,33.4,4.6,32,2.9,32.1 M9.5,44c-1.3,0-2.3,1-2.3,2.3
		c0,1.3,1,2.3,2.3,2.3s2.3-1,2.3-2.3C11.8,45,10.8,44,9.5,44L9.5,44 M21.5,50.2c-1.7,0-3,1.4-3,3c0,1.7,1.4,3,3,3l0,0
		c1.7,0,3-1.4,2.9-3.1C24.5,51.4,23.1,50.1,21.5,50.2 M34.5,50.8c-1.3,0-2.3,1-2.3,2.2c0,1.3,1,2.3,2.2,2.3h0.1c1.3,0,2.3-1,2.3-2.3
		S35.7,50.8,34.5,50.8 M46.4,43.2c-1.7,0-3,1.3-3,3c0,1.7,1.3,3,3,3h0.1c1.6,0,2.9-1.4,2.9-3l0,0C49.4,44.5,48,43.2,46.4,43.2
		L46.4,43.2 M52.9,32.7c-1.3,0-2.3,1-2.3,2.3c0,1.3,1,2.3,2.3,2.3c1.3,0,2.3-1,2.3-2.3C55.2,33.7,54.1,32.7,52.9,32.7L52.9,32.7
		 M52.9,24.1c1.7,0,3-1.3,3-3c0-1.7-1.3-3-3-3s-3,1.3-3,3c0,0,0,0,0,0.1C49.9,22.8,51.3,24.1,52.9,24.1 M46.3,12.1
		c1.3,0,2.3-1,2.3-2.3s-1-2.3-2.3-2.3c-1.3,0-2.3,1-2.3,2.3S45,12.1,46.3,12.1L46.3,12.1 M34.3,6c1.6,0,2.9-1.4,2.9-3l0,0
		c0-1.7-1.3-3-3-3c-1.7,0-3,1.3-3,3S32.6,6,34.3,6C34.3,6,34.3,6,34.3,6L34.3,6 M34.5,10.2c0,2.1,1.6,3.8,3.7,3.8
		c2.1,0,3.8-1.6,3.8-3.7c0,0,0-0.1,0-0.1c0-2.1-1.7-3.8-3.8-3.8C36.1,6.4,34.5,8.1,34.5,10.2 M27.9,10.6c1.7,0,3-1.3,3-3s-1.3-3-3-3
		s-3,1.3-3,3S26.2,10.6,27.9,10.6 M17.8,13.9c2.1,0,3.8-1.6,3.8-3.7S20,6.4,17.9,6.4h-0.1c-2.1,0-3.8,1.7-3.8,3.8
		S15.7,13.9,17.8,13.9L17.8,13.9 M7.3,17.6c0,1.7,1.3,3,3,3s3-1.3,3-3s-1.3-3-3-3l0,0C8.7,14.6,7.3,16,7.3,17.6 M7.4,24.3
		c-2.1,0-3.8,1.6-3.8,3.7s1.6,3.8,3.7,3.8h0.1c2.1,0,3.8-1.7,3.8-3.8S9.5,24.3,7.4,24.3 M10.4,35c-1.7,0-3,1.3-3,3c0,1.7,1.3,3,3,3
		s3-1.3,3-3C13.4,36.3,12,35,10.4,35L10.4,35 M21.5,45.5c0-2.1-1.7-3.8-3.8-3.8S14,43.4,14,45.5l0,0l0,0c0,2.1,1.7,3.8,3.8,3.8
		S21.5,47.6,21.5,45.5 M27.9,45.4c-1.7,0-3,1.3-3.1,2.9s1.3,3,2.9,3.1h0.2c1.7,0,3-1.3,3-3C30.9,46.7,29.5,45.4,27.9,45.4
		 M38.2,41.7c-2.1,0-3.8,1.7-3.8,3.8c0,2.1,1.7,3.8,3.8,3.8l0,0l0,0c2.1,0,3.8-1.7,3.8-3.8C42,43.4,40.3,41.7,38.2,41.7 M45.7,41.1
		c1.7,0,3-1.3,3-3l0,0c0-1.7-1.3-3-3-3c-1.7,0-3,1.3-3,3S44,41.1,45.7,41.1L45.7,41.1 M44.5,28c0,2.1,1.7,3.8,3.8,3.8S52,30.1,52,28
		s-1.7-3.8-3.8-3.8l0,0C46.2,24.2,44.5,25.9,44.5,28L44.5,28 M45.7,20.6c1.7,0,3-1.3,3-3s-1.3-3-3-3c-1.7,0-3,1.3-3,3
		S44,20.6,45.7,20.6"/>
	<path class="st1" d="M84.9,16.7c0-0.6-0.1-1.1-0.2-1.7c-0.1-0.5-0.4-0.9-0.7-1.3c-0.3-0.4-0.7-0.7-1.2-0.9
		c-0.6-0.2-1.1-0.4-1.7-0.3c-1.1-0.1-2.2,0.4-3,1.2c-0.7,0.9-1.2,1.9-1.4,3.1L84.9,16.7z M76.6,18.6c0,0.8,0.1,1.6,0.3,2.4
		c0.2,0.7,0.5,1.4,0.9,2c0.4,0.6,0.9,1.1,1.5,1.4c0.7,0.4,1.5,0.5,2.3,0.5c0.5,0,1-0.1,1.5-0.2c0.4-0.1,0.8-0.2,1.2-0.4
		c0.3-0.1,0.7-0.3,1-0.5l0.7-0.4l1,1.9l-0.8,0.5c-0.4,0.2-0.8,0.4-1.2,0.5c-0.5,0.2-1,0.3-1.6,0.4c-0.7,0.1-1.3,0.2-2,0.2
		c-1.1,0-2.3-0.2-3.3-0.7c-0.9-0.4-1.7-1-2.3-1.8c-0.6-0.8-1.1-1.7-1.4-2.7c-0.3-1.1-0.5-2.2-0.5-3.3c0-1.1,0.2-2.2,0.5-3.3
		c0.3-1,0.8-1.8,1.5-2.6c0.6-0.7,1.4-1.3,2.2-1.7c0.9-0.4,1.9-0.6,2.9-0.6c1,0,1.9,0.2,2.8,0.6c0.8,0.4,1.5,1,2,1.7
		c0.6,0.8,0.9,1.7,1.1,2.6c0.2,1.1,0.3,2.2,0.2,3.4H76.6 M103.8,21.1c0,0.8-0.2,1.6-0.5,2.4c-0.3,0.7-0.8,1.4-1.5,1.9
		c-0.7,0.6-1.4,1-2.3,1.2c-1.7,0.5-3.5,0.6-5.2,0.2c-0.6-0.1-1.2-0.4-1.8-0.6c-0.5-0.2-0.9-0.5-1.3-0.7c-0.3-0.2-0.6-0.4-0.8-0.7
		l1.3-1.8l0.6,0.5c0.3,0.3,0.6,0.5,1,0.6c0.5,0.2,1,0.4,1.5,0.6c0.7,0.2,1.3,0.3,2,0.2c0.6,0,1.3-0.1,1.8-0.3c0.5-0.2,1-0.5,1.4-0.8
		c0.4-0.3,0.7-0.7,0.9-1.2c0.2-0.4,0.3-0.9,0.3-1.4c0-0.6-0.1-1.2-0.4-1.7c-0.3-0.5-0.7-1-1.2-1.3c-0.5-0.4-1.1-0.7-1.6-1
		c-0.6-0.3-1.2-0.6-1.9-0.9c-0.6-0.3-1.3-0.6-1.9-1c-0.6-0.3-1.2-0.8-1.6-1.3c-0.5-0.5-0.9-1.1-1.1-1.8c-0.3-0.7-0.5-1.5-0.4-2.2
		c0-0.8,0.2-1.6,0.5-2.4c0.4-0.7,0.9-1.3,1.5-1.8c0.6-0.5,1.3-0.9,2-1.1c0.8-0.2,1.6-0.4,2.4-0.4c0.7,0,1.5,0.1,2.2,0.2
		c0.6,0.1,1.1,0.3,1.7,0.5c0.4,0.2,0.8,0.3,1.2,0.6c0.3,0.2,0.6,0.4,0.7,0.5L102,7.9c-0.5-0.4-1.1-0.7-1.7-1
		c-0.9-0.4-1.9-0.6-2.9-0.5c-1,0-2,0.3-2.7,0.9c-0.7,0.6-1.1,1.5-1.1,2.4c0,0.5,0.1,1,0.3,1.4c0.2,0.4,0.5,0.8,0.8,1.1
		c0.4,0.3,0.8,0.6,1.2,0.9c0.5,0.3,1,0.5,1.5,0.8c0.7,0.4,1.5,0.7,2.2,1.1c0.7,0.4,1.4,0.8,2,1.4c0.6,0.6,1.1,1.2,1.5,1.9
		C103.6,19.2,103.8,20.1,103.8,21.1 M118.9,25.4c-0.2,0.2-0.4,0.3-0.7,0.5c-0.3,0.2-0.7,0.4-1,0.5c-0.5,0.2-0.9,0.3-1.4,0.4
		c-0.6,0.1-1.2,0.2-1.9,0.2c-1.1,0-2.1-0.2-3.1-0.7c-0.9-0.4-1.7-1.1-2.3-1.8c-0.6-0.8-1.1-1.7-1.4-2.7c-0.3-1-0.5-2.1-0.5-3.1
		c0-1.2,0.2-2.5,0.6-3.6c0.4-1,0.9-1.8,1.6-2.6c0.7-0.7,1.4-1.2,2.3-1.6c1.9-0.7,4-0.7,5.9,0c0.6,0.3,1.2,0.6,1.7,1l-1.2,1.8
		c-0.5-0.3-1-0.6-1.5-0.9c-0.7-0.3-1.5-0.4-2.3-0.4c-0.7,0-1.5,0.1-2.1,0.5c-0.6,0.3-1.1,0.8-1.5,1.3c-0.4,0.6-0.7,1.3-0.8,2
		c-0.4,1.6-0.4,3.2,0,4.8c0.2,0.7,0.5,1.4,0.9,2c0.8,1.2,2.2,1.9,3.6,1.9c0.5,0,0.9,0,1.4-0.1c0.4-0.1,0.8-0.2,1.1-0.4
		c0.3-0.1,0.6-0.3,0.8-0.4c0.2-0.1,0.4-0.3,0.5-0.4L118.9,25.4 M132.4,26.6V15.7c0-0.8-0.2-1.7-0.6-2.4c-0.5-0.6-1.4-1-2.2-0.9
		c-0.6,0-1.2,0.1-1.7,0.4c-0.5,0.2-1,0.5-1.4,0.9c-0.4,0.3-0.7,0.6-1,1l-0.5,0.6v11.2h-2.4V2.8h2.4V13c0.2-0.2,0.4-0.5,0.7-0.8
		c0.3-0.3,0.7-0.6,1.1-0.9c0.5-0.3,1-0.5,1.5-0.7c0.6-0.2,1.2-0.3,1.9-0.3c0.7,0,1.5,0.1,2.1,0.4c0.6,0.2,1,0.6,1.4,1.1
		c0.4,0.5,0.7,1,0.8,1.6c0.2,0.6,0.3,1.3,0.3,1.9v11.3L132.4,26.6 M151,18.7c0-0.8-0.1-1.6-0.3-2.4c-0.2-0.7-0.5-1.4-1-2
		c-0.4-0.6-1-1-1.6-1.4c-0.7-0.3-1.4-0.5-2.2-0.5c-0.7,0-1.5,0.2-2.1,0.5c-0.6,0.3-1.1,0.8-1.4,1.3c-0.4,0.6-0.7,1.3-0.8,2
		c-0.2,0.8-0.3,1.6-0.3,2.4c0,0.8,0.1,1.6,0.3,2.4c0.2,0.7,0.5,1.4,0.9,2c0.4,0.6,0.9,1,1.5,1.3c0.7,0.3,1.4,0.5,2.1,0.5
		c0.8,0,1.5-0.2,2.2-0.5c0.6-0.3,1.1-0.8,1.5-1.3c0.4-0.6,0.7-1.3,0.9-2C150.9,20.3,151,19.5,151,18.7L151,18.7z M153.6,18.6
		c0,1-0.1,1.9-0.4,2.9c-0.3,1-0.7,1.9-1.3,2.7c-0.6,0.8-1.4,1.5-2.3,2c-1.1,0.6-2.2,0.8-3.4,0.8c-2.2,0.1-4.4-0.9-5.7-2.8
		c-0.6-0.8-1-1.7-1.3-2.7c-0.3-0.9-0.4-1.9-0.4-2.9c0-1,0.1-1.9,0.4-2.9c0.2-1,0.7-1.9,1.2-2.7c0.6-0.8,1.4-1.5,2.2-2
		c1-0.6,2.2-0.8,3.4-0.8c2.3-0.1,4.4,1,5.8,2.8c0.6,0.8,1.1,1.7,1.3,2.7C153.4,16.7,153.6,17.6,153.6,18.6 M157.7,26.6h2.4V2.8h-2.4
		V26.6z M173.4,19h-0.7c-0.8,0-1.6,0.1-2.4,0.2c-0.6,0.1-1.3,0.3-1.8,0.6c-0.5,0.3-0.9,0.7-1.2,1.2c-0.3,0.5-0.5,1.1-0.4,1.7
		c0,0.4,0.1,0.7,0.2,1.1c0.1,0.3,0.3,0.5,0.6,0.7c0.2,0.2,0.5,0.3,0.8,0.4c0.3,0.1,0.5,0.1,0.8,0.1c0.8,0,1.7-0.2,2.4-0.6
		c0.7-0.4,1.3-1,1.8-1.6L173.4,19L173.4,19z M173.8,26.5c0-0.2-0.1-0.5-0.1-0.9c0-0.4-0.1-0.6-0.1-1c-0.5,0.7-1.2,1.2-2,1.6
		c-0.8,0.4-1.8,0.7-2.7,0.7c-1.2,0-2.4-0.4-3.3-1.2c-0.9-0.8-1.3-1.9-1.3-3.1c0-0.9,0.2-1.9,0.8-2.6c0.5-0.7,1.2-1.3,2-1.7
		c0.9-0.4,1.8-0.7,2.7-0.9c1-0.2,1.9-0.3,2.9-0.3h0.7v-1.4c0.1-0.9-0.2-1.8-0.8-2.5c-0.7-0.6-1.5-0.8-2.4-0.8
		c-0.7,0-1.4,0.1-2.1,0.4c-0.8,0.3-1.5,0.8-2,1.3l-1.3-1.7c1.5-1.5,3.5-2.3,5.6-2.2c1.4-0.1,2.9,0.4,4,1.3c1,1.1,1.5,2.5,1.4,4V23
		c0,0.7,0,1.4,0.1,2.1c0,0.5,0.1,1,0.3,1.5L173.8,26.5 M188.9,13c-0.1-0.1-0.3-0.1-0.4-0.2c-0.3-0.1-0.6-0.1-0.9-0.1
		c-0.6,0-1.1,0.1-1.6,0.4c-0.4,0.3-0.8,0.6-1.2,1c-0.3,0.3-0.6,0.7-0.8,1.1c-0.1,0.2-0.2,0.5-0.4,0.7v10.6h-2.4V10.7h2.4v2.5
		c0.2-0.3,0.4-0.6,0.6-0.9c0.3-0.3,0.6-0.7,0.9-0.9c0.4-0.3,0.8-0.6,1.2-0.7c0.5-0.2,1-0.3,1.5-0.3c0.4,0,0.7,0,1.1,0.1l0.5,0.2
		L188.9,13 M201.8,22.3c0.1,1.3-0.5,2.6-1.5,3.4c-1.2,0.9-2.6,1.3-4.1,1.2c-1,0-2-0.1-3-0.5c-0.7-0.3-1.4-0.6-2-1l1.1-1.8
		c0.5,0.3,1,0.6,1.5,0.8c0.8,0.3,1.6,0.5,2.5,0.5c0.8,0,1.7-0.2,2.4-0.6c0.6-0.4,0.9-1,0.9-1.7c0-0.7-0.3-1.3-0.9-1.7
		c-0.8-0.5-1.7-1-2.6-1.4c-0.6-0.2-1.2-0.5-1.7-0.8c-0.5-0.3-1-0.6-1.4-1c-0.4-0.4-0.7-0.8-0.9-1.3c-0.2-0.6-0.3-1.2-0.3-1.8
		c0-1.2,0.5-2.3,1.3-3.1c1-0.9,2.4-1.3,3.7-1.3c0.6,0,1.2,0.1,1.8,0.2c0.5,0.1,0.9,0.2,1.4,0.4c0.6,0.2,1.1,0.5,1.6,0.9l-1.2,1.7
		c-0.4-0.3-0.9-0.5-1.3-0.8c-0.7-0.3-1.5-0.5-2.2-0.4c-0.7-0.1-1.4,0.2-2,0.6c-0.5,0.4-0.7,1-0.7,1.6c0,0.7,0.3,1.3,0.9,1.7
		c0.7,0.5,1.5,0.8,2.2,1.2c0.7,0.3,1.3,0.5,1.8,0.8c0.6,0.3,1.1,0.6,1.6,1c0.4,0.4,0.8,0.8,1.1,1.3
		C201.8,21.1,201.9,21.7,201.8,22.3 M215.8,26.6V15.7c0-0.8-0.2-1.7-0.6-2.4c-0.5-0.6-1.4-1-2.2-0.9c-0.6,0-1.2,0.1-1.7,0.4
		c-0.5,0.2-1,0.5-1.4,0.9c-0.4,0.3-0.7,0.6-1,1l-0.5,0.6v11.2H206V2.8h2.4V13c0.2-0.2,0.4-0.5,0.7-0.8c0.3-0.3,0.7-0.6,1.1-0.9
		c0.5-0.3,1-0.5,1.5-0.7c0.6-0.2,1.2-0.3,1.9-0.3c0.7,0,1.5,0.1,2.1,0.4c0.6,0.2,1,0.6,1.4,1.1c0.4,0.5,0.7,1,0.8,1.6
		c0.2,0.6,0.3,1.3,0.3,1.9v11.3L215.8,26.6 M223.7,26.6V10.7h2.4v15.9H223.7z M224.9,4.2c1,0,1.8,0.8,1.8,1.7c0,0,0,0,0,0.1
		c0.1,1-0.7,1.8-1.7,1.9c-1,0.1-1.8-0.7-1.9-1.7c0-0.1,0-0.2,0-0.3C223.1,5,223.9,4.2,224.9,4.2C224.9,4.2,224.9,4.2,224.9,4.2
		 M242.7,18.7c0-0.8-0.1-1.7-0.3-2.5c-0.1-0.7-0.4-1.4-0.8-2c-0.4-0.5-0.8-0.9-1.4-1.2c-0.6-0.3-1.3-0.5-2-0.5c-0.5,0-1,0.1-1.5,0.3
		c-0.4,0.2-0.8,0.4-1.2,0.6c-0.3,0.2-0.6,0.5-0.9,0.7c-0.2,0.2-0.4,0.4-0.5,0.6v8.7c0.4,0.4,0.9,0.7,1.4,1c0.7,0.4,1.6,0.5,2.4,0.5
		c1.4,0.1,2.7-0.6,3.5-1.8c0.4-0.6,0.7-1.3,0.9-2C242.5,20.4,242.6,19.6,242.7,18.7L242.7,18.7z M245.2,18.6c0,1.2-0.2,2.3-0.5,3.4
		c-0.3,1-0.8,1.9-1.5,2.6c-0.6,0.7-1.4,1.3-2.2,1.7c-0.9,0.4-1.9,0.6-2.8,0.6c-0.9,0-1.8-0.1-2.6-0.5c-0.5-0.2-1-0.5-1.4-0.9v8.2
		h-2.4V10.7h2.4v1.7c0.5-0.6,1.1-1.1,1.8-1.4c0.9-0.5,1.8-0.7,2.8-0.7c1.8-0.1,3.6,0.7,4.7,2.2C244.7,14.3,245.4,16.4,245.2,18.6"/>
	<path class="st2" d="M84.4,47.2c0.1,1.3-0.3,2.5-1.1,3.5c-0.9,0.9-2.2,1.4-3.4,1.3c-0.7,0-1.4-0.1-2.1-0.3c-0.6-0.2-1-0.6-1.4-1
		c-0.4-0.4-0.7-0.9-0.8-1.5c-0.2-0.6-0.3-1.3-0.3-1.9v-7.4h1.4v7.3c-0.1,1,0.2,2,0.8,2.8c0.7,0.6,1.6,1,2.5,0.9
		c0.9,0.1,1.8-0.3,2.4-1c0.5-0.7,0.8-1.6,0.8-2.5v-7.5h1.3V47.2 M92.6,51.7v-5.9c0-0.5-0.1-0.9-0.3-1.3C92,44.2,91.5,44,91.1,44
		c-0.5,0-1,0.2-1.4,0.5c-0.4,0.3-0.8,0.7-1.1,1.1v6.1h-1.3v-8.6h1.3v1.2c0.3-0.5,0.8-0.8,1.3-1.1c0.5-0.2,1-0.4,1.5-0.4
		c0.4,0,0.8,0.1,1.2,0.2c0.3,0.1,0.6,0.3,0.8,0.6c0.2,0.2,0.4,0.5,0.4,0.8c0.1,0.3,0.1,0.7,0.1,1v6.1L92.6,51.7 M96.9,51.7v-8.6h1.3
		v8.6L96.9,51.7z M97.5,39.5c0.5,0,0.9,0.4,0.9,1s-0.4,0.9-1,0.9c-0.5,0-0.9-0.4-0.9-1c0-0.2,0.1-0.5,0.3-0.7
		C97,39.6,97.3,39.5,97.5,39.5 M104,50l2.4-6.9h1.3l-3.2,8.6h-1.2l-3.3-8.6h1.4L104,50L104,50 M114.7,46.3c0-0.3-0.1-0.6-0.1-0.9
		c-0.1-0.3-0.2-0.5-0.4-0.7c-0.2-0.2-0.4-0.4-0.6-0.5c-0.3-0.1-0.6-0.2-0.9-0.2c-0.6,0-1.2,0.2-1.6,0.6c-0.4,0.5-0.7,1.1-0.7,1.7
		L114.7,46.3z M110.2,47.3c0,0.4,0.1,0.9,0.2,1.3c0.1,0.4,0.3,0.8,0.5,1.1c0.2,0.3,0.5,0.6,0.8,0.7c0.4,0.2,0.8,0.3,1.2,0.3
		c0.3,0,0.6,0,0.8-0.1c0.2-0.1,0.5-0.1,0.7-0.2c0.2-0.1,0.4-0.2,0.5-0.2l0.4-0.2l0.5,1l-0.4,0.3c-0.2,0.1-0.4,0.2-0.6,0.3
		c-0.3,0.1-0.6,0.2-0.8,0.2c-0.4,0.1-0.7,0.1-1.1,0.1c-0.6,0-1.2-0.1-1.8-0.4c-0.5-0.2-0.9-0.6-1.3-1c-0.3-0.4-0.6-0.9-0.8-1.4
		c-0.2-0.6-0.3-1.2-0.2-1.8c0-0.6,0.1-1.2,0.3-1.8c0.2-0.5,0.4-1,0.8-1.4c0.7-0.8,1.7-1.3,2.8-1.3c0.5,0,1.1,0.1,1.5,0.3
		c0.4,0.2,0.8,0.5,1.1,0.9c0.3,0.4,0.5,0.9,0.6,1.4c0.1,0.6,0.2,1.2,0.1,1.8L110.2,47.3 M122.5,44.3l-0.2-0.1c-0.2,0-0.3-0.1-0.5,0
		c-0.3,0-0.6,0.1-0.9,0.2c-0.2,0.1-0.5,0.3-0.7,0.5c-0.3,0.3-0.5,0.6-0.6,1v5.8h-1.3v-8.6h1.3v1.3c0.1-0.2,0.2-0.3,0.3-0.5
		c0.1-0.2,0.3-0.4,0.5-0.5c0.2-0.2,0.4-0.3,0.6-0.4c0.3-0.1,0.5-0.2,0.8-0.2c0.2,0,0.4,0,0.6,0.1l0.3,0.1L122.5,44.3 M129.6,49.4
		c0,0.7-0.3,1.4-0.8,1.9c-0.6,0.5-1.4,0.7-2.2,0.7c-0.6,0-1.1-0.1-1.6-0.3c-0.4-0.1-0.8-0.3-1.1-0.5l0.6-1c0.3,0.2,0.5,0.3,0.8,0.4
		c0.4,0.2,0.9,0.3,1.3,0.3c0.4,0,0.9-0.1,1.3-0.3c0.3-0.2,0.5-0.5,0.5-0.9c0-0.4-0.2-0.7-0.5-0.9c-0.5-0.3-0.9-0.5-1.4-0.7
		c-0.3-0.1-0.6-0.3-0.9-0.4c-0.3-0.1-0.5-0.3-0.7-0.5c-0.2-0.2-0.4-0.4-0.5-0.7c-0.1-0.3-0.2-0.7-0.2-1c0-0.6,0.2-1.3,0.7-1.7
		c0.6-0.5,1.3-0.7,2-0.7c0.3,0,0.7,0,1,0.1c0.3,0.1,0.5,0.1,0.7,0.2c0.3,0.1,0.6,0.3,0.8,0.5l-0.6,1c-0.2-0.2-0.5-0.3-0.7-0.4
		c-0.4-0.2-0.8-0.3-1.3-0.3c-0.4,0-0.8,0.1-1.1,0.3c-0.3,0.2-0.4,0.5-0.4,0.9c0,0.4,0.2,0.7,0.5,0.9c0.4,0.2,0.8,0.5,1.2,0.6
		c0.3,0.1,0.7,0.3,1,0.5c0.3,0.2,0.6,0.3,0.8,0.5c0.2,0.2,0.4,0.4,0.6,0.7C129.5,48.7,129.6,49.1,129.6,49.4 M132,51.7v-8.6h1.3v8.6
		L132,51.7z M132.7,39.5c0.5,0,0.9,0.4,0.9,1c0,0.5-0.4,0.9-1,0.9c-0.5,0-0.9-0.4-0.9-1c0-0.2,0.1-0.5,0.3-0.7
		C132.2,39.6,132.4,39.5,132.7,39.5 M140.7,51.4c-0.2,0.1-0.4,0.2-0.7,0.3c-0.4,0.1-0.8,0.2-1.2,0.2c-0.6,0-1.2-0.2-1.6-0.6
		c-0.4-0.5-0.6-1.1-0.5-1.7v-5.5h-1.4v-1h1.4v-2.5h1.2v2.5h2.2v1H138v5.4c0,0.3,0,0.7,0.2,1c0.2,0.2,0.5,0.3,0.8,0.3
		c0.3,0,0.5,0,0.7-0.1c0.2-0.1,0.3-0.1,0.4-0.2L140.7,51.4 M145.8,52.9c-0.1,0.4-0.3,0.8-0.5,1.1c-0.2,0.4-0.4,0.7-0.7,1
		c-0.3,0.3-0.6,0.5-1,0.7c-0.4,0.2-0.9,0.3-1.3,0.2c-0.2,0-0.3,0-0.5,0l-0.3-0.1l0.2-1.1h0.2h0.4c0.5,0,1-0.1,1.4-0.5
		c0.4-0.4,0.6-0.9,0.8-1.5l0.4-1.1l-3.2-8.6h1.5l2.5,6.9l0,0l2.4-6.9h1.4L145.8,52.9 M161.1,47.5c0-0.4-0.1-0.9-0.2-1.3
		c-0.1-0.4-0.2-0.8-0.5-1.1c-0.2-0.3-0.5-0.6-0.8-0.7c-0.4-0.2-0.8-0.3-1.2-0.3c-0.4,0-0.8,0.1-1.1,0.3c-0.3,0.2-0.6,0.4-0.8,0.7
		c-0.2,0.3-0.4,0.7-0.4,1.1c-0.1,0.4-0.1,0.9-0.1,1.3c0,0.4,0,0.9,0.1,1.3c0.1,0.4,0.3,0.8,0.5,1.1c0.4,0.7,1.2,1,2,1
		c0.4,0,0.8-0.1,1.2-0.3c0.3-0.2,0.6-0.4,0.8-0.7c0.2-0.3,0.4-0.7,0.5-1.1C161.2,48.3,161.2,47.8,161.1,47.5L161.1,47.5z
		 M162.5,47.5c0,0.5-0.1,1.1-0.2,1.6c-0.1,0.5-0.4,1-0.7,1.5c-0.3,0.5-0.8,0.8-1.3,1.1c-1.7,0.9-3.8,0.5-4.9-1.1
		c-0.3-0.4-0.6-0.9-0.7-1.5c-0.1-0.5-0.2-1-0.2-1.5c0-0.5,0.1-1.1,0.2-1.6c0.1-0.5,0.4-1,0.7-1.5c0.3-0.4,0.7-0.8,1.2-1.1
		c0.6-0.3,1.2-0.5,1.8-0.4c0.7,0,1.3,0.1,1.9,0.4c0.5,0.3,0.9,0.6,1.3,1.1c0.3,0.4,0.6,0.9,0.7,1.4
		C162.5,46.4,162.5,46.9,162.5,47.5 M169.3,40l-0.3-0.2c-0.2-0.1-0.5-0.1-0.8-0.1c-0.5,0-1,0.2-1.3,0.6c-0.3,0.5-0.5,1-0.5,1.6v1.2
		h2.2v1h-2.2v7.6h-1.3v-7.5h-1.4v-1h1.4v-1.3c0-0.9,0.2-1.7,0.8-2.4c0.6-0.6,1.5-0.9,2.3-0.9c0.3,0,0.7,0,1,0.1
		c0.2,0,0.3,0.1,0.5,0.1L169.3,40 M183.4,50.7c-0.4,0.4-0.9,0.6-1.4,0.8c-0.7,0.3-1.4,0.4-2.2,0.4c-0.9,0-1.7-0.2-2.5-0.5
		c-0.7-0.3-1.3-0.8-1.9-1.4c-0.5-0.6-0.9-1.3-1.1-2c-0.3-0.7-0.4-1.5-0.4-2.3c0-0.8,0.1-1.6,0.4-2.3c0.2-0.7,0.6-1.4,1.1-2
		c0.5-0.6,1.1-1,1.8-1.3c0.8-0.4,1.6-0.5,2.5-0.5c0.6,0,1.3,0.1,1.9,0.2c0.5,0.2,1,0.4,1.4,0.7l-0.7,1.1c-0.4-0.2-0.8-0.4-1.2-0.6
		c-0.5-0.2-1-0.2-1.5-0.2c-0.7,0-1.3,0.1-1.9,0.4c-0.5,0.3-1,0.6-1.3,1.1c-0.4,0.5-0.6,1-0.8,1.6c-0.2,0.6-0.3,1.2-0.3,1.9
		c0,0.6,0.1,1.3,0.3,1.9c0.2,0.6,0.4,1.1,0.8,1.6c0.4,0.5,0.8,0.9,1.4,1.1c0.6,0.3,1.3,0.4,1.9,0.4c0.6,0,1.1-0.1,1.7-0.3
		c0.5-0.2,0.9-0.4,1.2-0.7L183.4,50.7 M189.8,47.6h-0.4c-0.4,0-0.9,0-1.3,0.1c-0.3,0.1-0.7,0.2-1,0.3c-0.3,0.1-0.5,0.4-0.7,0.6
		c-0.2,0.3-0.2,0.6-0.2,0.9c0,0.2,0,0.4,0.1,0.6c0.1,0.1,0.2,0.3,0.3,0.4c0.1,0.1,0.3,0.2,0.4,0.2c0.1,0,0.3,0.1,0.4,0.1
		c0.5,0,0.9-0.1,1.3-0.3c0.4-0.2,0.7-0.5,1-0.9L189.8,47.6z M190,51.7c0-0.2,0-0.3-0.1-0.5l-0.1-0.5c-0.3,0.4-0.7,0.7-1.1,0.9
		c-0.5,0.2-1,0.4-1.5,0.4c-0.6,0-1.3-0.2-1.8-0.6c-0.5-0.4-0.7-1.1-0.7-1.7c0-0.5,0.1-1,0.4-1.4c0.3-0.4,0.7-0.7,1.1-0.9
		c0.5-0.2,1-0.4,1.5-0.5c0.5-0.1,1.1-0.1,1.6-0.1h0.4v-0.8c0-0.5-0.1-1-0.4-1.4c-0.4-0.3-0.8-0.5-1.3-0.4c-0.4,0-0.8,0.1-1.1,0.2
		c-0.4,0.2-0.8,0.4-1.1,0.7l-0.7-0.9c0.8-0.8,1.9-1.2,3-1.2c0.8-0.1,1.6,0.2,2.2,0.7c0.6,0.6,0.8,1.4,0.8,2.2v4c0,0.4,0,0.8,0.1,1.1
		c0,0.3,0.1,0.5,0.1,0.8L190,51.7 M194,51.6h1.3V38.8H194V51.6z M198.4,51.6v-8.6h1.3v8.6L198.4,51.6z M199.1,39.5
		c0.5,0,0.9,0.4,0.9,1c0,0.5-0.4,0.9-1,0.9c-0.5,0-0.9-0.4-0.9-1c0-0.2,0.1-0.5,0.3-0.7C198.6,39.6,198.8,39.5,199.1,39.5
		 M207.3,39.9l-0.3-0.1c-0.2-0.1-0.5-0.1-0.7-0.1c-0.5,0-1,0.2-1.3,0.6c-0.3,0.5-0.5,1-0.5,1.6v1.2h2.2v1h-2.2v7.6h-1.3v-7.5h-1.4
		v-1h1.4v-1.3c0-0.9,0.3-1.7,0.8-2.4c0.6-0.6,1.5-0.9,2.3-0.9c0.3,0,0.7,0,1,0.1c0.2,0,0.3,0.1,0.5,0.1L207.3,39.9 M214.3,47.4
		c0-0.4-0.1-0.9-0.2-1.3c-0.1-0.4-0.3-0.8-0.5-1.1c-0.2-0.3-0.5-0.6-0.9-0.7c-0.4-0.2-0.8-0.3-1.2-0.3c-0.4,0-0.8,0.1-1.1,0.3
		c-0.3,0.2-0.6,0.4-0.8,0.7c-0.2,0.3-0.4,0.7-0.4,1.1c-0.1,0.4-0.1,0.9-0.1,1.3c0,0.4,0,0.9,0.1,1.3c0.1,0.4,0.3,0.8,0.5,1.1
		c0.4,0.7,1.2,1,2,1c0.4,0,0.8-0.1,1.2-0.3c0.3-0.2,0.6-0.4,0.8-0.7c0.2-0.3,0.4-0.7,0.5-1.1C214.3,48.3,214.4,47.9,214.3,47.4
		L214.3,47.4z M215.7,47.4c0,0.5-0.1,1.1-0.2,1.6c-0.1,0.5-0.4,1-0.7,1.5c-0.3,0.5-0.8,0.8-1.3,1.1c-1.7,0.9-3.8,0.5-4.9-1.1
		c-0.3-0.4-0.6-0.9-0.7-1.5c-0.1-0.5-0.2-1-0.2-1.5c0-0.5,0.1-1.1,0.2-1.6c0.1-0.5,0.4-1,0.7-1.5c0.3-0.4,0.7-0.8,1.2-1.1
		c0.6-0.3,1.2-0.5,1.8-0.4c0.6,0,1.3,0.1,1.9,0.4c0.5,0.3,0.9,0.6,1.3,1.1c0.3,0.4,0.6,0.9,0.7,1.4
		C215.6,46.4,215.7,46.9,215.7,47.4 M222.1,44.3l-0.2-0.1c-0.2,0-0.3-0.1-0.5,0c-0.3,0-0.6,0.1-0.9,0.2c-0.2,0.1-0.5,0.3-0.6,0.5
		c-0.2,0.2-0.3,0.4-0.4,0.6c-0.1,0.1-0.1,0.3-0.2,0.4v5.8h-1.3v-8.6h1.3v1.3c0.1-0.2,0.2-0.3,0.3-0.5c0.1-0.2,0.3-0.4,0.5-0.5
		c0.2-0.2,0.4-0.3,0.7-0.4c0.3-0.1,0.5-0.2,0.8-0.2c0.2,0,0.4,0,0.6,0.1l0.3,0.1L222.1,44.3 M229.4,51.7v-5.9c0-0.5-0.1-0.9-0.3-1.3
		c-0.3-0.3-0.7-0.5-1.2-0.5c-0.5,0-1,0.2-1.4,0.5c-0.4,0.3-0.8,0.7-1.1,1.1v6.1h-1.3v-8.6h1.3v1.2c0.3-0.5,0.8-0.8,1.3-1.1
		c0.5-0.2,1-0.4,1.5-0.4c0.4,0,0.8,0.1,1.2,0.2c0.3,0.1,0.6,0.3,0.8,0.6c0.2,0.2,0.4,0.5,0.4,0.8c0.1,0.3,0.1,0.7,0.1,1v6.1
		L229.4,51.7 M233.7,51.7v-8.6h1.3v8.6L233.7,51.7z M234.4,39.5c0.6,0,1,0.4,1,1s-0.4,1-1,1s-1-0.4-1-1c0-0.3,0.1-0.5,0.3-0.7
		C233.9,39.6,234.1,39.5,234.4,39.5 M242.4,47.6H242c-0.4,0-0.9,0-1.3,0.1c-0.3,0.1-0.7,0.2-1,0.3c-0.3,0.1-0.5,0.4-0.7,0.6
		c-0.2,0.3-0.3,0.6-0.2,0.9c0,0.2,0,0.4,0.1,0.6c0.1,0.1,0.2,0.3,0.3,0.4c0.1,0.1,0.3,0.2,0.4,0.2c0.1,0,0.3,0.1,0.4,0.1
		c0.5,0,0.9-0.1,1.3-0.3c0.4-0.2,0.7-0.5,1-0.9L242.4,47.6L242.4,47.6z M242.6,51.7c0-0.2,0-0.3-0.1-0.5c0-0.2-0.1-0.3-0.1-0.5
		c-0.3,0.4-0.7,0.7-1.1,0.9c-0.5,0.2-1,0.4-1.5,0.4c-0.6,0-1.3-0.2-1.8-0.6c-0.5-0.4-0.7-1.1-0.7-1.7c0-0.5,0.1-1,0.4-1.4
		c0.3-0.4,0.7-0.7,1.1-0.9c0.5-0.2,1-0.4,1.5-0.5c0.5-0.1,1.1-0.1,1.6-0.1h0.4v-0.8c0-0.5-0.1-1-0.4-1.4c-0.4-0.3-0.8-0.5-1.3-0.4
		c-0.4,0-0.8,0.1-1.1,0.2c-0.4,0.2-0.8,0.4-1.1,0.7l-0.7-0.9c0.8-0.8,1.9-1.2,3-1.2c0.8-0.1,1.6,0.2,2.2,0.7
		c0.6,0.6,0.8,1.4,0.8,2.2v4c0,0.4,0,0.8,0.1,1.1c0,0.3,0.1,0.5,0.1,0.8L242.6,51.7"/>
	<g class="st3">
		<path class="st4" d="M25.6,32.5h0.7L25,35.1h-8.7l-0.2-0.7l3.6-3.8c1.7-1.8,2.8-3.1,3.2-3.8c0.4-0.7,0.6-1.4,0.6-2.1
			c0-0.9-0.3-1.6-0.8-2.1c-0.5-0.5-1.2-0.8-2.1-0.8c-1.7,0-2.7,1-3.2,3l-0.7-0.1c0.2-1.5,0.6-2.6,1.5-3.4c0.8-0.8,1.9-1.2,3.3-1.2
			c1.3,0,2.3,0.4,3.2,1.2c0.8,0.8,1.2,1.8,1.2,3.1c0,1-0.3,2-1,2.9c-0.3,0.4-0.6,0.8-0.9,1.1c-0.1,0.1-0.8,0.7-2.2,2l-3,2.8h4.7
			c0.9,0,1.4,0,1.6-0.1C25.2,32.8,25.4,32.7,25.6,32.5z"/>
		<path class="st4" d="M33.9,19.9c1.5,0,2.8,0.7,3.7,2.1c0.8,1.3,1.3,3.2,1.3,5.8c0,2.1-0.4,3.8-1.2,5.2c-1,1.6-2.3,2.3-3.9,2.3
			s-2.8-0.7-3.8-2c-0.9-1.4-1.4-3.2-1.4-5.6c0-2.3,0.5-4.2,1.4-5.7C31,20.6,32.3,19.9,33.9,19.9z M33.7,20.7c-0.9,0-1.5,0.5-2,1.4
			c-0.5,1-0.7,2.3-0.7,4.1c0,2.4,0.3,4.3,0.9,5.7c0.6,1.3,1.4,2,2.5,2c1.7,0,2.5-1.8,2.5-5.3c0-2.7-0.3-4.7-1-6.1
			C35.3,21.3,34.6,20.7,33.7,20.7z"/>
	</g>
</g>
</svg>
