<svg xmlns="http://www.w3.org/2000/svg" width="27.325" height="27.326" viewBox="0 0 27.325 27.326"><path fill="#4C4C4C" d="M15.141 23.227v-8.725h2.931l.438-3.401h-3.368V8.93c0-.982.274-1.653 1.686-1.653l1.802-.003v-3.04a23.982 23.982 0 0 0-2.624-.134c-2.597 0-4.376 1.586-4.376 4.496v2.505H8.696v3.401h2.934v8.725h3.511z"/><path fill="#4C4C4C" d="M13.662.405c7.322 0 13.259 5.936 13.259 13.258 0 7.322-5.937 13.258-13.259 13.258-7.321 0-13.258-5.936-13.258-13.258C.404 6.341 6.341.405 13.662.405m0-.405C6.129 0 0 6.129 0 13.663c0 7.534 6.129 13.663 13.662 13.663 7.534 0 13.663-6.129 13.663-13.663C27.325 6.129 21.196 0 13.662 0"/></svg>