<svg xmlns="http://www.w3.org/2000/svg" width="33.736" height="33.736" viewBox="0 0 33.736 33.736"><path fill="#FFF" d="M18.693 28.675V17.903h3.617l.541-4.199h-4.158v-2.681c0-1.213.34-2.041 2.08-2.041l2.226-.003V5.228c-.385-.052-1.704-.166-3.237-.166-3.206 0-5.402 1.957-5.402 5.55v3.093h-3.621v4.199h3.621v10.771h4.333z"/><path fill="#EAE9E9" d="M16.868.5c9.04 0 16.368 7.328 16.368 16.368 0 9.039-7.328 16.368-16.368 16.368S.5 25.907.5 16.868C.5 7.828 7.828.5 16.868.5m0-.5C7.567 0 0 7.567 0 16.868c0 9.302 7.567 16.868 16.868 16.868s16.868-7.566 16.868-16.868C33.736 7.567 26.169 0 16.868 0"/></svg>