<?xml version="1.0" encoding="utf-8"?>
<!-- Generator: Adobe Illustrator 26.2.1, SVG Export Plug-In . SVG Version: 6.00 Build 0)  -->
<svg version="1.1" id="Layer_1" xmlns="http://www.w3.org/2000/svg" xmlns:xlink="http://www.w3.org/1999/xlink" x="0px" y="0px"
	 viewBox="0 0 176.017 34.776" width="176.017" height="34.776" style="enable-background:new 0 0 176 34.8;" xml:space="preserve">
<style type="text/css">
	.st0{fill:#3594A6;}
	.st1{fill:#4F4C4C;}
	.st2{fill:#64666B;}
	.st3{enable-background:new    ;}
	.st4{fill:#7C7E7F;}
</style>
<g id="Layer_1_00000066496900755934164250000015731399091139429511_">
	<path class="st0" d="M13.9,3.6c0.8,0,1.4-0.6,1.4-1.4s-0.6-1.4-1.4-1.4c-0.7,0-1.3,0.6-1.4,1.3C12.6,3,13.2,3.6,13.9,3.6L13.9,3.6
		L13.9,3.6 M6.7,8.3c1,0,1.8-0.8,1.8-1.8S7.7,4.6,6.7,4.6S4.9,5.4,4.9,6.4c0,0,0,0,0,0.1C4.9,7.5,5.7,8.3,6.7,8.3 M2.8,14.7
		c0.8,0,1.4-0.6,1.4-1.4s-0.6-1.4-1.4-1.4s-1.4,0.6-1.4,1.4l0,0C1.4,14,2,14.7,2.8,14.7L2.8,14.7 M2.8,19.8c-1,0-1.8,0.8-1.8,1.8
		c0,1,0.8,1.8,1.8,1.8l0,0c1,0,1.8-0.8,1.8-1.8C4.6,20.6,3.8,19.7,2.8,19.8 M6.8,27c-0.8,0-1.4,0.6-1.4,1.4s0.6,1.4,1.4,1.4
		s1.4-0.6,1.4-1.4S7.5,27,6.8,27L6.8,27 M14,30.8c-1,0-1.8,0.8-1.8,1.8c0,1,0.8,1.8,1.8,1.8l0,0c1,0,1.8-0.8,1.8-1.9
		C15.8,31.5,15,30.7,14,30.8 M21.9,31.1c-0.8,0-1.4,0.6-1.4,1.3c0,0.8,0.6,1.4,1.3,1.4h0.1c0.8,0,1.4-0.6,1.4-1.4
		C23.3,31.7,22.6,31.1,21.9,31.1 M29.1,26.5c-1,0-1.8,0.8-1.8,1.8s0.8,1.8,1.8,1.8h0.1c1,0,1.8-0.8,1.8-1.8l0,0
		C30.9,27.3,30,26.5,29.1,26.5L29.1,26.5 M33,20.2c-0.8,0-1.4,0.6-1.4,1.4c0,0.8,0.6,1.4,1.4,1.4c0.8,0,1.4-0.6,1.4-1.4
		C34.4,20.8,33.7,20.2,33,20.2L33,20.2 M33,15c1,0,1.8-0.8,1.8-1.8S34,11.3,33,11.3c-1,0-1.8,0.8-1.8,1.8c0,0,0,0,0,0.1
		C31.2,14.2,32,15,33,15 M29,7.7c0.8,0,1.4-0.6,1.4-1.4S29.8,4.9,29,4.9s-1.4,0.6-1.4,1.4S28.2,7.7,29,7.7L29,7.7 M21.8,4
		c1,0,1.8-0.8,1.8-1.8l0,0c0-1-0.8-1.8-1.8-1.8s-1.8,0.8-1.8,1.8S20.7,4,21.8,4L21.8,4L21.8,4 M21.9,6.6c0,1.3,1,2.3,2.2,2.3
		c1.3,0,2.3-1,2.3-2.2V6.6c0-1.3-1-2.3-2.3-2.3C22.8,4.3,21.9,5.3,21.9,6.6 M17.9,6.8c1,0,1.8-0.8,1.8-1.8s-0.8-1.8-1.8-1.8
		S16.1,4,16.1,5S16.9,6.8,17.9,6.8 M11.8,8.8c1.3,0,2.3-1,2.3-2.2s-1-2.3-2.2-2.3h-0.1c-1.3,0-2.3,1-2.3,2.3S10.5,8.8,11.8,8.8
		L11.8,8.8 M5.4,11c0,1,0.8,1.8,1.8,1.8s1.8-0.8,1.8-1.8S8.3,9.2,7.2,9.2l0,0C6.3,9.2,5.4,10.1,5.4,11 M5.5,15.1
		c-1.3,0-2.3,1-2.3,2.2c0,1.3,1,2.3,2.2,2.3h0.1c1.3,0,2.3-1,2.3-2.3S6.8,15.1,5.5,15.1 M7.3,21.6c-1,0-1.8,0.8-1.8,1.8
		s0.8,1.8,1.8,1.8s1.8-0.8,1.8-1.8S8.3,21.6,7.3,21.6L7.3,21.6 M14,27.9c0-1.3-1-2.3-2.3-2.3s-2.2,1-2.2,2.3l0,0l0,0
		c0,1.3,1,2.3,2.3,2.3S14,29.2,14,27.9 M17.9,27.9c-1,0-1.8,0.8-1.9,1.8c-0.1,1,0.8,1.8,1.8,1.9h0.1c1,0,1.8-0.8,1.8-1.8
		C19.7,28.6,18.9,27.9,17.9,27.9 M24.1,25.6c-1.3,0-2.3,1-2.3,2.3s1,2.3,2.3,2.3l0,0l0,0c1.3,0,2.3-1,2.3-2.3S25.4,25.6,24.1,25.6
		 M28.7,25.3c1,0,1.8-0.8,1.8-1.8l0,0c0-1-0.8-1.8-1.8-1.8s-1.8,0.8-1.8,1.8S27.6,25.3,28.7,25.3L28.7,25.3 M27.9,17.3
		c0,1.3,1,2.3,2.3,2.3s2.2-1,2.2-2.3c0-1.3-1-2.3-2.3-2.3l0,0C29,15,27.9,16.1,27.9,17.3L27.9,17.3 M28.7,12.9c1,0,1.8-0.8,1.8-1.8
		s-0.8-1.8-1.8-1.8S26.8,10,26.8,11S27.6,12.9,28.7,12.9"/>
	<path class="st1" d="M52.4,10.5c0-0.4-0.1-0.7-0.1-1c-0.1-0.3-0.2-0.5-0.4-0.8c-0.2-0.2-0.4-0.4-0.7-0.5c-0.4-0.1-0.7-0.2-1-0.2
		c-0.7-0.1-1.3,0.2-1.8,0.7c-0.4,0.5-0.7,1.1-0.8,1.9L52.4,10.5z M47.3,11.6c0,0.5,0.1,1,0.2,1.5c0.1,0.4,0.3,0.8,0.5,1.2
		s0.5,0.7,0.9,0.8c0.4,0.2,0.9,0.3,1.4,0.3c0.3,0,0.6-0.1,0.9-0.1c0.2-0.1,0.5-0.1,0.7-0.2c0.2-0.1,0.4-0.2,0.6-0.3l0.4-0.2l0.6,1.1
		L53.2,16c-0.2,0.1-0.5,0.2-0.7,0.3c-0.3,0.1-0.6,0.2-1,0.2c-0.4,0.1-0.8,0.1-1.2,0.1c-0.7,0-1.4-0.1-2-0.4c-0.5-0.2-1-0.6-1.4-1.1
		c-0.4-0.5-0.7-1-0.8-1.6c-0.2-0.7-0.3-1.3-0.3-2c0-0.7,0.1-1.3,0.3-2c0.2-0.6,0.5-1.1,0.9-1.6c0.4-0.4,0.8-0.8,1.3-1
		c0.5-0.2,1.1-0.4,1.8-0.4c0.6,0,1.1,0.1,1.7,0.4c0.5,0.2,0.9,0.6,1.2,1c0.4,0.5,0.5,1,0.7,1.6c0.1,0.7,0.2,1.3,0.1,2.1L47.3,11.6
		 M63.8,13.2c0,0.5-0.1,1-0.3,1.5c-0.2,0.4-0.5,0.8-0.9,1.1c-0.4,0.4-0.8,0.6-1.4,0.7c-1,0.3-2.1,0.4-3.1,0.1
		c-0.4-0.1-0.7-0.2-1.1-0.4c-0.3-0.1-0.5-0.3-0.8-0.4c-0.2-0.1-0.4-0.2-0.5-0.4l0.8-1.1l0.4,0.3c0.2,0.2,0.4,0.3,0.6,0.4
		c0.3,0.1,0.6,0.2,0.9,0.4c0.4,0.1,0.8,0.2,1.2,0.1c0.4,0,0.8-0.1,1.1-0.2c0.3-0.1,0.6-0.3,0.8-0.5s0.4-0.4,0.5-0.7
		c0.1-0.2,0.2-0.5,0.2-0.8c0-0.4-0.1-0.7-0.2-1s-0.4-0.6-0.7-0.8c-0.3-0.2-0.7-0.4-1-0.6c-0.4-0.2-0.7-0.4-1.1-0.5
		c-0.4-0.2-0.8-0.4-1.1-0.6c-0.4-0.2-0.7-0.5-1-0.8c-0.3-0.3-0.5-0.7-0.7-1.1c-0.2-0.4-0.3-0.9-0.2-1.3c0-0.5,0.1-1,0.3-1.5
		c0.2-0.4,0.5-0.8,0.9-1.1c0.4-0.3,0.8-0.5,1.2-0.7C59,3.1,59.5,3,60,3c0.4,0,0.9,0.1,1.3,0.1c0.4,0.1,0.7,0.2,1,0.3
		c0.2,0.1,0.5,0.2,0.7,0.4c0.2,0.1,0.4,0.2,0.4,0.3l-0.8,1.1c-0.3-0.2-0.7-0.4-1-0.6c-0.5-0.2-1.1-0.4-1.8-0.3
		c-0.6,0-1.2,0.2-1.6,0.5c-0.4,0.4-0.7,0.9-0.7,1.5c0,0.3,0.1,0.6,0.2,0.8s0.3,0.5,0.5,0.7C58.5,8,58.8,8.1,59,8.3
		c0.3,0.2,0.6,0.3,0.9,0.5c0.4,0.2,0.9,0.4,1.3,0.7c0.4,0.2,0.8,0.5,1.2,0.8c0.4,0.4,0.7,0.7,0.9,1.1C63.7,12,63.8,12.6,63.8,13.2
		 M72.9,15.8c-0.1,0.1-0.2,0.2-0.4,0.3c-0.2,0.1-0.4,0.2-0.6,0.3c-0.3,0.1-0.5,0.2-0.8,0.2c-0.4,0.1-0.7,0.1-1.1,0.1
		c-0.7,0-1.3-0.1-1.9-0.4c-0.5-0.2-1-0.7-1.4-1.1c-0.4-0.5-0.7-1-0.8-1.6c-0.2-0.6-0.3-1.3-0.3-1.9c0-0.7,0.1-1.5,0.4-2.2
		c0.2-0.6,0.5-1.1,1-1.6c0.4-0.4,0.8-0.7,1.4-1c1.1-0.4,2.4-0.4,3.6,0c0.4,0.2,0.7,0.4,1,0.6l-0.7,1.1c-0.3-0.2-0.6-0.4-0.9-0.5
		c-0.4-0.2-0.9-0.2-1.4-0.2c-0.4,0-0.9,0.1-1.3,0.3c-0.4,0.2-0.7,0.5-0.9,0.8c-0.2,0.4-0.4,0.8-0.5,1.2c-0.2,1-0.2,1.9,0,2.9
		c0.1,0.4,0.3,0.8,0.5,1.2c0.5,0.7,1.3,1.1,2.2,1.1c0.3,0,0.5,0,0.8-0.1c0.2-0.1,0.5-0.1,0.7-0.2c0.2-0.1,0.4-0.2,0.5-0.2
		c0.1-0.1,0.2-0.2,0.3-0.2L72.9,15.8 M81.1,16.5V9.9c0-0.5-0.1-1-0.4-1.5c-0.3-0.4-0.8-0.6-1.3-0.5c-0.4,0-0.7,0.1-1,0.2
		c-0.3,0.1-0.6,0.3-0.8,0.5c-0.2,0.2-0.4,0.4-0.6,0.6l-0.3,0.4v6.8h-1.5V2.1h1.5v6.2C76.7,8.1,76.9,8,77,7.8
		c0.2-0.2,0.4-0.4,0.7-0.5C78,7,78.3,6.9,78.6,6.8c0.4-0.1,0.7-0.2,1.1-0.2s0.9,0.1,1.3,0.2c0.4,0.1,0.6,0.4,0.8,0.7
		c0.2,0.3,0.4,0.6,0.5,1c0.1,0.4,0.2,0.8,0.2,1.1v6.8H81.1 M92.4,11.7c0-0.5-0.1-1-0.2-1.5C92,9.8,91.9,9.4,91.6,9
		c-0.2-0.4-0.6-0.6-1-0.8c-0.4-0.2-0.8-0.3-1.3-0.3c-0.4,0-0.9,0.1-1.3,0.3c-0.4,0.2-0.7,0.5-0.8,0.8c-0.2,0.4-0.4,0.8-0.5,1.2
		c-0.1,0.5-0.2,1-0.2,1.5c0,0.5,0.1,1,0.2,1.5c0.1,0.4,0.3,0.8,0.5,1.2c0.2,0.4,0.5,0.6,0.9,0.8c0.4,0.2,0.8,0.3,1.3,0.3
		c0.5,0,0.9-0.1,1.3-0.3c0.4-0.2,0.7-0.5,0.9-0.8c0.2-0.4,0.4-0.8,0.5-1.2C92.3,12.7,92.4,12.2,92.4,11.7L92.4,11.7z M93.9,11.6
		c0,0.6-0.1,1.1-0.2,1.8s-0.4,1.1-0.8,1.6c-0.4,0.5-0.8,0.9-1.4,1.2c-0.7,0.4-1.3,0.5-2.1,0.5c-1.3,0.1-2.7-0.5-3.4-1.7
		c-0.4-0.5-0.6-1-0.8-1.6C85,12.9,85,12.2,85,11.6c0-0.6,0.1-1.1,0.2-1.8c0.1-0.6,0.4-1.1,0.7-1.6c0.4-0.5,0.8-0.9,1.3-1.2
		c0.6-0.4,1.3-0.5,2.1-0.5c1.4-0.1,2.7,0.6,3.5,1.7c0.4,0.5,0.7,1,0.8,1.6C93.8,10.5,93.9,11,93.9,11.6 M96.4,16.5h1.5V2.1h-1.5
		V16.5z M105.9,11.9h-0.4c-0.5,0-1,0.1-1.5,0.1c-0.4,0.1-0.8,0.2-1.1,0.4c-0.3,0.2-0.5,0.4-0.7,0.7c-0.2,0.3-0.3,0.7-0.2,1
		c0,0.2,0.1,0.4,0.1,0.7c0.1,0.2,0.2,0.3,0.4,0.4c0.1,0.1,0.3,0.2,0.5,0.2c0.2,0.1,0.3,0.1,0.5,0.1c0.5,0,1-0.1,1.5-0.4
		s0.8-0.6,1.1-1L105.9,11.9L105.9,11.9z M106.1,16.4c0-0.1-0.1-0.3-0.1-0.5c0-0.2-0.1-0.4-0.1-0.6c-0.3,0.4-0.7,0.7-1.2,1
		c-0.5,0.2-1.1,0.4-1.6,0.4c-0.7,0-1.5-0.2-2-0.7c-0.5-0.5-0.8-1.1-0.8-1.9c0-0.5,0.1-1.1,0.5-1.6c0.3-0.4,0.7-0.8,1.2-1
		c0.5-0.2,1.1-0.4,1.6-0.5c0.6-0.1,1.1-0.2,1.8-0.2h0.4V9.9c0.1-0.5-0.1-1.1-0.5-1.5C105,8,104.5,7.9,104,7.9
		c-0.4,0-0.8,0.1-1.3,0.2c-0.5,0.2-0.9,0.5-1.2,0.8l-0.8-1c0.9-0.9,2.1-1.4,3.4-1.3c0.8-0.1,1.8,0.2,2.4,0.8
		c0.6,0.7,0.9,1.5,0.8,2.4v4.5c0,0.4,0,0.8,0.1,1.3c0,0.3,0.1,0.6,0.2,0.9L106.1,16.4 M115.3,8.3c-0.1-0.1-0.2-0.1-0.2-0.1
		c-0.2-0.1-0.4-0.1-0.5-0.1c-0.4,0-0.7,0.1-1,0.2c-0.2,0.2-0.5,0.4-0.7,0.6c-0.2,0.2-0.4,0.4-0.5,0.7c-0.1,0.1-0.1,0.3-0.2,0.4v6.4
		h-1.5V6.9h1.5v1.5c0.1-0.2,0.2-0.4,0.4-0.5c0.2-0.2,0.4-0.4,0.5-0.5c0.2-0.2,0.5-0.4,0.7-0.4c0.3-0.1,0.6-0.2,0.9-0.2
		c0.2,0,0.4,0,0.7,0.1l0.3,0.1L115.3,8.3 M123.1,13.9c0.1,0.8-0.3,1.6-0.9,2.1c-0.7,0.5-1.6,0.8-2.5,0.7c-0.6,0-1.2-0.1-1.8-0.3
		c-0.4-0.2-0.8-0.4-1.2-0.6l0.7-1.1c0.3,0.2,0.6,0.4,0.9,0.5c0.5,0.2,1,0.3,1.5,0.3c0.5,0,1-0.1,1.5-0.4c0.4-0.2,0.5-0.6,0.5-1
		c0-0.4-0.2-0.8-0.5-1c-0.5-0.3-1-0.6-1.6-0.8c-0.4-0.1-0.7-0.3-1-0.5c-0.3-0.2-0.6-0.4-0.8-0.6c-0.2-0.2-0.4-0.5-0.5-0.8
		c-0.1-0.4-0.2-0.7-0.2-1.1c0-0.7,0.3-1.4,0.8-1.9c0.6-0.5,1.5-0.8,2.2-0.8c0.4,0,0.7,0.1,1.1,0.1c0.3,0.1,0.5,0.1,0.8,0.2
		c0.4,0.1,0.7,0.3,1,0.5l-0.7,1c-0.2-0.2-0.5-0.3-0.8-0.5c-0.4-0.2-0.9-0.3-1.3-0.2c-0.4-0.1-0.8,0.1-1.2,0.4
		c-0.3,0.2-0.4,0.6-0.4,1c0,0.4,0.2,0.8,0.5,1c0.4,0.3,0.9,0.5,1.3,0.7c0.4,0.2,0.8,0.3,1.1,0.5c0.4,0.2,0.7,0.4,1,0.6
		c0.2,0.2,0.5,0.5,0.7,0.8C123.1,13.2,123.1,13.5,123.1,13.9 M131.5,16.5V9.9c0-0.5-0.1-1-0.4-1.5c-0.3-0.4-0.8-0.6-1.3-0.5
		c-0.4,0-0.7,0.1-1,0.2c-0.3,0.1-0.6,0.3-0.8,0.5c-0.2,0.2-0.4,0.4-0.6,0.6l-0.3,0.4v6.8h-1.5V2.1h1.5v6.2c0.1-0.1,0.2-0.3,0.4-0.5
		c0.2-0.2,0.4-0.4,0.7-0.5c0.3-0.2,0.6-0.3,0.9-0.4c0.4-0.1,0.7-0.2,1.1-0.2s0.9,0.1,1.3,0.2c0.4,0.1,0.6,0.4,0.8,0.7
		c0.2,0.3,0.4,0.6,0.5,1c0.1,0.4,0.2,0.8,0.2,1.1v6.8H131.5 M136.3,16.5V6.9h1.5v9.6C137.8,16.5,136.3,16.5,136.3,16.5z M137.1,2.9
		c0.6,0,1.1,0.5,1.1,1c0,0,0,0,0,0.1c0.1,0.6-0.4,1.1-1,1.1c-0.6,0.1-1.1-0.4-1.1-1c0-0.1,0-0.1,0-0.2C136,3.4,136.4,2.9,137.1,2.9
		L137.1,2.9 M147.8,11.7c0-0.5-0.1-1-0.2-1.5c-0.1-0.4-0.2-0.8-0.5-1.2c-0.2-0.3-0.5-0.5-0.8-0.7c-0.4-0.2-0.8-0.3-1.2-0.3
		c-0.3,0-0.6,0.1-0.9,0.2c-0.2,0.1-0.5,0.2-0.7,0.4c-0.2,0.1-0.4,0.3-0.5,0.4c-0.1,0.1-0.2,0.2-0.3,0.4v5.3c0.2,0.2,0.5,0.4,0.8,0.6
		c0.4,0.2,1,0.3,1.5,0.3c0.8,0.1,1.6-0.4,2.1-1.1c0.2-0.4,0.4-0.8,0.5-1.2C147.7,12.7,147.8,12.2,147.8,11.7L147.8,11.7z
		 M149.3,11.6c0,0.7-0.1,1.4-0.3,2.1c-0.2,0.6-0.5,1.1-0.9,1.6c-0.4,0.4-0.8,0.8-1.3,1c-0.5,0.2-1.1,0.4-1.7,0.4s-1.1-0.1-1.6-0.3
		c-0.3-0.1-0.6-0.3-0.8-0.5v5h-1.5V6.9h1.5v1c0.3-0.4,0.7-0.7,1.1-0.8c0.5-0.3,1.1-0.4,1.7-0.4c1.1-0.1,2.2,0.4,2.8,1.3
		C149,9,149.5,10.3,149.3,11.6"/>
	<path class="st2" d="M52.1,28.9c0.1,0.8-0.2,1.5-0.7,2.1c-0.5,0.5-1.3,0.8-2.1,0.8c-0.4,0-0.8-0.1-1.3-0.2
		c-0.4-0.1-0.6-0.4-0.8-0.6c-0.2-0.2-0.4-0.5-0.5-0.9c-0.1-0.4-0.2-0.8-0.2-1.1v-4.5h0.8v4.4c-0.1,0.6,0.1,1.2,0.5,1.7
		c0.4,0.4,1,0.6,1.5,0.5c0.5,0.1,1.1-0.2,1.5-0.6c0.3-0.4,0.5-1,0.5-1.5v-4.5h0.8L52.1,28.9 M57,31.7v-3.6c0-0.3-0.1-0.5-0.2-0.8
		c-0.2-0.2-0.5-0.3-0.7-0.3c-0.3,0-0.6,0.1-0.8,0.3c-0.2,0.2-0.5,0.4-0.7,0.7v3.7h-0.8v-5.2h0.8v0.7c0.2-0.3,0.5-0.5,0.8-0.7
		c0.3-0.1,0.6-0.2,0.9-0.2c0.2,0,0.5,0.1,0.7,0.1c0.2,0.1,0.4,0.2,0.5,0.4c0.1,0.1,0.2,0.3,0.2,0.5c0.1,0.2,0.1,0.4,0.1,0.6v3.7
		L57,31.7 M59.6,31.7v-5.2h0.8v5.2L59.6,31.7z M60,24.3c0.3,0,0.5,0.2,0.5,0.6c0,0.4-0.2,0.5-0.6,0.5c-0.3,0-0.5-0.2-0.5-0.6
		c0-0.1,0.1-0.3,0.2-0.4C59.7,24.3,59.9,24.3,60,24.3 M63.9,30.6l1.5-4.2h0.8l-1.9,5.2h-0.7l-2-5.2h0.8L63.9,30.6L63.9,30.6
		 M70.4,28.4c0-0.2-0.1-0.4-0.1-0.5c-0.1-0.2-0.1-0.3-0.2-0.4s-0.2-0.2-0.4-0.3c-0.2-0.1-0.4-0.1-0.5-0.1c-0.4,0-0.7,0.1-1,0.4
		c-0.2,0.3-0.4,0.7-0.4,1L70.4,28.4z M67.7,29c0,0.2,0.1,0.5,0.1,0.8c0.1,0.2,0.2,0.5,0.3,0.7c0.1,0.2,0.3,0.4,0.5,0.4
		c0.2,0.1,0.5,0.2,0.7,0.2c0.2,0,0.4,0,0.5-0.1c0.1-0.1,0.3-0.1,0.4-0.1c0.1-0.1,0.2-0.1,0.3-0.1l0.2-0.1l0.3,0.6l-0.2,0.2
		c-0.1,0.1-0.2,0.1-0.4,0.2c-0.2,0.1-0.4,0.1-0.5,0.1c-0.2,0.1-0.4,0.1-0.7,0.1c-0.4,0-0.7-0.1-1.1-0.2c-0.3-0.1-0.5-0.4-0.8-0.6
		c-0.2-0.2-0.4-0.5-0.5-0.8c-0.1-0.4-0.2-0.7-0.1-1.1c0-0.4,0.1-0.7,0.2-1.1c0.1-0.3,0.2-0.6,0.5-0.8c0.4-0.5,1-0.8,1.7-0.8
		c0.3,0,0.7,0.1,0.9,0.2s0.5,0.3,0.7,0.5c0.2,0.2,0.3,0.5,0.4,0.8c0.1,0.4,0.1,0.7,0.1,1.1L67.7,29 M75.1,27.2L75,27.1
		c-0.1,0-0.2-0.1-0.3,0c-0.2,0-0.4,0.1-0.5,0.1c-0.1,0.1-0.3,0.2-0.4,0.3c-0.2,0.2-0.3,0.4-0.4,0.6v3.5h-0.8v-5.2h0.8v0.8
		c0.1-0.1,0.1-0.2,0.2-0.3c0.1-0.1,0.2-0.2,0.3-0.3c0.1-0.1,0.2-0.2,0.4-0.2c0.2-0.1,0.3-0.1,0.5-0.1c0.1,0,0.2,0,0.4,0.1l0.2,0.1
		L75.1,27.2 M79.4,30.3c0,0.4-0.2,0.8-0.5,1.1c-0.4,0.3-0.8,0.4-1.3,0.4c-0.4,0-0.7-0.1-1-0.2c-0.2-0.1-0.5-0.2-0.7-0.3l0.4-0.6
		c0.2,0.1,0.3,0.2,0.5,0.2c0.2,0.1,0.5,0.2,0.8,0.2s0.5-0.1,0.8-0.2c0.2-0.1,0.3-0.3,0.3-0.5c0-0.2-0.1-0.4-0.3-0.5
		c-0.3-0.2-0.5-0.3-0.8-0.4c-0.2-0.1-0.4-0.2-0.5-0.2s-0.3-0.2-0.4-0.3s-0.2-0.2-0.3-0.4c-0.1-0.2-0.1-0.4-0.1-0.6
		c0-0.4,0.1-0.8,0.4-1c0.4-0.3,0.8-0.4,1.2-0.4c0.2,0,0.4,0,0.6,0.1c0.2,0.1,0.3,0.1,0.4,0.1c0.2,0.1,0.4,0.2,0.5,0.3l-0.4,0.6
		c-0.1-0.1-0.3-0.2-0.4-0.2c-0.2-0.1-0.5-0.2-0.8-0.2c-0.2,0-0.5,0.1-0.7,0.2c-0.2,0.1-0.2,0.3-0.2,0.5c0,0.2,0.1,0.4,0.3,0.5
		c0.2,0.1,0.5,0.3,0.7,0.4c0.2,0.1,0.4,0.2,0.6,0.3s0.4,0.2,0.5,0.3c0.1,0.1,0.2,0.2,0.4,0.4C79.3,29.9,79.4,30.1,79.4,30.3
		 M80.9,31.7v-5.2h0.8v5.2L80.9,31.7z M81.3,24.3c0.3,0,0.5,0.2,0.5,0.6c0,0.3-0.2,0.5-0.6,0.5c-0.3,0-0.5-0.2-0.5-0.6
		c0-0.1,0.1-0.3,0.2-0.4C81,24.3,81.1,24.3,81.3,24.3 M86.1,31.5c-0.1,0.1-0.2,0.1-0.4,0.2c-0.2,0.1-0.5,0.1-0.7,0.1
		c-0.4,0-0.7-0.1-1-0.4c-0.2-0.3-0.4-0.7-0.3-1v-3.3h-0.8v-0.6h0.8V25h0.7v1.5h1.3v0.6h-1.3v3.3c0,0.2,0,0.4,0.1,0.6
		c0.1,0.1,0.3,0.2,0.5,0.2s0.3,0,0.4-0.1c0.1-0.1,0.2-0.1,0.2-0.1L86.1,31.5 M89.2,32.4c-0.1,0.2-0.2,0.5-0.3,0.7
		c-0.1,0.2-0.2,0.4-0.4,0.6c-0.2,0.2-0.4,0.3-0.6,0.4c-0.2,0.1-0.5,0.2-0.8,0.1c-0.1,0-0.2,0-0.3,0l-0.2-0.1l0.1-0.7h0.1h0.2
		c0.3,0,0.6-0.1,0.8-0.3c0.2-0.2,0.4-0.5,0.5-0.9l0.2-0.7l-1.9-5.2h0.9l1.5,4.2l0,0l1.5-4.2h0.8L89.2,32.4 M98.5,29.1
		c0-0.2-0.1-0.5-0.1-0.8c-0.1-0.2-0.1-0.5-0.3-0.7c-0.1-0.2-0.3-0.4-0.5-0.4c-0.2-0.1-0.5-0.2-0.7-0.2c-0.2,0-0.5,0.1-0.7,0.2
		c-0.2,0.1-0.4,0.2-0.5,0.4c-0.1,0.2-0.2,0.4-0.2,0.7c-0.1,0.2-0.1,0.5-0.1,0.8c0,0.2,0,0.5,0.1,0.8c0.1,0.2,0.2,0.5,0.3,0.7
		c0.2,0.4,0.7,0.6,1.2,0.6c0.2,0,0.5-0.1,0.7-0.2c0.2-0.1,0.4-0.2,0.5-0.4c0.1-0.2,0.2-0.4,0.3-0.7C98.5,29.6,98.5,29.3,98.5,29.1
		L98.5,29.1z M99.3,29.1c0,0.3-0.1,0.7-0.1,1c-0.1,0.3-0.2,0.6-0.4,0.9c-0.2,0.3-0.5,0.5-0.8,0.7c-1,0.5-2.3,0.3-3-0.7
		c-0.2-0.2-0.4-0.5-0.4-0.9c-0.1-0.3-0.1-0.6-0.1-0.9s0.1-0.7,0.1-1c0.1-0.3,0.2-0.6,0.4-0.9c0.2-0.2,0.4-0.5,0.7-0.7
		c0.4-0.2,0.7-0.3,1.1-0.2c0.4,0,0.8,0.1,1.1,0.2c0.3,0.2,0.5,0.4,0.8,0.7c0.2,0.2,0.4,0.5,0.4,0.8C99.3,28.5,99.3,28.8,99.3,29.1
		 M103.4,24.6l-0.2-0.1c-0.1-0.1-0.3-0.1-0.5-0.1c-0.3,0-0.6,0.1-0.8,0.4c-0.2,0.3-0.3,0.6-0.3,1v0.7h1.3v0.6h-1.3v4.6h-0.8v-4.5
		H100v-0.6h0.8v-0.8c0-0.5,0.1-1,0.5-1.5c0.4-0.4,0.9-0.5,1.4-0.5c0.2,0,0.4,0,0.6,0.1c0.1,0,0.2,0.1,0.3,0.1L103.4,24.6
		 M111.9,31.1c-0.2,0.2-0.5,0.4-0.8,0.5c-0.4,0.2-0.8,0.2-1.3,0.2c-0.5,0-1-0.1-1.5-0.3c-0.4-0.2-0.8-0.5-1.1-0.8
		c-0.3-0.4-0.5-0.8-0.7-1.2c-0.2-0.4-0.2-0.9-0.2-1.4s0.1-1,0.2-1.4c0.1-0.4,0.4-0.8,0.7-1.2c0.3-0.4,0.7-0.6,1.1-0.8
		c0.5-0.2,1-0.3,1.5-0.3c0.4,0,0.8,0.1,1.1,0.1c0.3,0.1,0.6,0.2,0.8,0.4l-0.4,0.7c-0.2-0.1-0.5-0.2-0.7-0.4
		c-0.3-0.1-0.6-0.1-0.9-0.1c-0.4,0-0.8,0.1-1.1,0.2c-0.3,0.2-0.6,0.4-0.8,0.7c-0.2,0.3-0.4,0.6-0.5,1s-0.2,0.7-0.2,1.1
		c0,0.4,0.1,0.8,0.2,1.1c0.1,0.4,0.2,0.7,0.5,1c0.2,0.3,0.5,0.5,0.8,0.7c0.4,0.2,0.8,0.2,1.1,0.2c0.4,0,0.7-0.1,1-0.2
		c0.3-0.1,0.5-0.2,0.7-0.4L111.9,31.1 M115.8,29.2h-0.2c-0.2,0-0.5,0-0.8,0.1c-0.2,0.1-0.4,0.1-0.6,0.2c-0.2,0.1-0.3,0.2-0.4,0.4
		c-0.1,0.2-0.1,0.4-0.1,0.5c0,0.1,0,0.2,0.1,0.4c0.1,0.1,0.1,0.2,0.2,0.2s0.2,0.1,0.2,0.1c0.1,0,0.2,0.1,0.2,0.1
		c0.3,0,0.5-0.1,0.8-0.2c0.2-0.1,0.4-0.3,0.6-0.5L115.8,29.2z M115.9,31.7c0-0.1,0-0.2-0.1-0.3l-0.1-0.3c-0.2,0.2-0.4,0.4-0.7,0.5
		c-0.3,0.1-0.6,0.2-0.9,0.2c-0.4,0-0.8-0.1-1.1-0.4c-0.3-0.2-0.4-0.7-0.4-1c0-0.3,0.1-0.6,0.2-0.8c0.2-0.2,0.4-0.4,0.7-0.5
		c0.3-0.1,0.6-0.2,0.9-0.3c0.3-0.1,0.7-0.1,1-0.1h0.2v-0.5c0-0.3-0.1-0.6-0.2-0.8c-0.2-0.2-0.5-0.3-0.8-0.2c-0.2,0-0.5,0.1-0.7,0.1
		c-0.2,0.1-0.5,0.2-0.7,0.4l-0.4-0.5c0.5-0.5,1.1-0.7,1.8-0.7c0.5-0.1,1,0.1,1.3,0.4c0.4,0.4,0.5,0.8,0.5,1.3v2.4
		c0,0.2,0,0.5,0.1,0.7c0,0.2,0.1,0.3,0.1,0.5L115.9,31.7 M118.4,31.6h0.8v-7.7h-0.8V31.6z M121,31.6v-5.2h0.8v5.2H121z M121.4,24.3
		c0.3,0,0.5,0.2,0.5,0.6c0,0.3-0.2,0.5-0.6,0.5c-0.3,0-0.5-0.2-0.5-0.6c0-0.1,0.1-0.3,0.2-0.4C121.1,24.3,121.3,24.3,121.4,24.3
		 M126.4,24.5l-0.2-0.1c-0.1-0.1-0.3-0.1-0.4-0.1c-0.3,0-0.6,0.1-0.8,0.4c-0.2,0.3-0.3,0.6-0.3,1v0.7h1.3v0.6h-1.3v4.6h-0.8v-4.5
		h-0.8v-0.6h0.8v-0.8c0-0.5,0.2-1,0.5-1.5c0.4-0.4,0.9-0.5,1.4-0.5c0.2,0,0.4,0,0.6,0.1c0.1,0,0.2,0.1,0.3,0.1L126.4,24.5
		 M130.6,29.1c0-0.2-0.1-0.5-0.1-0.8c-0.1-0.2-0.2-0.5-0.3-0.7c-0.1-0.2-0.3-0.4-0.5-0.4c-0.2-0.1-0.5-0.2-0.7-0.2s-0.5,0.1-0.7,0.2
		s-0.4,0.2-0.5,0.4c-0.1,0.2-0.2,0.4-0.2,0.7c-0.1,0.2-0.1,0.5-0.1,0.8c0,0.2,0,0.5,0.1,0.8c0.1,0.2,0.2,0.5,0.3,0.7
		c0.2,0.4,0.7,0.6,1.2,0.6c0.2,0,0.5-0.1,0.7-0.2c0.2-0.1,0.4-0.2,0.5-0.4c0.1-0.2,0.2-0.4,0.3-0.7
		C130.6,29.6,130.7,29.4,130.6,29.1L130.6,29.1z M131.5,29.1c0,0.3-0.1,0.7-0.1,1c-0.1,0.3-0.2,0.6-0.4,0.9
		c-0.2,0.3-0.5,0.5-0.8,0.7c-1,0.5-2.3,0.3-3-0.7c-0.2-0.2-0.4-0.5-0.4-0.9c-0.1-0.3-0.1-0.6-0.1-0.9c0-0.3,0.1-0.7,0.1-1
		c0.1-0.3,0.2-0.6,0.4-0.9c0.2-0.2,0.4-0.5,0.7-0.7c0.4-0.2,0.7-0.3,1.1-0.2c0.4,0,0.8,0.1,1.1,0.2c0.3,0.2,0.5,0.4,0.8,0.7
		c0.2,0.2,0.4,0.5,0.4,0.8C131.4,28.5,131.5,28.8,131.5,29.1 M135.4,27.2l-0.1-0.1c-0.1,0-0.2-0.1-0.3,0c-0.2,0-0.4,0.1-0.5,0.1
		c-0.1,0.1-0.3,0.2-0.4,0.3c-0.1,0.1-0.2,0.2-0.2,0.4c-0.1,0.1-0.1,0.2-0.1,0.2v3.5h-0.8v-5.2h0.8v0.8c0.1-0.1,0.1-0.2,0.2-0.3
		c0.1-0.1,0.2-0.2,0.3-0.3c0.1-0.1,0.2-0.2,0.4-0.2c0.2-0.1,0.3-0.1,0.5-0.1c0.1,0,0.2,0,0.4,0.1l0.2,0.1L135.4,27.2 M139.8,31.7
		v-3.6c0-0.3-0.1-0.5-0.2-0.8c-0.2-0.2-0.4-0.3-0.7-0.3c-0.3,0-0.6,0.1-0.8,0.3c-0.2,0.2-0.5,0.4-0.7,0.7v3.7h-0.8v-5.2h0.8v0.7
		c0.2-0.3,0.5-0.5,0.8-0.7c0.3-0.1,0.6-0.2,0.9-0.2c0.2,0,0.5,0.1,0.7,0.1c0.2,0.1,0.4,0.2,0.5,0.4c0.1,0.1,0.2,0.3,0.2,0.5
		c0.1,0.2,0.1,0.4,0.1,0.6v3.7L139.8,31.7 M142.4,31.7v-5.2h0.8v5.2L142.4,31.7z M142.8,24.3c0.4,0,0.6,0.2,0.6,0.6
		c0,0.4-0.2,0.6-0.6,0.6c-0.4,0-0.6-0.2-0.6-0.6c0-0.2,0.1-0.3,0.2-0.4C142.5,24.3,142.6,24.3,142.8,24.3 M147.6,29.2h-0.2
		c-0.2,0-0.5,0-0.8,0.1c-0.2,0.1-0.4,0.1-0.6,0.2c-0.2,0.1-0.3,0.2-0.4,0.4c-0.1,0.2-0.2,0.4-0.1,0.5c0,0.1,0,0.2,0.1,0.4
		c0.1,0.1,0.1,0.2,0.2,0.2c0.1,0.1,0.2,0.1,0.2,0.1c0.1,0,0.2,0.1,0.2,0.1c0.3,0,0.5-0.1,0.8-0.2s0.4-0.3,0.6-0.5L147.6,29.2
		L147.6,29.2z M147.8,31.7c0-0.1,0-0.2-0.1-0.3c0-0.1-0.1-0.2-0.1-0.3c-0.2,0.2-0.4,0.4-0.7,0.5c-0.3,0.1-0.6,0.2-0.9,0.2
		c-0.4,0-0.8-0.1-1.1-0.4c-0.3-0.2-0.4-0.7-0.4-1c0-0.3,0.1-0.6,0.2-0.8c0.2-0.2,0.4-0.4,0.7-0.5c0.3-0.1,0.6-0.2,0.9-0.3
		c0.3-0.1,0.7-0.1,1-0.1h0.2v-0.5c0-0.3-0.1-0.6-0.2-0.8c-0.2-0.2-0.5-0.3-0.8-0.2c-0.2,0-0.5,0.1-0.7,0.1c-0.2,0.1-0.5,0.2-0.7,0.4
		l-0.4-0.5c0.5-0.5,1.1-0.7,1.8-0.7c0.5-0.1,1,0.1,1.3,0.4c0.4,0.4,0.5,0.8,0.5,1.3v2.4c0,0.2,0,0.5,0.1,0.7c0,0.2,0.1,0.3,0.1,0.5
		L147.8,31.7"/>
	<g class="st3">
		<path class="st4" d="M16.5,20.1h0.4l-0.8,1.6h-5.3l-0.1-0.4l2.2-2.3c1-1.1,1.7-1.9,1.9-2.3c0.2-0.4,0.4-0.8,0.4-1.3
			c0-0.5-0.2-1-0.5-1.3c-0.3-0.3-0.7-0.5-1.3-0.5c-1,0-1.6,0.6-1.9,1.8l-0.4-0.1c0.1-0.9,0.4-1.6,0.9-2.1c0.5-0.5,1.1-0.7,2-0.7
			c0.8,0,1.4,0.2,1.9,0.7c0.5,0.5,0.7,1.1,0.7,1.9c0,0.6-0.2,1.2-0.6,1.8c-0.2,0.2-0.4,0.5-0.5,0.7c-0.1,0.1-0.5,0.4-1.3,1.2
			l-1.8,1.7h2.8c0.5,0,0.8,0,1-0.1C16.3,20.2,16.4,20.2,16.5,20.1z"/>
		<path class="st4" d="M21.5,12.4c0.9,0,1.7,0.4,2.2,1.3c0.5,0.8,0.8,1.9,0.8,3.5c0,1.3-0.2,2.3-0.7,3.1c-0.6,1-1.4,1.4-2.4,1.4
			s-1.7-0.4-2.3-1.2c-0.5-0.8-0.8-1.9-0.8-3.4c0-1.4,0.3-2.5,0.8-3.4C19.8,12.9,20.5,12.4,21.5,12.4z M21.4,12.9
			c-0.5,0-0.9,0.3-1.2,0.8c-0.3,0.6-0.4,1.4-0.4,2.5c0,1.5,0.2,2.6,0.5,3.4c0.4,0.8,0.8,1.2,1.5,1.2c1,0,1.5-1.1,1.5-3.2
			c0-1.6-0.2-2.8-0.6-3.7C22.4,13.3,21.9,12.9,21.4,12.9z"/>
	</g>
</g>
</svg>
