<?xml version="1.0" encoding="utf-8"?>
<!-- Generator: Adobe Illustrator 26.2.1, SVG Export Plug-In . SVG Version: 6.00 Build 0)  -->
<svg version="1.1" xmlns="http://www.w3.org/2000/svg" xmlns:xlink="http://www.w3.org/1999/xlink" x="0px" y="0px"
	 viewBox="0 0 156 34.1" style="enable-background:new 0 0 156 34.1;" xml:space="preserve">
<style type="text/css">
	.st0{fill:#008498;}
	.st1{fill:#333333;}
	.st2{fill:#64666B;}
</style>
<g id="Layer_1">
	<path class="st0" d="M13,3.2c0.8,0,1.4-0.6,1.4-1.4S13.8,0.5,13,0.5l0,0c-0.8,0-1.4,0.6-1.4,1.4S12.2,3.2,13,3.2L13,3.2z M5.8,7.9
		c1,0,1.8-0.8,1.8-1.8c0-1-0.8-1.8-1.8-1.8H5.7c-1,0-1.8,0.8-1.8,1.9S4.7,7.9,5.8,7.9z M1.8,14.3c0.8,0,1.4-0.6,1.4-1.4
		s-0.6-1.4-1.4-1.4s-1.4,0.6-1.4,1.4C0.4,13.7,1.1,14.3,1.8,14.3L1.8,14.3z M1.8,19.5c-1,0-1.8,0.8-1.8,1.8c0,1,0.8,1.8,1.8,1.8h0.1
		c1,0,1.8-0.8,1.8-1.9C3.7,20.2,2.8,19.4,1.8,19.5z M5.8,26.7c-0.8,0-1.4,0.6-1.4,1.4c0,0.8,0.6,1.4,1.4,1.4c0.8,0,1.4-0.6,1.4-1.4
		c0,0,0,0,0,0C7.2,27.3,6.6,26.7,5.8,26.7C5.8,26.7,5.8,26.7,5.8,26.7z M13.1,30.4c-1,0-1.8,0.8-1.8,1.8c0,1,0.8,1.8,1.9,1.8l0,0
		l0,0c1,0,1.8-0.8,1.8-1.8c0,0,0,0,0,0C14.9,31.2,14.1,30.4,13.1,30.4L13.1,30.4z M21,30.8c-0.8,0-1.4,0.6-1.4,1.4s0.6,1.4,1.4,1.4
		s1.4-0.6,1.4-1.4l0,0C22.3,31.5,21.7,30.9,21,30.8L21,30.8z M28.2,26.2c-1,0-1.8,0.8-1.8,1.8c0,1,0.8,1.8,1.8,1.8
		c1,0,1.8-0.8,1.8-1.8c0,0,0,0,0,0l0,0C30,27,29.2,26.2,28.2,26.2C28.2,26.2,28.2,26.2,28.2,26.2L28.2,26.2z M32.1,19.8
		c-0.8,0-1.4,0.6-1.4,1.4s0.6,1.4,1.4,1.4c0.8,0,1.4-0.6,1.4-1.4S32.9,19.8,32.1,19.8L32.1,19.8z M32.1,14.6c1-0.1,1.7-1,1.6-2
		c-0.1-0.8-0.7-1.5-1.5-1.6H32c-1,0-1.8,0.8-1.8,1.9S31.1,14.7,32.1,14.6L32.1,14.6L32.1,14.6z M28.1,7.4c0.8,0.1,1.4-0.5,1.5-1.2
		s-0.5-1.4-1.2-1.5c-0.1,0-0.1,0-0.2,0h-0.1c-0.8,0.1-1.3,0.7-1.3,1.5C26.9,6.8,27.4,7.3,28.1,7.4z M20.9,3.6c1,0,1.8-0.8,1.8-1.9
		l0,0c0-1-0.8-1.8-1.8-1.8c0,0,0,0,0,0c-1,0-1.8,0.8-1.8,1.9l0,0C19,2.9,19.9,3.7,20.9,3.6z M21,6.2c0,1.3,1,2.3,2.3,2.3
		s2.3-1,2.3-2.3c0-1.3-1-2.3-2.3-2.3c0,0,0,0-0.1,0C22,3.9,21,4.9,21,6.2z M17,6.4c1,0,1.8-0.8,1.8-1.8S18,2.8,17,2.8
		s-1.8,0.8-1.8,1.8c0,0,0,0,0,0C15.2,5.6,16,6.5,17,6.4C17,6.5,17,6.5,17,6.4z M10.9,8.4c1.3,0,2.3-1,2.3-2.3s-1-2.3-2.3-2.3
		c-1.3,0-2.3,1-2.3,2.3C8.6,7.4,9.6,8.4,10.9,8.4L10.9,8.4z M4.5,10.7c-0.1,1,0.7,1.9,1.7,2s1.9-0.7,2-1.7c0-0.1,0-0.2,0-0.3l0,0
		c0.1-1-0.7-1.9-1.7-2s-1.9,0.7-2,1.7C4.5,10.5,4.5,10.6,4.5,10.7z M4.5,14.7c-1.3,0-2.3,1-2.3,2.2c0,1.3,1,2.3,2.2,2.3
		s2.3-1,2.3-2.2c0,0,0,0,0-0.1C6.7,15.8,5.8,14.8,4.5,14.7L4.5,14.7z M6.3,21.2c-1,0-1.8,0.8-1.8,1.8c0,1,0.8,1.8,1.8,1.8l0,0
		c1,0,1.8-0.8,1.8-1.8C8.2,22,7.3,21.2,6.3,21.2z M13.1,27.6c0-1.3-1.1-2.3-2.3-2.2s-2.3,1.1-2.2,2.3s1.1,2.3,2.3,2.2
		C12.1,29.9,13.1,28.9,13.1,27.6L13.1,27.6z M17,27.6c-1,0-1.8,0.8-1.8,1.8c0,1,0.8,1.8,1.8,1.8s1.8-0.8,1.8-1.8c0,0,0,0,0,0
		C18.8,28.4,18,27.6,17,27.6C17,27.6,17,27.6,17,27.6z M23.3,25.4c-1.3,0-2.3,1-2.3,2.3c0,1.3,1,2.3,2.3,2.3c1.3,0,2.3-1,2.3-2.3
		c0,0,0,0,0,0C25.6,26.4,24.6,25.4,23.3,25.4C23.3,25.4,23.3,25.4,23.3,25.4L23.3,25.4z M27.8,25c1,0,1.8-0.8,1.8-1.8
		c0-1-0.8-1.8-1.8-1.8c0,0,0,0,0,0l0,0c-1,0-1.8,0.8-1.8,1.8C25.9,24.2,26.8,25,27.8,25z M27.1,17c0,1.3,1,2.3,2.3,2.3
		s2.3-1,2.3-2.3c0,0,0,0,0,0l0,0c0-1.3-1-2.3-2.3-2.3C28.1,14.7,27.1,15.7,27.1,17z M27.8,12.5c1,0,1.8-0.8,1.8-1.8
		s-0.8-1.8-1.8-1.8s-1.8,0.8-1.8,1.8l0,0C25.9,11.7,26.8,12.5,27.8,12.5C27.8,12.5,27.8,12.5,27.8,12.5L27.8,12.5z"/>
	<path class="st1" d="M46.6,11.6c-0.2,1.7,1.1,3.2,2.8,3.4c0.2,0,0.4,0,0.5,0c0.9,0,1.8-0.1,2.7-0.5l0.3,1.3c-1,0.4-2.1,0.6-3.2,0.6
		c-3,0-4.8-2-4.8-4.9s1.7-5.3,4.6-5.3c3.2,0,4,2.8,4,4.6c0,0.3,0,0.5-0.1,0.8L46.6,11.6z M51.8,10.3c0-1.1-0.5-2.9-2.5-2.9
		c-1.8,0-2.6,1.6-2.7,2.9H51.8z M55.5,14c0.9,0.6,2,0.9,3.1,0.9c1.8,0,2.8-1,2.8-2.3s-0.7-2-2.5-2.7c-2.2-0.8-3.6-1.9-3.6-3.8
		c0-2.1,1.7-3.7,4.4-3.7c1,0,2.1,0.2,3,0.7l-0.5,1.4c-0.8-0.4-1.7-0.6-2.6-0.6c-1.8,0-2.5,1.1-2.5,2c0,1.3,0.8,1.9,2.7,2.6
		c2.3,0.9,3.5,2,3.5,4s-1.5,3.9-4.7,3.9c-1.2,0-2.4-0.3-3.5-0.9L55.5,14z M72.6,15.8c-0.9,0.4-1.8,0.6-2.8,0.6
		c-2.5,0.1-4.7-1.8-4.8-4.4c0-0.2,0-0.4,0-0.6c-0.1-2.7,2-5,4.7-5.2c0.2,0,0.4,0,0.5,0c0.8,0,1.7,0.2,2.4,0.5L72.3,8
		c-0.6-0.3-1.3-0.5-2-0.5c-1.9-0.1-3.4,1.4-3.5,3.3c0,0.1,0,0.3,0,0.4c-0.2,1.8,1.2,3.5,3,3.6c0.1,0,0.2,0,0.4,0
		c0.7,0,1.5-0.2,2.2-0.5L72.6,15.8z M74.7,1.9h1.8V8l0,0c0.3-0.6,0.8-1,1.3-1.3c0.5-0.3,1.2-0.5,1.8-0.5c1.3,0,3.4,0.8,3.4,4.2v5.8
		h-1.8v-5.6c0-1.6-0.6-2.9-2.2-2.9c-1.1,0-2,0.7-2.4,1.8c-0.1,0.3-0.1,0.6-0.1,0.9v5.9h-1.8V1.9z M94.7,11.2c0,3.6-2.5,5.2-4.8,5.2
		c-2.6,0-4.7-1.9-4.7-5c0-3.2,2.1-5.2,4.8-5.2S94.7,8.2,94.7,11.2L94.7,11.2z M87,11.3c0,2.1,1.2,3.7,3,3.7s3-1.6,3-3.8
		c0-1.6-0.8-3.7-2.9-3.7S86.9,9.4,87,11.3L87,11.3z M96.9,1.9h1.8v14.3h-1.8L96.9,1.9z M107,16.1l-0.1-1.2h-0.1
		c-0.7,0.9-1.8,1.5-3,1.4c-1.5,0.1-2.9-1-3-2.5c0-0.1,0-0.2,0-0.3c0-2.3,2.1-3.6,5.8-3.6V9.8c0.1-1.1-0.6-2.1-1.7-2.2
		c-0.2,0-0.3,0-0.5,0c-0.9,0-1.8,0.3-2.5,0.7l-0.4-1.2c1-0.6,2.1-0.9,3.2-0.9c3,0,3.7,2,3.7,4v3.6c0,0.8,0,1.6,0.2,2.3L107,16.1z
		 M106.7,11.1c-1.9,0-4.1,0.3-4.1,2.2c-0.1,0.9,0.6,1.6,1.4,1.7c0.1,0,0.2,0,0.2,0c1.1,0,2-0.6,2.3-1.6c0.1-0.2,0.1-0.4,0.1-0.6
		L106.7,11.1L106.7,11.1z M111.3,9.4c0-1.1,0-2.1-0.1-3h1.5l0.1,1.9h0.1c0.3-1.2,1.4-2.1,2.7-2.1c0.2,0,0.3,0,0.5,0.1v1.7
		c-0.2,0-0.4-0.1-0.6-0.1c-1.2,0.1-2.3,1-2.4,2.3c-0.1,0.3-0.1,0.6-0.1,0.9v5.2h-1.7L111.3,9.4z M117.6,14.3
		c0.7,0.4,1.5,0.7,2.4,0.7c1.3,0,1.9-0.6,1.9-1.4s-0.5-1.3-1.8-1.8c-1.8-0.6-2.6-1.6-2.6-2.8c0-1.6,1.3-2.8,3.4-2.8
		c0.8,0,1.7,0.2,2.4,0.6l-0.4,1.3c-0.6-0.4-1.3-0.6-2-0.6c-1,0-1.6,0.6-1.6,1.3s0.5,1.2,1.8,1.7c1.7,0.6,2.6,1.5,2.6,2.9
		c0,1.7-1.3,2.9-3.6,2.9c-1,0-1.9-0.2-2.7-0.7L117.6,14.3z M125.8,1.8h1.8V8l0,0c0.3-0.5,0.7-1,1.3-1.2c0.6-0.3,1.2-0.5,1.8-0.5
		c1.3,0,3.4,0.8,3.4,4.2v5.8h-1.8v-5.6c0-1.6-0.6-2.9-2.2-2.9c-1.1,0-2,0.7-2.4,1.8c-0.1,0.3-0.1,0.6-0.1,0.9v5.9h-1.8L125.8,1.8
		L125.8,1.8z M138.9,3.7c-0.1,0.6-0.6,1-1.2,1c-0.5-0.1-0.9-0.5-1-1c0-0.6,0.4-1.1,1-1.1c0,0,0,0,0.1,0c0.6,0,1,0.4,1.1,0.9
		C138.9,3.5,138.9,3.6,138.9,3.7z M136.9,16.1V6.4h1.8v9.7L136.9,16.1z M141.6,9.6c0-1.2,0-2.2-0.1-3.2h1.6l0.1,1.7l0,0
		c0.7-1.2,2-1.9,3.4-1.9c2.4,0,4.1,2,4.1,4.9c0,3.5-2.1,5.2-4.4,5.2c-1.2,0.1-2.3-0.5-3-1.5l0,0v5.3h-1.8L141.6,9.6L141.6,9.6z
		 M143.4,12.1c0,0.2,0,0.5,0.1,0.7c0.3,1.3,1.4,2.1,2.7,2.1c1.9,0,3-1.5,3-3.8c0-2-1-3.6-2.9-3.6c-1.3,0-2.4,0.9-2.7,2.2
		c-0.1,0.2-0.1,0.5-0.1,0.7L143.4,12.1L143.4,12.1z"/>
	<path class="st2" d="M45.8,31.6V31l0.8-0.7c1.8-1.7,2.7-2.7,2.7-3.7c0.1-0.7-0.4-1.3-1.1-1.4c-0.1,0-0.2,0-0.3,0
		c-0.6,0-1.1,0.2-1.5,0.6l-0.3-0.7c0.6-0.5,1.3-0.7,2-0.7c1.1-0.1,2.1,0.7,2.2,1.8c0,0.1,0,0.2,0,0.3c0,1.3-1,2.4-2.5,3.8l-0.6,0.5
		l0,0h3.2v0.8L45.8,31.6z"/>
	<path class="st2" d="M56.2,28c0,2.4-0.9,3.8-2.5,3.8c-1.4,0-2.3-1.3-2.4-3.7s1-3.7,2.5-3.7S56.2,25.7,56.2,28z M52.3,28.1
		c0,1.9,0.6,2.9,1.5,2.9s1.5-1.1,1.5-3s-0.5-2.9-1.5-2.9C52.9,25.1,52.3,26.1,52.3,28.1L52.3,28.1z"/>
	<path class="st2" d="M62.6,28.9v2.8h-0.9v-2.8l-2.5-4.6h1l2,3.7l0,0l2-3.7H65L62.6,28.9z"/>
	<path class="st2" d="M65.8,29.8c0.1,0.2,0.2,0.5,0.3,0.7c0.1,0.2,0.3,0.4,0.5,0.5c0.2,0.1,0.5,0.2,0.8,0.2c0.2,0,0.3,0,0.5,0
		c0.1,0,0.3-0.1,0.4-0.1c0.1,0,0.2-0.1,0.3-0.2l0.2-0.1l0.3,0.6l-0.3,0.2c-0.1,0.1-0.3,0.1-0.4,0.2c-0.2,0.1-0.3,0.1-0.5,0.1
		c-0.2,0-0.4,0.1-0.7,0.1c-0.4,0-0.7-0.1-1.1-0.2c-0.3-0.1-0.6-0.3-0.8-0.6c-0.2-0.3-0.4-0.6-0.5-0.9c-0.1-0.4-0.2-0.7-0.2-1.1
		c0-0.4,0.1-0.7,0.2-1.1c0.1-0.3,0.3-0.6,0.5-0.9c0.2-0.2,0.5-0.4,0.8-0.6c0.3-0.1,0.7-0.2,1-0.2c0.3,0,0.6,0.1,0.9,0.2
		c0.3,0.1,0.5,0.3,0.7,0.6c0.2,0.3,0.3,0.6,0.4,0.9c0.1,0.4,0.1,0.7,0,1.1h-3.6C65.8,29.3,65.8,29.5,65.8,29.8z M68.5,28.3
		c0-0.2,0-0.4-0.1-0.5c0-0.2-0.1-0.3-0.2-0.5c-0.1-0.1-0.2-0.2-0.4-0.3c-0.2-0.1-0.4-0.1-0.6-0.1c-0.4,0-0.7,0.1-1,0.4
		c-0.2,0.3-0.4,0.6-0.5,1L68.5,28.3z"/>
	<path class="st2" d="M73.5,31.6c0-0.1,0-0.2,0-0.3s0-0.2,0-0.3c-0.1,0.1-0.1,0.2-0.2,0.3c-0.1,0.1-0.2,0.2-0.3,0.2
		c-0.1,0.1-0.3,0.2-0.4,0.2c-0.2,0-0.4,0.1-0.6,0.1c-0.4,0-0.8-0.1-1.1-0.4c-0.3-0.3-0.4-0.6-0.4-1c0-0.3,0.1-0.6,0.3-0.9
		c0.2-0.2,0.4-0.4,0.7-0.6c0.3-0.1,0.6-0.2,0.9-0.3c0.3-0.1,0.7-0.1,1-0.1h0.2V28c0-0.3-0.1-0.6-0.2-0.8c-0.2-0.2-0.5-0.3-0.8-0.3
		c-0.2,0-0.3,0-0.5,0.1c-0.1,0-0.3,0.1-0.4,0.2c-0.1,0.1-0.2,0.1-0.3,0.2l-0.2,0.2L70.5,27c0.1-0.1,0.2-0.2,0.3-0.2
		c0.1-0.1,0.2-0.2,0.4-0.2c0.2-0.1,0.3-0.1,0.5-0.2c0.2-0.1,0.5-0.1,0.7-0.1c0.5,0,1,0.1,1.3,0.4c0.3,0.4,0.5,0.8,0.5,1.3v2.5
		c0,0.3,0,0.5,0,0.7s0.1,0.4,0.1,0.5L73.5,31.6z M73.4,29.1h-0.2c-0.3,0-0.5,0-0.8,0.1c-0.2,0-0.4,0.1-0.6,0.2
		c-0.2,0.1-0.3,0.2-0.4,0.4c-0.1,0.2-0.2,0.4-0.2,0.6c0,0.1,0,0.2,0.1,0.4c0,0.1,0.1,0.2,0.2,0.2c0.2,0.1,0.3,0.2,0.5,0.2
		c0.2,0,0.4,0,0.5-0.1c0.1-0.1,0.3-0.1,0.4-0.2c0.1-0.1,0.2-0.2,0.3-0.2l0.2-0.2L73.4,29.1z"/>
	<path class="st2" d="M78.5,27.1l-0.1-0.1c-0.1,0-0.2,0-0.3,0c-0.2,0-0.4,0-0.5,0.1c-0.1,0.1-0.3,0.2-0.4,0.3
		c-0.1,0.1-0.2,0.2-0.3,0.4c-0.1,0.1-0.1,0.2-0.1,0.2v3.5H76v-5.3h0.8v0.8c0.1-0.1,0.1-0.2,0.2-0.3c0.1-0.1,0.2-0.2,0.3-0.3
		c0.1-0.1,0.3-0.2,0.4-0.2c0.3-0.1,0.6-0.1,0.9-0.1l0.2,0.1L78.5,27.1z"/>
	<path class="st2" d="M82.9,30.2c0,0.4-0.2,0.9-0.5,1.1c-0.4,0.3-0.9,0.4-1.4,0.4c-0.3,0-0.7,0-1-0.2c-0.2-0.1-0.5-0.2-0.7-0.3
		l0.4-0.6c0.2,0.1,0.3,0.2,0.5,0.3c0.3,0.1,0.5,0.2,0.8,0.2c0.3,0,0.5-0.1,0.8-0.2c0.2-0.1,0.3-0.3,0.3-0.6c0-0.2-0.1-0.4-0.3-0.6
		c-0.1-0.1-0.2-0.2-0.4-0.2l-0.5-0.2c-0.2-0.1-0.4-0.2-0.6-0.3c-0.2-0.1-0.3-0.2-0.5-0.3c-0.1-0.1-0.2-0.3-0.3-0.4
		c-0.1-0.2-0.1-0.4-0.1-0.6c0-0.2,0-0.4,0.1-0.6c0.1-0.2,0.2-0.3,0.3-0.5c0.2-0.1,0.3-0.2,0.5-0.3c0.2-0.1,0.5-0.1,0.7-0.1
		c0.2,0,0.4,0,0.6,0.1c0.2,0,0.3,0.1,0.4,0.1c0.1,0,0.2,0.1,0.3,0.2l0.2,0.1l-0.4,0.6c-0.1-0.1-0.3-0.2-0.4-0.2
		c-0.2-0.1-0.5-0.2-0.7-0.1c-0.2,0-0.5,0.1-0.7,0.2c-0.2,0.1-0.2,0.3-0.2,0.5c0,0.2,0.1,0.4,0.3,0.6c0.2,0.2,0.5,0.3,0.7,0.4
		l0.6,0.3c0.2,0.1,0.4,0.2,0.5,0.3c0.1,0.1,0.3,0.3,0.4,0.4C82.8,29.8,82.9,30,82.9,30.2z"/>
	<path class="st2" d="M91.2,29c0,0.3,0,0.7-0.1,1c-0.1,0.3-0.2,0.6-0.4,0.9c-0.2,0.3-0.5,0.5-0.8,0.7c-0.4,0.2-0.8,0.3-1.2,0.3
		c-0.4,0-0.8-0.1-1.1-0.3c-0.3-0.2-0.6-0.4-0.8-0.6c-0.2-0.3-0.3-0.6-0.4-0.9c-0.1-0.3-0.1-0.6-0.1-1c0-0.3,0-0.7,0.1-1
		c0.1-0.3,0.2-0.6,0.4-0.9c0.2-0.3,0.4-0.5,0.7-0.7c0.3-0.2,0.7-0.3,1.1-0.3c0.4,0,0.8,0.1,1.1,0.3c0.3,0.2,0.6,0.4,0.8,0.7
		c0.2,0.3,0.4,0.6,0.5,0.9C91.2,28.4,91.2,28.7,91.2,29z M90.3,29c0-0.3,0-0.5-0.1-0.8c-0.1-0.2-0.2-0.5-0.3-0.7
		c-0.1-0.2-0.3-0.3-0.5-0.5c-0.2-0.1-0.5-0.2-0.7-0.2c-0.2,0-0.5,0.1-0.7,0.2c-0.2,0.1-0.4,0.3-0.5,0.4c-0.1,0.2-0.2,0.4-0.3,0.7
		c-0.1,0.3-0.1,0.5-0.1,0.8c0,0.3,0,0.5,0.1,0.8c0.1,0.2,0.2,0.5,0.3,0.7c0.1,0.2,0.3,0.4,0.5,0.5c0.2,0.1,0.5,0.2,0.7,0.2
		c0.2,0,0.5,0,0.7-0.2c0.2-0.1,0.4-0.3,0.5-0.5c0.1-0.2,0.2-0.4,0.3-0.6C90.3,29.5,90.4,29.3,90.3,29z"/>
	<path class="st2" d="M95.3,24.4l-0.2-0.1c-0.1,0-0.3-0.1-0.5-0.1c-0.3,0-0.6,0.1-0.8,0.3c-0.2,0.3-0.3,0.6-0.3,1v0.7h1.3V27h-1.3
		v4.6h-0.8V27h-0.9v-0.6h0.9v-0.8c0-0.5,0.2-1.1,0.5-1.5c0.4-0.4,0.9-0.6,1.4-0.5c0.2,0,0.4,0,0.6,0.1l0.3,0.1L95.3,24.4z"/>
	<path class="st2" d="M105.4,28c0,0.5-0.1,1-0.2,1.4c-0.1,0.4-0.4,0.9-0.7,1.2c-0.3,0.4-0.7,0.6-1.1,0.8c-0.5,0.2-1,0.3-1.5,0.3
		c-0.5,0-1-0.1-1.5-0.3c-0.9-0.4-1.5-1.1-1.8-2c-0.2-0.5-0.3-1-0.3-1.5c0-0.5,0.1-1,0.2-1.5c0.2-0.4,0.4-0.9,0.7-1.2
		c0.3-0.3,0.7-0.6,1.1-0.8c0.5-0.2,1-0.3,1.5-0.3c0.5,0,1,0.1,1.5,0.3c0.4,0.2,0.8,0.5,1.1,0.8c0.3,0.4,0.6,0.8,0.7,1.2
		C105.3,27,105.4,27.5,105.4,28z M104.5,28c0-0.4-0.1-0.8-0.2-1.2c-0.1-0.4-0.3-0.7-0.5-1c-0.2-0.3-0.5-0.5-0.8-0.7
		c-0.7-0.3-1.6-0.3-2.3,0c-0.3,0.2-0.6,0.4-0.8,0.7c-0.2,0.3-0.4,0.6-0.5,1c-0.2,0.8-0.2,1.6,0,2.3c0.1,0.4,0.3,0.7,0.5,1
		c0.2,0.3,0.5,0.5,0.8,0.7c0.4,0.2,0.8,0.3,1.2,0.2c0.4,0,0.8-0.1,1.2-0.2c0.3-0.2,0.6-0.4,0.8-0.7c0.2-0.3,0.4-0.6,0.5-1
		C104.4,28.8,104.5,28.4,104.5,28z"/>
	<path class="st2" d="M111.3,29c0,0.4-0.1,0.8-0.2,1.1c-0.1,0.3-0.3,0.6-0.5,0.9c-0.2,0.2-0.5,0.4-0.7,0.6c-0.3,0.1-0.6,0.2-0.9,0.2
		c-0.3,0-0.6,0-0.9-0.2c-0.2-0.1-0.3-0.2-0.5-0.3v2.7h-0.8v-7.7h0.8v0.6c0.2-0.2,0.4-0.3,0.6-0.5c0.3-0.2,0.6-0.2,0.9-0.2
		c0.3,0,0.6,0.1,0.9,0.2c0.3,0.1,0.5,0.3,0.7,0.5c0.2,0.3,0.3,0.5,0.4,0.9C111.3,28.2,111.3,28.6,111.3,29z M110.5,29
		c0-0.3,0-0.6-0.1-0.8c0-0.2-0.1-0.5-0.3-0.7c-0.1-0.2-0.3-0.3-0.4-0.4c-0.2-0.1-0.4-0.2-0.7-0.2c-0.2,0-0.3,0-0.5,0.1
		c-0.1,0.1-0.3,0.1-0.4,0.2c-0.1,0.1-0.2,0.2-0.3,0.2l-0.2,0.2v2.9c0.2,0.1,0.3,0.2,0.5,0.3c0.2,0.1,0.5,0.2,0.8,0.2
		c0.2,0,0.5,0,0.7-0.1c0.2-0.1,0.4-0.3,0.5-0.4c0.1-0.2,0.2-0.4,0.3-0.7C110.5,29.6,110.5,29.3,110.5,29z"/>
	<path class="st2" d="M113.2,29.8c0.1,0.2,0.2,0.5,0.3,0.7c0.1,0.2,0.3,0.3,0.5,0.5c0.2,0.1,0.5,0.2,0.8,0.2c0.2,0,0.3,0,0.5,0
		c0.1,0,0.3-0.1,0.4-0.1c0.1,0,0.2-0.1,0.3-0.2l0.2-0.1l0.3,0.6l-0.3,0.2c-0.1,0.1-0.2,0.1-0.4,0.2c-0.2,0.1-0.3,0.1-0.5,0.1
		c-0.2,0-0.4,0.1-0.7,0.1c-0.4,0-0.8-0.1-1.1-0.2c-0.3-0.1-0.6-0.3-0.8-0.6c-0.2-0.3-0.4-0.6-0.5-0.9c-0.1-0.4-0.2-0.7-0.2-1.1
		c0-0.4,0.1-0.7,0.2-1.1c0.1-0.3,0.3-0.6,0.5-0.9c0.4-0.5,1.1-0.8,1.7-0.8c0.3,0,0.6,0.1,0.9,0.2c0.3,0.1,0.5,0.3,0.7,0.6
		c0.2,0.3,0.3,0.6,0.4,0.9c0.1,0.4,0.1,0.7,0.1,1.1h-3.6C113.1,29.3,113.1,29.5,113.2,29.8z M115.9,28.3c0-0.2,0-0.4-0.1-0.5
		c0-0.2-0.1-0.3-0.2-0.5c-0.1-0.1-0.2-0.2-0.4-0.3c-0.2-0.1-0.4-0.1-0.6-0.1c-0.4,0-0.7,0.1-1,0.4c-0.2,0.3-0.4,0.6-0.5,1
		L115.9,28.3z"/>
	<path class="st2" d="M121.4,31.6V28c0-0.3-0.1-0.6-0.2-0.8c-0.2-0.2-0.5-0.3-0.7-0.3c-0.2,0-0.4,0-0.6,0.1
		c-0.2,0.1-0.3,0.2-0.5,0.3c-0.1,0.1-0.2,0.2-0.3,0.3l-0.2,0.2v3.7h-0.8v-5.2h0.8v0.8c0.1-0.1,0.1-0.2,0.2-0.3
		c0.1-0.1,0.2-0.2,0.4-0.3c0.3-0.2,0.7-0.3,1.1-0.3c0.2,0,0.5,0,0.7,0.1c0.2,0.1,0.3,0.2,0.5,0.4c0.1,0.2,0.2,0.3,0.3,0.5
		c0.1,0.2,0.1,0.4,0.1,0.6v3.8H121.4z"/>
	<path class="st2" d="M126.6,31.6h-0.8l2.8-7.3h0.8l2.8,7.3h-0.9l-0.7-1.8h-3.3L126.6,31.6z M129.9,27.8l-0.5-1.2
		c-0.1-0.2-0.1-0.3-0.2-0.5s-0.1-0.3-0.1-0.4s-0.1-0.3-0.1-0.4l0,0l-0.1,0.4l-0.1,0.4l-0.2,0.5l-0.9,2.5h2.8L129.9,27.8z"/>
	<path class="st2" d="M136.6,31.4c-0.1,0.1-0.2,0.1-0.3,0.2c-0.2,0.1-0.3,0.1-0.5,0.1c-0.2,0-0.4,0.1-0.6,0c-0.3,0-0.7-0.1-1-0.2
		c-0.3-0.1-0.6-0.4-0.8-0.6c-0.2-0.3-0.4-0.6-0.5-0.9c-0.1-0.3-0.2-0.7-0.1-1c0-0.4,0.1-0.8,0.2-1.2c0.1-0.3,0.3-0.6,0.5-0.9
		c0.2-0.2,0.5-0.4,0.8-0.5c0.3-0.1,0.6-0.2,0.9-0.2c0.2,0,0.4,0,0.6,0c0.2,0,0.3,0.1,0.5,0.1c0.1,0.1,0.2,0.1,0.3,0.2l0.2,0.2
		l-0.4,0.6c-0.2-0.1-0.3-0.2-0.5-0.3c-0.2-0.1-0.5-0.2-0.8-0.1c-0.2,0-0.5,0.1-0.7,0.2c-0.2,0.1-0.4,0.3-0.5,0.4
		c-0.1,0.2-0.2,0.4-0.3,0.6c-0.1,0.5-0.1,1.1,0,1.6c0.1,0.2,0.2,0.5,0.3,0.7c0.3,0.4,0.7,0.6,1.2,0.6c0.2,0,0.3,0,0.5,0
		c0.1,0,0.3-0.1,0.4-0.1l0.3-0.1l0.2-0.1l0.3,0.6C136.8,31.3,136.7,31.4,136.6,31.4z"/>
	<path class="st2" d="M141.5,31.4c-0.1,0.1-0.2,0.1-0.3,0.2c-0.2,0.1-0.3,0.1-0.5,0.1c-0.2,0-0.4,0.1-0.6,0c-0.3,0-0.7-0.1-1-0.2
		c-0.3-0.1-0.6-0.4-0.8-0.6c-0.2-0.3-0.4-0.6-0.5-0.9c-0.1-0.3-0.2-0.7-0.1-1c0-0.4,0.1-0.8,0.2-1.2c0.1-0.3,0.3-0.6,0.5-0.9
		c0.2-0.2,0.5-0.4,0.8-0.5c0.3-0.1,0.6-0.2,0.9-0.2c0.2,0,0.4,0,0.6,0c0.2,0,0.3,0.1,0.5,0.1c0.1,0.1,0.2,0.1,0.3,0.2l0.2,0.2
		l-0.4,0.6c-0.2-0.1-0.3-0.2-0.5-0.3c-0.2-0.1-0.5-0.2-0.8-0.1c-0.2,0-0.5,0.1-0.7,0.2c-0.2,0.1-0.4,0.3-0.5,0.4
		c-0.1,0.2-0.2,0.4-0.3,0.6c-0.1,0.5-0.1,1.1,0,1.6c0.1,0.2,0.2,0.5,0.3,0.7c0.3,0.4,0.7,0.6,1.2,0.6c0.2,0,0.3,0,0.5,0
		c0.1,0,0.3-0.1,0.4-0.1l0.3-0.1l0.2-0.1l0.3,0.6C141.7,31.3,141.6,31.4,141.5,31.4z"/>
	<path class="st2" d="M143.5,29.8c0.1,0.2,0.2,0.5,0.3,0.7c0.1,0.2,0.3,0.3,0.5,0.5c0.2,0.1,0.5,0.2,0.8,0.2c0.2,0,0.3,0,0.5,0
		c0.1,0,0.3-0.1,0.4-0.1c0.1,0,0.2-0.1,0.3-0.2l0.2-0.1l0.3,0.6c-0.1,0.1-0.2,0.1-0.3,0.2c-0.1,0.1-0.2,0.1-0.4,0.2
		c-0.2,0.1-0.3,0.1-0.5,0.1c-0.2,0-0.4,0.1-0.6,0.1c-0.4,0-0.8-0.1-1.1-0.2c-0.3-0.1-0.6-0.3-0.8-0.6c-0.2-0.3-0.4-0.6-0.5-0.9
		c-0.2-0.7-0.2-1.5,0-2.2c0.1-0.3,0.3-0.6,0.5-0.9c0.4-0.5,1.1-0.8,1.7-0.8c0.3,0,0.6,0.1,0.9,0.2c0.3,0.1,0.5,0.3,0.7,0.6
		c0.2,0.3,0.3,0.6,0.4,0.9c0.1,0.4,0.1,0.7,0.1,1.1h-3.6C143.4,29.3,143.4,29.5,143.5,29.8z M146.1,28.3c0-0.2,0-0.4-0.1-0.5
		c0-0.2-0.1-0.3-0.2-0.5c-0.1-0.1-0.2-0.2-0.4-0.3c-0.2-0.1-0.4-0.1-0.6-0.1c-0.4,0-0.7,0.1-1,0.4c-0.2,0.3-0.4,0.6-0.5,1
		L146.1,28.3z"/>
	<path class="st2" d="M151.5,30.2c0,0.4-0.2,0.9-0.5,1.1c-0.4,0.3-0.9,0.4-1.4,0.4c-0.3,0-0.7,0-1-0.2c-0.2-0.1-0.5-0.2-0.7-0.3
		l0.4-0.6c0.2,0.1,0.3,0.2,0.5,0.3c0.3,0.1,0.5,0.2,0.8,0.2c0.3,0,0.6-0.1,0.8-0.2c0.3-0.2,0.4-0.6,0.2-0.9
		c-0.1-0.1-0.1-0.2-0.2-0.2c-0.1-0.1-0.2-0.2-0.4-0.2l-0.5-0.2c-0.2-0.1-0.4-0.2-0.6-0.3c-0.2-0.1-0.3-0.2-0.5-0.3
		c-0.1-0.1-0.2-0.3-0.3-0.4c-0.1-0.2-0.1-0.4-0.1-0.6c0-0.2,0-0.4,0.1-0.6c0.1-0.2,0.2-0.3,0.3-0.5c0.2-0.1,0.3-0.2,0.5-0.3
		c0.2-0.1,0.5-0.1,0.7-0.1c0.2,0,0.4,0,0.6,0.1c0.2,0,0.3,0.1,0.5,0.1c0.1,0,0.2,0.1,0.3,0.2l0.2,0.1l-0.4,0.6
		c-0.1-0.1-0.3-0.2-0.4-0.2c-0.2-0.1-0.5-0.2-0.7-0.1c-0.2,0-0.5,0.1-0.6,0.2c-0.2,0.1-0.2,0.3-0.2,0.5c0,0.2,0.1,0.4,0.3,0.6
		c0.2,0.2,0.5,0.3,0.7,0.4l0.6,0.3c0.2,0.1,0.4,0.2,0.5,0.3c0.1,0.1,0.3,0.3,0.4,0.4C151.4,29.8,151.5,30,151.5,30.2z"/>
	<path class="st2" d="M156,30.2c0,0.4-0.2,0.9-0.5,1.1c-0.4,0.3-0.9,0.4-1.4,0.4c-0.3,0-0.7,0-1-0.2c-0.2-0.1-0.5-0.2-0.7-0.3
		l0.4-0.6c0.2,0.1,0.3,0.2,0.5,0.3c0.3,0.1,0.5,0.2,0.8,0.2c0.3,0,0.6-0.1,0.8-0.2c0.3-0.2,0.4-0.6,0.2-0.9
		c-0.1-0.1-0.1-0.2-0.2-0.2c-0.1-0.1-0.2-0.2-0.4-0.2l-0.5-0.2c-0.2-0.1-0.4-0.2-0.6-0.3c-0.2-0.1-0.3-0.2-0.5-0.3
		c-0.1-0.1-0.2-0.3-0.3-0.4c-0.1-0.2-0.1-0.4-0.1-0.6c0-0.2,0-0.4,0.1-0.6c0.1-0.2,0.2-0.3,0.3-0.5c0.2-0.1,0.3-0.2,0.5-0.3
		c0.2-0.1,0.5-0.1,0.7-0.1c0.2,0,0.4,0,0.6,0.1c0.2,0,0.3,0.1,0.5,0.1c0.1,0,0.2,0.1,0.3,0.2l0.2,0.1l-0.4,0.6
		c-0.1-0.1-0.3-0.2-0.4-0.2c-0.2-0.1-0.5-0.2-0.7-0.1c-0.2,0-0.5,0.1-0.6,0.2c-0.2,0.1-0.2,0.3-0.2,0.5c0,0.2,0.1,0.4,0.3,0.6
		c0.2,0.2,0.5,0.3,0.7,0.4l0.6,0.3c0.2,0.1,0.4,0.2,0.5,0.3c0.1,0.1,0.3,0.3,0.4,0.4C155.9,29.8,156,30,156,30.2z"/>
</g>
<g id="Layer_2">
</g>
</svg>
