<svg version="1.1" viewBox="0.0 0.0 96.0 96.0" fill="none" stroke="none" stroke-linecap="square" stroke-miterlimit="10" xmlns:xlink="http://www.w3.org/1999/xlink" xmlns="http://www.w3.org/2000/svg"><clipPath id="p.0"><path d="m0 0l96.0 0l0 96.0l-96.0 0l0 -96.0z" clip-rule="nonzero"/></clipPath><g clip-path="url(#p.0)"><path fill="#000000" fill-opacity="0.0" d="m0 0l96.0 0l0 96.0l-96.0 0z" fill-rule="evenodd"/><path fill="#000000" fill-opacity="0.0" d="m12.077029 64.74894l54.488186 -54.48819l6.3622055 6.3622055l-54.48819 54.48819z" fill-rule="evenodd"/><path fill="#b27c71" d="m27.236969 65.87723l-6.0767 -6.0766983l2.2980976 -2.2980957q0.59662247 -0.59662247 0.9722729 -0.8617859q0.53032875 -0.3756523 1.0385628 -0.46403885q0.5192814 -0.09943771 1.0717087 0.09943771q0.56347466 0.18782425 1.0164661 0.64081573q0.77339745 0.77339554 0.8175907 1.8119583q0.044195175 1.016468 -1.2484837 2.309147l-1.5578461 1.5578461l2.4748745 2.4748726l-0.80654335 0.80654144zm-2.3754368 -3.9885216l1.5688934 -1.5688934q0.7844467 -0.7844467 0.8175907 -1.3921165q0.033145905 -0.6297684 -0.49718285 -1.160099q-0.3756523 -0.3756485 -0.83969116 -0.4419403q-0.46403694 -0.088386536 -0.8617859 0.13258362q-0.26516533 0.15467834 -0.80654335 0.69605637l-1.5578442 1.5578461l2.1765633 2.1765633zm7.9356174 -1.5716553l-4.3973217 -4.39732l0.67396164 -0.67396164l0.66291237 0.66291046q-0.20992279 -0.7181549 -0.14363098 -1.0717087q0.0662899 -0.3756485 0.33145523 -0.64081573q0.3756504 -0.3756485 0.9943695 -0.53032684l0.44194221 0.9501724q-0.44194221 0.11048508 -0.70710754 0.3756523q-0.25411606 0.25411606 -0.29831123 0.60766983q-0.044193268 0.33145523 0.14363098 0.67396164q0.26516533 0.53032684 0.7292042 0.9943657l2.309145 2.309147l-0.74024963 0.74025345zm4.427704 -7.25613l0.8617859 -0.6850128q0.49718475 0.8507385 0.3756485 1.7235756q-0.12153244 0.87283325 -0.88388443 1.6351814q-0.9612198 0.9612236 -2.1323662 0.9391289q-1.160099 -0.033145905 -2.2318077 -1.1048546q-1.1048546 -1.1048546 -1.1380005 -2.2870483q-0.044193268 -1.1932449 0.8617897 -2.099224q0.8838806 -0.88388443 2.0329285 -0.83969116q1.160099 0.033145905 2.2539062 1.1269531q0.066287994 0.06629181 0.19887161 0.19887543l-3.2814178 3.2814178q0.77339935 0.685009 1.5247002 0.7071037q0.74025345 0.011051178 1.2926788 -0.541378q0.40879822 -0.4087944 0.4861374 -0.90597916q0.07733917 -0.5192833 -0.22097015 -1.1490479zm-3.6460228 1.2374344l2.4527779 -2.452774q-0.60766983 -0.5192833 -1.115902 -0.56347656q-0.7954941 -0.06629181 -1.3589706 0.49718475q-0.5192833 0.5192795 -0.53033066 1.2153397q0 0.685009 0.5524254 1.3037262zm7.989479 -2.752468l-6.065651 -2.7289886l0.7844467 -0.7844467l3.579731 1.6793785q0.5745239 0.28726196 1.1600952 0.60766983q-0.2430687 -0.44194412 -0.5524254 -1.1048546l-1.701477 -3.6681175l0.7623482 -0.7623482l2.7289925 6.065651l-0.6960602 0.69605637zm-2.1876106 -8.242214l-0.8617859 -0.8617859l0.7513008 -0.7513008l0.8617859 0.8617859l-0.7513008 0.7513008zm5.2149124 5.2149124l-4.39732 -4.39732l0.7513008 -0.7513008l4.39732 4.39732l-0.7513008 0.7513008zm3.4761467 -6.304573l0.8617859 -0.685009q0.49718475 0.8507385 0.3756523 1.7235718q-0.12153244 0.87283325 -0.88388443 1.6351852q-0.9612236 0.9612236 -2.13237 0.93912506q-1.1600952 -0.033145905 -2.231804 -1.1048546q-1.1048546 -1.1048546 -1.1380005 -2.2870483q-0.044193268 -1.1932411 0.8617859 -2.099224q0.88388443 -0.8838806 2.0329323 -0.83968735q1.160099 0.033145905 2.2539024 1.1269493q0.06629181 0.06629181 0.19887543 0.19887543l-3.2814178 3.2814178q0.77339935 0.685009 1.5247002 0.70710754q0.74024963 0.011047363 1.2926788 -0.54138184q0.4087944 -0.4087944 0.48613358 -0.90597916q0.07734299 -0.5192795 -0.22097015 -1.1490479zm-3.646019 1.2374382l2.4527779 -2.4527779q-0.60766983 -0.5192833 -1.115902 -0.56347656q-0.7954979 -0.06629181 -1.3589706 0.49718475q-0.5192833 0.5192833 -0.53033066 1.2153397q0 0.685009 0.5524254 1.30373zm7.580681 -2.3436737l-5.7452393 -3.0493965l0.77339554 -0.77339935l3.2372246 1.845108l1.2042923 0.6739578q-0.044197083 -0.088386536 -0.67396164 -1.1379967l-1.8782539 -3.2703705l0.7623482 -0.7623482l3.2151299 1.8893013l1.0606575 0.6187172l-0.59661865 -1.1048546l-1.7898674 -3.2924652l0.7292061 -0.7292061l3.0162506 5.778389l-0.77339554 0.77339935l-3.3366623 -1.9445457l-0.9170265 -0.56347275l2.4969673 4.264736l-0.7844467 0.7844467z" fill-rule="nonzero"/></g></svg>